%TF.GenerationSoftware,KiCad,Pcbnew,(7.0.0)*%
%TF.CreationDate,2023-03-08T15:07:33+02:00*%
%TF.ProjectId,SARA-R4_DevBoard,53415241-2d52-4345-9f44-6576426f6172,rev?*%
%TF.SameCoordinates,Original*%
%TF.FileFunction,Drillmap*%
%TF.FilePolarity,Positive*%
%FSLAX45Y45*%
G04 Gerber Fmt 4.5, Leading zero omitted, Abs format (unit mm)*
G04 Created by KiCad (PCBNEW (7.0.0)) date 2023-03-08 15:07:33*
%MOMM*%
%LPD*%
G01*
G04 APERTURE LIST*
%ADD10C,0.100000*%
%ADD11C,0.200000*%
%ADD12C,0.065000*%
G04 APERTURE END LIST*
D10*
X18000000Y-12000000D02*
X18000000Y-8000000D01*
X12000000Y-8000000D02*
X12000000Y-12000000D01*
X12000000Y-8000000D02*
X18000000Y-8000000D01*
X12000000Y-12000000D02*
X18000000Y-12000000D01*
D11*
D12*
X15438500Y-8623750D02*
X15503500Y-8688750D01*
X15503500Y-8623750D02*
X15438500Y-8688750D01*
X16016500Y-8623750D02*
X16081500Y-8688750D01*
X16081500Y-8623750D02*
X16016500Y-8688750D01*
D11*
X12242619Y-12298476D02*
X12242619Y-12098476D01*
X12242619Y-12098476D02*
X12290238Y-12098476D01*
X12290238Y-12098476D02*
X12318809Y-12108000D01*
X12318809Y-12108000D02*
X12337857Y-12127048D01*
X12337857Y-12127048D02*
X12347381Y-12146095D01*
X12347381Y-12146095D02*
X12356905Y-12184190D01*
X12356905Y-12184190D02*
X12356905Y-12212762D01*
X12356905Y-12212762D02*
X12347381Y-12250857D01*
X12347381Y-12250857D02*
X12337857Y-12269905D01*
X12337857Y-12269905D02*
X12318809Y-12288952D01*
X12318809Y-12288952D02*
X12290238Y-12298476D01*
X12290238Y-12298476D02*
X12242619Y-12298476D01*
X12442619Y-12298476D02*
X12442619Y-12165143D01*
X12442619Y-12203238D02*
X12452143Y-12184190D01*
X12452143Y-12184190D02*
X12461667Y-12174667D01*
X12461667Y-12174667D02*
X12480714Y-12165143D01*
X12480714Y-12165143D02*
X12499762Y-12165143D01*
X12566428Y-12298476D02*
X12566428Y-12165143D01*
X12566428Y-12098476D02*
X12556905Y-12108000D01*
X12556905Y-12108000D02*
X12566428Y-12117524D01*
X12566428Y-12117524D02*
X12575952Y-12108000D01*
X12575952Y-12108000D02*
X12566428Y-12098476D01*
X12566428Y-12098476D02*
X12566428Y-12117524D01*
X12690238Y-12298476D02*
X12671190Y-12288952D01*
X12671190Y-12288952D02*
X12661667Y-12269905D01*
X12661667Y-12269905D02*
X12661667Y-12098476D01*
X12795000Y-12298476D02*
X12775952Y-12288952D01*
X12775952Y-12288952D02*
X12766428Y-12269905D01*
X12766428Y-12269905D02*
X12766428Y-12098476D01*
X12991190Y-12298476D02*
X12991190Y-12098476D01*
X12991190Y-12098476D02*
X13057857Y-12241333D01*
X13057857Y-12241333D02*
X13124524Y-12098476D01*
X13124524Y-12098476D02*
X13124524Y-12298476D01*
X13305476Y-12298476D02*
X13305476Y-12193714D01*
X13305476Y-12193714D02*
X13295952Y-12174667D01*
X13295952Y-12174667D02*
X13276905Y-12165143D01*
X13276905Y-12165143D02*
X13238809Y-12165143D01*
X13238809Y-12165143D02*
X13219762Y-12174667D01*
X13305476Y-12288952D02*
X13286428Y-12298476D01*
X13286428Y-12298476D02*
X13238809Y-12298476D01*
X13238809Y-12298476D02*
X13219762Y-12288952D01*
X13219762Y-12288952D02*
X13210238Y-12269905D01*
X13210238Y-12269905D02*
X13210238Y-12250857D01*
X13210238Y-12250857D02*
X13219762Y-12231809D01*
X13219762Y-12231809D02*
X13238809Y-12222286D01*
X13238809Y-12222286D02*
X13286428Y-12222286D01*
X13286428Y-12222286D02*
X13305476Y-12212762D01*
X13400714Y-12165143D02*
X13400714Y-12365143D01*
X13400714Y-12174667D02*
X13419762Y-12165143D01*
X13419762Y-12165143D02*
X13457857Y-12165143D01*
X13457857Y-12165143D02*
X13476905Y-12174667D01*
X13476905Y-12174667D02*
X13486428Y-12184190D01*
X13486428Y-12184190D02*
X13495952Y-12203238D01*
X13495952Y-12203238D02*
X13495952Y-12260381D01*
X13495952Y-12260381D02*
X13486428Y-12279428D01*
X13486428Y-12279428D02*
X13476905Y-12288952D01*
X13476905Y-12288952D02*
X13457857Y-12298476D01*
X13457857Y-12298476D02*
X13419762Y-12298476D01*
X13419762Y-12298476D02*
X13400714Y-12288952D01*
X13581667Y-12279428D02*
X13591190Y-12288952D01*
X13591190Y-12288952D02*
X13581667Y-12298476D01*
X13581667Y-12298476D02*
X13572143Y-12288952D01*
X13572143Y-12288952D02*
X13581667Y-12279428D01*
X13581667Y-12279428D02*
X13581667Y-12298476D01*
X13581667Y-12174667D02*
X13591190Y-12184190D01*
X13591190Y-12184190D02*
X13581667Y-12193714D01*
X13581667Y-12193714D02*
X13572143Y-12184190D01*
X13572143Y-12184190D02*
X13581667Y-12174667D01*
X13581667Y-12174667D02*
X13581667Y-12193714D01*
D12*
X11930000Y-12612500D02*
X11995000Y-12677500D01*
X11995000Y-12612500D02*
X11930000Y-12677500D01*
D11*
X12280714Y-12518476D02*
X12299762Y-12518476D01*
X12299762Y-12518476D02*
X12318809Y-12528000D01*
X12318809Y-12528000D02*
X12328333Y-12537524D01*
X12328333Y-12537524D02*
X12337857Y-12556571D01*
X12337857Y-12556571D02*
X12347381Y-12594667D01*
X12347381Y-12594667D02*
X12347381Y-12642286D01*
X12347381Y-12642286D02*
X12337857Y-12680381D01*
X12337857Y-12680381D02*
X12328333Y-12699428D01*
X12328333Y-12699428D02*
X12318809Y-12708952D01*
X12318809Y-12708952D02*
X12299762Y-12718476D01*
X12299762Y-12718476D02*
X12280714Y-12718476D01*
X12280714Y-12718476D02*
X12261667Y-12708952D01*
X12261667Y-12708952D02*
X12252143Y-12699428D01*
X12252143Y-12699428D02*
X12242619Y-12680381D01*
X12242619Y-12680381D02*
X12233095Y-12642286D01*
X12233095Y-12642286D02*
X12233095Y-12594667D01*
X12233095Y-12594667D02*
X12242619Y-12556571D01*
X12242619Y-12556571D02*
X12252143Y-12537524D01*
X12252143Y-12537524D02*
X12261667Y-12528000D01*
X12261667Y-12528000D02*
X12280714Y-12518476D01*
X12433095Y-12699428D02*
X12442619Y-12708952D01*
X12442619Y-12708952D02*
X12433095Y-12718476D01*
X12433095Y-12718476D02*
X12423571Y-12708952D01*
X12423571Y-12708952D02*
X12433095Y-12699428D01*
X12433095Y-12699428D02*
X12433095Y-12718476D01*
X12614048Y-12518476D02*
X12575952Y-12518476D01*
X12575952Y-12518476D02*
X12556905Y-12528000D01*
X12556905Y-12528000D02*
X12547381Y-12537524D01*
X12547381Y-12537524D02*
X12528333Y-12566095D01*
X12528333Y-12566095D02*
X12518809Y-12604190D01*
X12518809Y-12604190D02*
X12518809Y-12680381D01*
X12518809Y-12680381D02*
X12528333Y-12699428D01*
X12528333Y-12699428D02*
X12537857Y-12708952D01*
X12537857Y-12708952D02*
X12556905Y-12718476D01*
X12556905Y-12718476D02*
X12595000Y-12718476D01*
X12595000Y-12718476D02*
X12614048Y-12708952D01*
X12614048Y-12708952D02*
X12623571Y-12699428D01*
X12623571Y-12699428D02*
X12633095Y-12680381D01*
X12633095Y-12680381D02*
X12633095Y-12632762D01*
X12633095Y-12632762D02*
X12623571Y-12613714D01*
X12623571Y-12613714D02*
X12614048Y-12604190D01*
X12614048Y-12604190D02*
X12595000Y-12594667D01*
X12595000Y-12594667D02*
X12556905Y-12594667D01*
X12556905Y-12594667D02*
X12537857Y-12604190D01*
X12537857Y-12604190D02*
X12528333Y-12613714D01*
X12528333Y-12613714D02*
X12518809Y-12632762D01*
X12814048Y-12518476D02*
X12718809Y-12518476D01*
X12718809Y-12518476D02*
X12709286Y-12613714D01*
X12709286Y-12613714D02*
X12718809Y-12604190D01*
X12718809Y-12604190D02*
X12737857Y-12594667D01*
X12737857Y-12594667D02*
X12785476Y-12594667D01*
X12785476Y-12594667D02*
X12804524Y-12604190D01*
X12804524Y-12604190D02*
X12814048Y-12613714D01*
X12814048Y-12613714D02*
X12823571Y-12632762D01*
X12823571Y-12632762D02*
X12823571Y-12680381D01*
X12823571Y-12680381D02*
X12814048Y-12699428D01*
X12814048Y-12699428D02*
X12804524Y-12708952D01*
X12804524Y-12708952D02*
X12785476Y-12718476D01*
X12785476Y-12718476D02*
X12737857Y-12718476D01*
X12737857Y-12718476D02*
X12718809Y-12708952D01*
X12718809Y-12708952D02*
X12709286Y-12699428D01*
X12947381Y-12518476D02*
X12966429Y-12518476D01*
X12966429Y-12518476D02*
X12985476Y-12528000D01*
X12985476Y-12528000D02*
X12995000Y-12537524D01*
X12995000Y-12537524D02*
X13004524Y-12556571D01*
X13004524Y-12556571D02*
X13014048Y-12594667D01*
X13014048Y-12594667D02*
X13014048Y-12642286D01*
X13014048Y-12642286D02*
X13004524Y-12680381D01*
X13004524Y-12680381D02*
X12995000Y-12699428D01*
X12995000Y-12699428D02*
X12985476Y-12708952D01*
X12985476Y-12708952D02*
X12966429Y-12718476D01*
X12966429Y-12718476D02*
X12947381Y-12718476D01*
X12947381Y-12718476D02*
X12928333Y-12708952D01*
X12928333Y-12708952D02*
X12918809Y-12699428D01*
X12918809Y-12699428D02*
X12909286Y-12680381D01*
X12909286Y-12680381D02*
X12899762Y-12642286D01*
X12899762Y-12642286D02*
X12899762Y-12594667D01*
X12899762Y-12594667D02*
X12909286Y-12556571D01*
X12909286Y-12556571D02*
X12918809Y-12537524D01*
X12918809Y-12537524D02*
X12928333Y-12528000D01*
X12928333Y-12528000D02*
X12947381Y-12518476D01*
X13099762Y-12718476D02*
X13099762Y-12585143D01*
X13099762Y-12604190D02*
X13109286Y-12594667D01*
X13109286Y-12594667D02*
X13128333Y-12585143D01*
X13128333Y-12585143D02*
X13156905Y-12585143D01*
X13156905Y-12585143D02*
X13175952Y-12594667D01*
X13175952Y-12594667D02*
X13185476Y-12613714D01*
X13185476Y-12613714D02*
X13185476Y-12718476D01*
X13185476Y-12613714D02*
X13195000Y-12594667D01*
X13195000Y-12594667D02*
X13214048Y-12585143D01*
X13214048Y-12585143D02*
X13242619Y-12585143D01*
X13242619Y-12585143D02*
X13261667Y-12594667D01*
X13261667Y-12594667D02*
X13271190Y-12613714D01*
X13271190Y-12613714D02*
X13271190Y-12718476D01*
X13366429Y-12718476D02*
X13366429Y-12585143D01*
X13366429Y-12604190D02*
X13375952Y-12594667D01*
X13375952Y-12594667D02*
X13395000Y-12585143D01*
X13395000Y-12585143D02*
X13423571Y-12585143D01*
X13423571Y-12585143D02*
X13442619Y-12594667D01*
X13442619Y-12594667D02*
X13452143Y-12613714D01*
X13452143Y-12613714D02*
X13452143Y-12718476D01*
X13452143Y-12613714D02*
X13461667Y-12594667D01*
X13461667Y-12594667D02*
X13480714Y-12585143D01*
X13480714Y-12585143D02*
X13509286Y-12585143D01*
X13509286Y-12585143D02*
X13528333Y-12594667D01*
X13528333Y-12594667D02*
X13537857Y-12613714D01*
X13537857Y-12613714D02*
X13537857Y-12718476D01*
X13895952Y-12508952D02*
X13724524Y-12766095D01*
X14120714Y-12518476D02*
X14139762Y-12518476D01*
X14139762Y-12518476D02*
X14158810Y-12528000D01*
X14158810Y-12528000D02*
X14168333Y-12537524D01*
X14168333Y-12537524D02*
X14177857Y-12556571D01*
X14177857Y-12556571D02*
X14187381Y-12594667D01*
X14187381Y-12594667D02*
X14187381Y-12642286D01*
X14187381Y-12642286D02*
X14177857Y-12680381D01*
X14177857Y-12680381D02*
X14168333Y-12699428D01*
X14168333Y-12699428D02*
X14158810Y-12708952D01*
X14158810Y-12708952D02*
X14139762Y-12718476D01*
X14139762Y-12718476D02*
X14120714Y-12718476D01*
X14120714Y-12718476D02*
X14101667Y-12708952D01*
X14101667Y-12708952D02*
X14092143Y-12699428D01*
X14092143Y-12699428D02*
X14082619Y-12680381D01*
X14082619Y-12680381D02*
X14073095Y-12642286D01*
X14073095Y-12642286D02*
X14073095Y-12594667D01*
X14073095Y-12594667D02*
X14082619Y-12556571D01*
X14082619Y-12556571D02*
X14092143Y-12537524D01*
X14092143Y-12537524D02*
X14101667Y-12528000D01*
X14101667Y-12528000D02*
X14120714Y-12518476D01*
X14273095Y-12699428D02*
X14282619Y-12708952D01*
X14282619Y-12708952D02*
X14273095Y-12718476D01*
X14273095Y-12718476D02*
X14263571Y-12708952D01*
X14263571Y-12708952D02*
X14273095Y-12699428D01*
X14273095Y-12699428D02*
X14273095Y-12718476D01*
X14406429Y-12518476D02*
X14425476Y-12518476D01*
X14425476Y-12518476D02*
X14444524Y-12528000D01*
X14444524Y-12528000D02*
X14454048Y-12537524D01*
X14454048Y-12537524D02*
X14463571Y-12556571D01*
X14463571Y-12556571D02*
X14473095Y-12594667D01*
X14473095Y-12594667D02*
X14473095Y-12642286D01*
X14473095Y-12642286D02*
X14463571Y-12680381D01*
X14463571Y-12680381D02*
X14454048Y-12699428D01*
X14454048Y-12699428D02*
X14444524Y-12708952D01*
X14444524Y-12708952D02*
X14425476Y-12718476D01*
X14425476Y-12718476D02*
X14406429Y-12718476D01*
X14406429Y-12718476D02*
X14387381Y-12708952D01*
X14387381Y-12708952D02*
X14377857Y-12699428D01*
X14377857Y-12699428D02*
X14368333Y-12680381D01*
X14368333Y-12680381D02*
X14358810Y-12642286D01*
X14358810Y-12642286D02*
X14358810Y-12594667D01*
X14358810Y-12594667D02*
X14368333Y-12556571D01*
X14368333Y-12556571D02*
X14377857Y-12537524D01*
X14377857Y-12537524D02*
X14387381Y-12528000D01*
X14387381Y-12528000D02*
X14406429Y-12518476D01*
X14549286Y-12537524D02*
X14558810Y-12528000D01*
X14558810Y-12528000D02*
X14577857Y-12518476D01*
X14577857Y-12518476D02*
X14625476Y-12518476D01*
X14625476Y-12518476D02*
X14644524Y-12528000D01*
X14644524Y-12528000D02*
X14654048Y-12537524D01*
X14654048Y-12537524D02*
X14663571Y-12556571D01*
X14663571Y-12556571D02*
X14663571Y-12575619D01*
X14663571Y-12575619D02*
X14654048Y-12604190D01*
X14654048Y-12604190D02*
X14539762Y-12718476D01*
X14539762Y-12718476D02*
X14663571Y-12718476D01*
X14844524Y-12518476D02*
X14749286Y-12518476D01*
X14749286Y-12518476D02*
X14739762Y-12613714D01*
X14739762Y-12613714D02*
X14749286Y-12604190D01*
X14749286Y-12604190D02*
X14768333Y-12594667D01*
X14768333Y-12594667D02*
X14815952Y-12594667D01*
X14815952Y-12594667D02*
X14835000Y-12604190D01*
X14835000Y-12604190D02*
X14844524Y-12613714D01*
X14844524Y-12613714D02*
X14854048Y-12632762D01*
X14854048Y-12632762D02*
X14854048Y-12680381D01*
X14854048Y-12680381D02*
X14844524Y-12699428D01*
X14844524Y-12699428D02*
X14835000Y-12708952D01*
X14835000Y-12708952D02*
X14815952Y-12718476D01*
X14815952Y-12718476D02*
X14768333Y-12718476D01*
X14768333Y-12718476D02*
X14749286Y-12708952D01*
X14749286Y-12708952D02*
X14739762Y-12699428D01*
X15025476Y-12518476D02*
X14987381Y-12518476D01*
X14987381Y-12518476D02*
X14968333Y-12528000D01*
X14968333Y-12528000D02*
X14958810Y-12537524D01*
X14958810Y-12537524D02*
X14939762Y-12566095D01*
X14939762Y-12566095D02*
X14930238Y-12604190D01*
X14930238Y-12604190D02*
X14930238Y-12680381D01*
X14930238Y-12680381D02*
X14939762Y-12699428D01*
X14939762Y-12699428D02*
X14949286Y-12708952D01*
X14949286Y-12708952D02*
X14968333Y-12718476D01*
X14968333Y-12718476D02*
X15006429Y-12718476D01*
X15006429Y-12718476D02*
X15025476Y-12708952D01*
X15025476Y-12708952D02*
X15035000Y-12699428D01*
X15035000Y-12699428D02*
X15044524Y-12680381D01*
X15044524Y-12680381D02*
X15044524Y-12632762D01*
X15044524Y-12632762D02*
X15035000Y-12613714D01*
X15035000Y-12613714D02*
X15025476Y-12604190D01*
X15025476Y-12604190D02*
X15006429Y-12594667D01*
X15006429Y-12594667D02*
X14968333Y-12594667D01*
X14968333Y-12594667D02*
X14949286Y-12604190D01*
X14949286Y-12604190D02*
X14939762Y-12613714D01*
X14939762Y-12613714D02*
X14930238Y-12632762D01*
X15120714Y-12518476D02*
X15120714Y-12556571D01*
X15196905Y-12518476D02*
X15196905Y-12556571D01*
X15459762Y-12794667D02*
X15450238Y-12785143D01*
X15450238Y-12785143D02*
X15431191Y-12756571D01*
X15431191Y-12756571D02*
X15421667Y-12737524D01*
X15421667Y-12737524D02*
X15412143Y-12708952D01*
X15412143Y-12708952D02*
X15402619Y-12661333D01*
X15402619Y-12661333D02*
X15402619Y-12623238D01*
X15402619Y-12623238D02*
X15412143Y-12575619D01*
X15412143Y-12575619D02*
X15421667Y-12547048D01*
X15421667Y-12547048D02*
X15431191Y-12528000D01*
X15431191Y-12528000D02*
X15450238Y-12499428D01*
X15450238Y-12499428D02*
X15459762Y-12489905D01*
X15526429Y-12537524D02*
X15535952Y-12528000D01*
X15535952Y-12528000D02*
X15555000Y-12518476D01*
X15555000Y-12518476D02*
X15602619Y-12518476D01*
X15602619Y-12518476D02*
X15621667Y-12528000D01*
X15621667Y-12528000D02*
X15631191Y-12537524D01*
X15631191Y-12537524D02*
X15640714Y-12556571D01*
X15640714Y-12556571D02*
X15640714Y-12575619D01*
X15640714Y-12575619D02*
X15631191Y-12604190D01*
X15631191Y-12604190D02*
X15516905Y-12718476D01*
X15516905Y-12718476D02*
X15640714Y-12718476D01*
X15846429Y-12718476D02*
X15846429Y-12518476D01*
X15932143Y-12718476D02*
X15932143Y-12613714D01*
X15932143Y-12613714D02*
X15922619Y-12594667D01*
X15922619Y-12594667D02*
X15903572Y-12585143D01*
X15903572Y-12585143D02*
X15875000Y-12585143D01*
X15875000Y-12585143D02*
X15855952Y-12594667D01*
X15855952Y-12594667D02*
X15846429Y-12604190D01*
X16055952Y-12718476D02*
X16036905Y-12708952D01*
X16036905Y-12708952D02*
X16027381Y-12699428D01*
X16027381Y-12699428D02*
X16017857Y-12680381D01*
X16017857Y-12680381D02*
X16017857Y-12623238D01*
X16017857Y-12623238D02*
X16027381Y-12604190D01*
X16027381Y-12604190D02*
X16036905Y-12594667D01*
X16036905Y-12594667D02*
X16055952Y-12585143D01*
X16055952Y-12585143D02*
X16084524Y-12585143D01*
X16084524Y-12585143D02*
X16103572Y-12594667D01*
X16103572Y-12594667D02*
X16113095Y-12604190D01*
X16113095Y-12604190D02*
X16122619Y-12623238D01*
X16122619Y-12623238D02*
X16122619Y-12680381D01*
X16122619Y-12680381D02*
X16113095Y-12699428D01*
X16113095Y-12699428D02*
X16103572Y-12708952D01*
X16103572Y-12708952D02*
X16084524Y-12718476D01*
X16084524Y-12718476D02*
X16055952Y-12718476D01*
X16236905Y-12718476D02*
X16217857Y-12708952D01*
X16217857Y-12708952D02*
X16208333Y-12689905D01*
X16208333Y-12689905D02*
X16208333Y-12518476D01*
X16389286Y-12708952D02*
X16370238Y-12718476D01*
X16370238Y-12718476D02*
X16332143Y-12718476D01*
X16332143Y-12718476D02*
X16313095Y-12708952D01*
X16313095Y-12708952D02*
X16303572Y-12689905D01*
X16303572Y-12689905D02*
X16303572Y-12613714D01*
X16303572Y-12613714D02*
X16313095Y-12594667D01*
X16313095Y-12594667D02*
X16332143Y-12585143D01*
X16332143Y-12585143D02*
X16370238Y-12585143D01*
X16370238Y-12585143D02*
X16389286Y-12594667D01*
X16389286Y-12594667D02*
X16398810Y-12613714D01*
X16398810Y-12613714D02*
X16398810Y-12632762D01*
X16398810Y-12632762D02*
X16303572Y-12651809D01*
X16475000Y-12708952D02*
X16494048Y-12718476D01*
X16494048Y-12718476D02*
X16532143Y-12718476D01*
X16532143Y-12718476D02*
X16551191Y-12708952D01*
X16551191Y-12708952D02*
X16560714Y-12689905D01*
X16560714Y-12689905D02*
X16560714Y-12680381D01*
X16560714Y-12680381D02*
X16551191Y-12661333D01*
X16551191Y-12661333D02*
X16532143Y-12651809D01*
X16532143Y-12651809D02*
X16503572Y-12651809D01*
X16503572Y-12651809D02*
X16484524Y-12642286D01*
X16484524Y-12642286D02*
X16475000Y-12623238D01*
X16475000Y-12623238D02*
X16475000Y-12613714D01*
X16475000Y-12613714D02*
X16484524Y-12594667D01*
X16484524Y-12594667D02*
X16503572Y-12585143D01*
X16503572Y-12585143D02*
X16532143Y-12585143D01*
X16532143Y-12585143D02*
X16551191Y-12594667D01*
X16627381Y-12794667D02*
X16636905Y-12785143D01*
X16636905Y-12785143D02*
X16655953Y-12756571D01*
X16655953Y-12756571D02*
X16665476Y-12737524D01*
X16665476Y-12737524D02*
X16675000Y-12708952D01*
X16675000Y-12708952D02*
X16684524Y-12661333D01*
X16684524Y-12661333D02*
X16684524Y-12623238D01*
X16684524Y-12623238D02*
X16675000Y-12575619D01*
X16675000Y-12575619D02*
X16665476Y-12547048D01*
X16665476Y-12547048D02*
X16655953Y-12528000D01*
X16655953Y-12528000D02*
X16636905Y-12499428D01*
X16636905Y-12499428D02*
X16627381Y-12489905D01*
X16956905Y-12794667D02*
X16947381Y-12785143D01*
X16947381Y-12785143D02*
X16928334Y-12756571D01*
X16928334Y-12756571D02*
X16918810Y-12737524D01*
X16918810Y-12737524D02*
X16909286Y-12708952D01*
X16909286Y-12708952D02*
X16899762Y-12661333D01*
X16899762Y-12661333D02*
X16899762Y-12623238D01*
X16899762Y-12623238D02*
X16909286Y-12575619D01*
X16909286Y-12575619D02*
X16918810Y-12547048D01*
X16918810Y-12547048D02*
X16928334Y-12528000D01*
X16928334Y-12528000D02*
X16947381Y-12499428D01*
X16947381Y-12499428D02*
X16956905Y-12489905D01*
X17033095Y-12585143D02*
X17033095Y-12718476D01*
X17033095Y-12604190D02*
X17042619Y-12594667D01*
X17042619Y-12594667D02*
X17061667Y-12585143D01*
X17061667Y-12585143D02*
X17090238Y-12585143D01*
X17090238Y-12585143D02*
X17109286Y-12594667D01*
X17109286Y-12594667D02*
X17118810Y-12613714D01*
X17118810Y-12613714D02*
X17118810Y-12718476D01*
X17242619Y-12718476D02*
X17223572Y-12708952D01*
X17223572Y-12708952D02*
X17214048Y-12699428D01*
X17214048Y-12699428D02*
X17204524Y-12680381D01*
X17204524Y-12680381D02*
X17204524Y-12623238D01*
X17204524Y-12623238D02*
X17214048Y-12604190D01*
X17214048Y-12604190D02*
X17223572Y-12594667D01*
X17223572Y-12594667D02*
X17242619Y-12585143D01*
X17242619Y-12585143D02*
X17271191Y-12585143D01*
X17271191Y-12585143D02*
X17290238Y-12594667D01*
X17290238Y-12594667D02*
X17299762Y-12604190D01*
X17299762Y-12604190D02*
X17309286Y-12623238D01*
X17309286Y-12623238D02*
X17309286Y-12680381D01*
X17309286Y-12680381D02*
X17299762Y-12699428D01*
X17299762Y-12699428D02*
X17290238Y-12708952D01*
X17290238Y-12708952D02*
X17271191Y-12718476D01*
X17271191Y-12718476D02*
X17242619Y-12718476D01*
X17366429Y-12585143D02*
X17442619Y-12585143D01*
X17395000Y-12518476D02*
X17395000Y-12689905D01*
X17395000Y-12689905D02*
X17404524Y-12708952D01*
X17404524Y-12708952D02*
X17423572Y-12718476D01*
X17423572Y-12718476D02*
X17442619Y-12718476D01*
X17629286Y-12585143D02*
X17629286Y-12785143D01*
X17629286Y-12594667D02*
X17648334Y-12585143D01*
X17648334Y-12585143D02*
X17686429Y-12585143D01*
X17686429Y-12585143D02*
X17705476Y-12594667D01*
X17705476Y-12594667D02*
X17715000Y-12604190D01*
X17715000Y-12604190D02*
X17724524Y-12623238D01*
X17724524Y-12623238D02*
X17724524Y-12680381D01*
X17724524Y-12680381D02*
X17715000Y-12699428D01*
X17715000Y-12699428D02*
X17705476Y-12708952D01*
X17705476Y-12708952D02*
X17686429Y-12718476D01*
X17686429Y-12718476D02*
X17648334Y-12718476D01*
X17648334Y-12718476D02*
X17629286Y-12708952D01*
X17838810Y-12718476D02*
X17819762Y-12708952D01*
X17819762Y-12708952D02*
X17810238Y-12689905D01*
X17810238Y-12689905D02*
X17810238Y-12518476D01*
X18000715Y-12718476D02*
X18000715Y-12613714D01*
X18000715Y-12613714D02*
X17991191Y-12594667D01*
X17991191Y-12594667D02*
X17972143Y-12585143D01*
X17972143Y-12585143D02*
X17934048Y-12585143D01*
X17934048Y-12585143D02*
X17915000Y-12594667D01*
X18000715Y-12708952D02*
X17981667Y-12718476D01*
X17981667Y-12718476D02*
X17934048Y-12718476D01*
X17934048Y-12718476D02*
X17915000Y-12708952D01*
X17915000Y-12708952D02*
X17905476Y-12689905D01*
X17905476Y-12689905D02*
X17905476Y-12670857D01*
X17905476Y-12670857D02*
X17915000Y-12651809D01*
X17915000Y-12651809D02*
X17934048Y-12642286D01*
X17934048Y-12642286D02*
X17981667Y-12642286D01*
X17981667Y-12642286D02*
X18000715Y-12632762D01*
X18067381Y-12585143D02*
X18143572Y-12585143D01*
X18095953Y-12518476D02*
X18095953Y-12689905D01*
X18095953Y-12689905D02*
X18105476Y-12708952D01*
X18105476Y-12708952D02*
X18124524Y-12718476D01*
X18124524Y-12718476D02*
X18143572Y-12718476D01*
X18286429Y-12708952D02*
X18267381Y-12718476D01*
X18267381Y-12718476D02*
X18229286Y-12718476D01*
X18229286Y-12718476D02*
X18210238Y-12708952D01*
X18210238Y-12708952D02*
X18200715Y-12689905D01*
X18200715Y-12689905D02*
X18200715Y-12613714D01*
X18200715Y-12613714D02*
X18210238Y-12594667D01*
X18210238Y-12594667D02*
X18229286Y-12585143D01*
X18229286Y-12585143D02*
X18267381Y-12585143D01*
X18267381Y-12585143D02*
X18286429Y-12594667D01*
X18286429Y-12594667D02*
X18295953Y-12613714D01*
X18295953Y-12613714D02*
X18295953Y-12632762D01*
X18295953Y-12632762D02*
X18200715Y-12651809D01*
X18467381Y-12718476D02*
X18467381Y-12518476D01*
X18467381Y-12708952D02*
X18448334Y-12718476D01*
X18448334Y-12718476D02*
X18410238Y-12718476D01*
X18410238Y-12718476D02*
X18391191Y-12708952D01*
X18391191Y-12708952D02*
X18381667Y-12699428D01*
X18381667Y-12699428D02*
X18372143Y-12680381D01*
X18372143Y-12680381D02*
X18372143Y-12623238D01*
X18372143Y-12623238D02*
X18381667Y-12604190D01*
X18381667Y-12604190D02*
X18391191Y-12594667D01*
X18391191Y-12594667D02*
X18410238Y-12585143D01*
X18410238Y-12585143D02*
X18448334Y-12585143D01*
X18448334Y-12585143D02*
X18467381Y-12594667D01*
X18543572Y-12794667D02*
X18553096Y-12785143D01*
X18553096Y-12785143D02*
X18572143Y-12756571D01*
X18572143Y-12756571D02*
X18581667Y-12737524D01*
X18581667Y-12737524D02*
X18591191Y-12708952D01*
X18591191Y-12708952D02*
X18600715Y-12661333D01*
X18600715Y-12661333D02*
X18600715Y-12623238D01*
X18600715Y-12623238D02*
X18591191Y-12575619D01*
X18591191Y-12575619D02*
X18581667Y-12547048D01*
X18581667Y-12547048D02*
X18572143Y-12528000D01*
X18572143Y-12528000D02*
X18553096Y-12499428D01*
X18553096Y-12499428D02*
X18543572Y-12489905D01*
M02*
