%TF.GenerationSoftware,KiCad,Pcbnew,(7.0.0)*%
%TF.CreationDate,2023-03-08T15:34:42+02:00*%
%TF.ProjectId,SARA-R4_DevBoard,53415241-2d52-4345-9f44-6576426f6172,rev?*%
%TF.SameCoordinates,Original*%
%TF.FileFunction,Paste,Bot*%
%TF.FilePolarity,Positive*%
%FSLAX46Y46*%
G04 Gerber Fmt 4.6, Leading zero omitted, Abs format (unit mm)*
G04 Created by KiCad (PCBNEW (7.0.0)) date 2023-03-08 15:34:42*
%MOMM*%
%LPD*%
G01*
G04 APERTURE LIST*
G04 Aperture macros list*
%AMRoundRect*
0 Rectangle with rounded corners*
0 $1 Rounding radius*
0 $2 $3 $4 $5 $6 $7 $8 $9 X,Y pos of 4 corners*
0 Add a 4 corners polygon primitive as box body*
4,1,4,$2,$3,$4,$5,$6,$7,$8,$9,$2,$3,0*
0 Add four circle primitives for the rounded corners*
1,1,$1+$1,$2,$3*
1,1,$1+$1,$4,$5*
1,1,$1+$1,$6,$7*
1,1,$1+$1,$8,$9*
0 Add four rect primitives between the rounded corners*
20,1,$1+$1,$2,$3,$4,$5,0*
20,1,$1+$1,$4,$5,$6,$7,0*
20,1,$1+$1,$6,$7,$8,$9,0*
20,1,$1+$1,$8,$9,$2,$3,0*%
G04 Aperture macros list end*
%ADD10RoundRect,0.050000X0.112500X0.050000X-0.112500X0.050000X-0.112500X-0.050000X0.112500X-0.050000X0*%
%ADD11RoundRect,0.050000X0.050000X0.112500X-0.050000X0.112500X-0.050000X-0.112500X0.050000X-0.112500X0*%
%ADD12RoundRect,0.140000X0.140000X0.170000X-0.140000X0.170000X-0.140000X-0.170000X0.140000X-0.170000X0*%
%ADD13RoundRect,0.140000X0.170000X-0.140000X0.170000X0.140000X-0.170000X0.140000X-0.170000X-0.140000X0*%
%ADD14RoundRect,0.150000X-0.150000X-0.625000X0.150000X-0.625000X0.150000X0.625000X-0.150000X0.625000X0*%
%ADD15RoundRect,0.250000X-0.350000X-0.650000X0.350000X-0.650000X0.350000X0.650000X-0.350000X0.650000X0*%
%ADD16RoundRect,0.135000X0.135000X0.185000X-0.135000X0.185000X-0.135000X-0.185000X0.135000X-0.185000X0*%
%ADD17RoundRect,0.147500X0.147500X0.172500X-0.147500X0.172500X-0.147500X-0.172500X0.147500X-0.172500X0*%
%ADD18RoundRect,0.140000X-0.170000X0.140000X-0.170000X-0.140000X0.170000X-0.140000X0.170000X0.140000X0*%
%ADD19RoundRect,0.150000X-0.150000X0.512500X-0.150000X-0.512500X0.150000X-0.512500X0.150000X0.512500X0*%
%ADD20RoundRect,0.135000X-0.185000X0.135000X-0.185000X-0.135000X0.185000X-0.135000X0.185000X0.135000X0*%
%ADD21RoundRect,0.150000X-0.512500X-0.150000X0.512500X-0.150000X0.512500X0.150000X-0.512500X0.150000X0*%
%ADD22RoundRect,0.140000X-0.140000X-0.170000X0.140000X-0.170000X0.140000X0.170000X-0.140000X0.170000X0*%
%ADD23RoundRect,0.150000X0.150000X-0.512500X0.150000X0.512500X-0.150000X0.512500X-0.150000X-0.512500X0*%
%ADD24R,0.450000X1.200000*%
%ADD25RoundRect,0.232500X0.232500X0.232500X-0.232500X0.232500X-0.232500X-0.232500X0.232500X-0.232500X0*%
%ADD26RoundRect,0.062500X0.375000X0.062500X-0.375000X0.062500X-0.375000X-0.062500X0.375000X-0.062500X0*%
%ADD27RoundRect,0.062500X0.062500X0.375000X-0.062500X0.375000X-0.062500X-0.375000X0.062500X-0.375000X0*%
%ADD28R,1.800000X1.000000*%
%ADD29RoundRect,0.212500X-0.212500X-0.212500X0.212500X-0.212500X0.212500X0.212500X-0.212500X0.212500X0*%
%ADD30RoundRect,0.075000X-0.350000X-0.075000X0.350000X-0.075000X0.350000X0.075000X-0.350000X0.075000X0*%
%ADD31RoundRect,0.075000X-0.075000X-0.350000X0.075000X-0.350000X0.075000X0.350000X-0.075000X0.350000X0*%
%ADD32RoundRect,0.222500X0.382500X-0.222500X0.382500X0.222500X-0.382500X0.222500X-0.382500X-0.222500X0*%
%ADD33RoundRect,0.100000X0.100000X-0.225000X0.100000X0.225000X-0.100000X0.225000X-0.100000X-0.225000X0*%
%ADD34RoundRect,0.135000X0.185000X-0.135000X0.185000X0.135000X-0.185000X0.135000X-0.185000X-0.135000X0*%
%ADD35RoundRect,0.135000X-0.135000X-0.185000X0.135000X-0.185000X0.135000X0.185000X-0.135000X0.185000X0*%
%ADD36RoundRect,0.150000X0.150000X0.625000X-0.150000X0.625000X-0.150000X-0.625000X0.150000X-0.625000X0*%
%ADD37RoundRect,0.250000X0.350000X0.650000X-0.350000X0.650000X-0.350000X-0.650000X0.350000X-0.650000X0*%
%ADD38RoundRect,0.150000X-0.150000X0.587500X-0.150000X-0.587500X0.150000X-0.587500X0.150000X0.587500X0*%
G04 APERTURE END LIST*
D10*
X160762500Y-93375000D03*
X160762500Y-93725000D03*
X160762500Y-94075000D03*
X160762500Y-94425000D03*
D11*
X160350000Y-94662500D03*
X160000000Y-94662500D03*
X159650000Y-94662500D03*
D10*
X159237500Y-94425000D03*
X159237500Y-94075000D03*
X159237500Y-93725000D03*
X159237500Y-93375000D03*
D11*
X159650000Y-93137500D03*
X160000000Y-93137500D03*
X160350000Y-93137500D03*
D12*
X172240000Y-94060000D03*
X171280000Y-94060000D03*
D13*
X158240000Y-94430000D03*
X158240000Y-93470000D03*
D14*
X173230000Y-85600000D03*
X174230000Y-85600000D03*
X175230000Y-85600000D03*
X176230000Y-85600000D03*
D15*
X171930000Y-81725000D03*
X177530000Y-81725000D03*
D16*
X155780000Y-98250000D03*
X154760000Y-98250000D03*
X155260000Y-99270000D03*
X154240000Y-99270000D03*
D17*
X167275000Y-97130000D03*
X166305000Y-97130000D03*
D13*
X142980000Y-108970000D03*
X142980000Y-108010000D03*
D18*
X158230000Y-107620000D03*
X158230000Y-108580000D03*
D19*
X146850000Y-81262500D03*
X147800000Y-81262500D03*
X148750000Y-81262500D03*
X148750000Y-83537500D03*
X147800000Y-83537500D03*
X146850000Y-83537500D03*
D20*
X158850000Y-81230000D03*
X158850000Y-82250000D03*
D21*
X168620000Y-97130000D03*
X168620000Y-96180000D03*
X168620000Y-95230000D03*
X170895000Y-95230000D03*
X170895000Y-97130000D03*
D22*
X162070000Y-102450000D03*
X163030000Y-102450000D03*
X175250000Y-87810000D03*
X176210000Y-87810000D03*
D18*
X160200000Y-106720000D03*
X160200000Y-107680000D03*
D14*
X162100000Y-85600000D03*
X163100000Y-85600000D03*
X164100000Y-85600000D03*
X165100000Y-85600000D03*
X166100000Y-85600000D03*
X167100000Y-85600000D03*
D15*
X160800000Y-81725000D03*
X168400000Y-81725000D03*
D23*
X146220000Y-109497500D03*
X145270000Y-109497500D03*
X144320000Y-109497500D03*
X144320000Y-107222500D03*
X146220000Y-107222500D03*
D18*
X165420000Y-97150000D03*
X165420000Y-98110000D03*
D12*
X152140000Y-110550000D03*
X151180000Y-110550000D03*
D22*
X162050000Y-104970000D03*
X163010000Y-104970000D03*
D24*
X162549999Y-109399999D03*
X163199999Y-109399999D03*
X163849999Y-109399999D03*
X164499999Y-109399999D03*
X164499999Y-111899999D03*
X163849999Y-111899999D03*
X163199999Y-111899999D03*
X162549999Y-111899999D03*
D18*
X148800000Y-107730000D03*
X148800000Y-108690000D03*
D25*
X155150000Y-105850000D03*
X155150000Y-104700000D03*
X155150000Y-103550000D03*
X154000000Y-105850000D03*
X154000000Y-104700000D03*
X154000000Y-103550000D03*
X152850000Y-105850000D03*
X152850000Y-104700000D03*
X152850000Y-103550000D03*
D26*
X156437500Y-102950000D03*
X156437500Y-103450000D03*
X156437500Y-103950000D03*
X156437500Y-104450000D03*
X156437500Y-104950000D03*
X156437500Y-105450000D03*
X156437500Y-105950000D03*
X156437500Y-106450000D03*
D27*
X155750000Y-107137500D03*
X155250000Y-107137500D03*
X154750000Y-107137500D03*
X154250000Y-107137500D03*
X153750000Y-107137500D03*
X153250000Y-107137500D03*
X152750000Y-107137500D03*
X152250000Y-107137500D03*
D26*
X151562500Y-106450000D03*
X151562500Y-105950000D03*
X151562500Y-105450000D03*
X151562500Y-104950000D03*
X151562500Y-104450000D03*
X151562500Y-103950000D03*
X151562500Y-103450000D03*
X151562500Y-102950000D03*
D27*
X152250000Y-102262500D03*
X152750000Y-102262500D03*
X153250000Y-102262500D03*
X153750000Y-102262500D03*
X154250000Y-102262500D03*
X154750000Y-102262500D03*
X155250000Y-102262500D03*
X155750000Y-102262500D03*
D20*
X162425000Y-114240000D03*
X162425000Y-115260000D03*
D28*
X160589999Y-102449999D03*
X160589999Y-104949999D03*
D13*
X165725000Y-110630000D03*
X165725000Y-109670000D03*
D29*
X143550000Y-86625000D03*
X143550000Y-87675000D03*
X144600000Y-86625000D03*
X144600000Y-87675000D03*
D30*
X142125000Y-88125000D03*
X142125000Y-87475000D03*
X142125000Y-86825000D03*
X142125000Y-86175000D03*
D31*
X143100000Y-85200000D03*
X143750000Y-85200000D03*
X144400000Y-85200000D03*
X145050000Y-85200000D03*
D30*
X146025000Y-86175000D03*
X146025000Y-86825000D03*
X146025000Y-87475000D03*
X146025000Y-88125000D03*
D31*
X145050000Y-89100000D03*
X144400000Y-89100000D03*
X143750000Y-89100000D03*
X143100000Y-89100000D03*
D32*
X149350000Y-114350000D03*
X150850000Y-114350000D03*
X149350000Y-113250000D03*
X150850000Y-113250000D03*
D33*
X151300000Y-115450000D03*
X150500000Y-115450000D03*
X149700000Y-115450000D03*
X148900000Y-115450000D03*
X148900000Y-112150000D03*
X149700000Y-112150000D03*
X150500000Y-112150000D03*
X151300000Y-112150000D03*
D34*
X164625000Y-115260000D03*
X164625000Y-114240000D03*
D18*
X165420000Y-95030000D03*
X165420000Y-95990000D03*
D20*
X155860000Y-81230000D03*
X155860000Y-82250000D03*
D18*
X147760000Y-107730000D03*
X147760000Y-108690000D03*
D35*
X147780000Y-86830000D03*
X148800000Y-86830000D03*
D12*
X157040000Y-101150000D03*
X156080000Y-101150000D03*
D36*
X143800000Y-114500000D03*
X142800000Y-114500000D03*
X141800000Y-114500000D03*
X140800000Y-114500000D03*
D37*
X145100000Y-118375000D03*
X139500000Y-118375000D03*
D22*
X166100000Y-87450000D03*
X167060000Y-87450000D03*
D38*
X162575000Y-116630000D03*
X164475000Y-116630000D03*
X163525000Y-118505000D03*
D16*
X159210000Y-106700000D03*
X158190000Y-106700000D03*
D18*
X149850000Y-107720000D03*
X149850000Y-108680000D03*
D13*
X163525000Y-115230000D03*
X163525000Y-114270000D03*
D16*
X150560000Y-116910000D03*
X149540000Y-116910000D03*
M02*
