%TF.GenerationSoftware,KiCad,Pcbnew,(7.0.0)*%
%TF.CreationDate,2023-03-08T15:34:42+02:00*%
%TF.ProjectId,SARA-R4_DevBoard,53415241-2d52-4345-9f44-6576426f6172,rev?*%
%TF.SameCoordinates,Original*%
%TF.FileFunction,Legend,Bot*%
%TF.FilePolarity,Positive*%
%FSLAX46Y46*%
G04 Gerber Fmt 4.6, Leading zero omitted, Abs format (unit mm)*
G04 Created by KiCad (PCBNEW (7.0.0)) date 2023-03-08 15:34:42*
%MOMM*%
%LPD*%
G01*
G04 APERTURE LIST*
G04 Aperture macros list*
%AMRoundRect*
0 Rectangle with rounded corners*
0 $1 Rounding radius*
0 $2 $3 $4 $5 $6 $7 $8 $9 X,Y pos of 4 corners*
0 Add a 4 corners polygon primitive as box body*
4,1,4,$2,$3,$4,$5,$6,$7,$8,$9,$2,$3,0*
0 Add four circle primitives for the rounded corners*
1,1,$1+$1,$2,$3*
1,1,$1+$1,$4,$5*
1,1,$1+$1,$6,$7*
1,1,$1+$1,$8,$9*
0 Add four rect primitives between the rounded corners*
20,1,$1+$1,$2,$3,$4,$5,0*
20,1,$1+$1,$4,$5,$6,$7,0*
20,1,$1+$1,$6,$7,$8,$9,0*
20,1,$1+$1,$8,$9,$2,$3,0*%
G04 Aperture macros list end*
%ADD10C,0.150000*%
%ADD11C,0.120000*%
%ADD12C,0.010000*%
%ADD13C,0.200000*%
%ADD14C,0.100000*%
%ADD15R,2.000000X2.000000*%
%ADD16C,0.650000*%
%ADD17RoundRect,0.050000X0.112500X0.050000X-0.112500X0.050000X-0.112500X-0.050000X0.112500X-0.050000X0*%
%ADD18RoundRect,0.050000X0.050000X0.112500X-0.050000X0.112500X-0.050000X-0.112500X0.050000X-0.112500X0*%
%ADD19RoundRect,0.140000X0.140000X0.170000X-0.140000X0.170000X-0.140000X-0.170000X0.140000X-0.170000X0*%
%ADD20RoundRect,0.140000X0.170000X-0.140000X0.170000X0.140000X-0.170000X0.140000X-0.170000X-0.140000X0*%
%ADD21RoundRect,0.150000X-0.150000X-0.625000X0.150000X-0.625000X0.150000X0.625000X-0.150000X0.625000X0*%
%ADD22RoundRect,0.250000X-0.350000X-0.650000X0.350000X-0.650000X0.350000X0.650000X-0.350000X0.650000X0*%
%ADD23RoundRect,0.135000X0.135000X0.185000X-0.135000X0.185000X-0.135000X-0.185000X0.135000X-0.185000X0*%
%ADD24RoundRect,0.147500X0.147500X0.172500X-0.147500X0.172500X-0.147500X-0.172500X0.147500X-0.172500X0*%
%ADD25RoundRect,0.140000X-0.170000X0.140000X-0.170000X-0.140000X0.170000X-0.140000X0.170000X0.140000X0*%
%ADD26RoundRect,0.150000X-0.150000X0.512500X-0.150000X-0.512500X0.150000X-0.512500X0.150000X0.512500X0*%
%ADD27RoundRect,0.135000X-0.185000X0.135000X-0.185000X-0.135000X0.185000X-0.135000X0.185000X0.135000X0*%
%ADD28RoundRect,0.150000X-0.512500X-0.150000X0.512500X-0.150000X0.512500X0.150000X-0.512500X0.150000X0*%
%ADD29RoundRect,0.140000X-0.140000X-0.170000X0.140000X-0.170000X0.140000X0.170000X-0.140000X0.170000X0*%
%ADD30C,1.000000*%
%ADD31RoundRect,0.150000X0.150000X-0.512500X0.150000X0.512500X-0.150000X0.512500X-0.150000X-0.512500X0*%
%ADD32R,0.450000X1.200000*%
%ADD33RoundRect,0.062500X0.375000X0.062500X-0.375000X0.062500X-0.375000X-0.062500X0.375000X-0.062500X0*%
%ADD34RoundRect,0.062500X0.062500X0.375000X-0.062500X0.375000X-0.062500X-0.375000X0.062500X-0.375000X0*%
%ADD35R,3.450000X3.450000*%
%ADD36R,1.800000X1.000000*%
%ADD37RoundRect,0.075000X-0.350000X-0.075000X0.350000X-0.075000X0.350000X0.075000X-0.350000X0.075000X0*%
%ADD38RoundRect,0.075000X-0.075000X-0.350000X0.075000X-0.350000X0.075000X0.350000X-0.075000X0.350000X0*%
%ADD39R,2.100000X2.100000*%
%ADD40RoundRect,0.100000X0.100000X-0.225000X0.100000X0.225000X-0.100000X0.225000X-0.100000X-0.225000X0*%
%ADD41R,3.000000X2.200000*%
%ADD42RoundRect,0.135000X0.185000X-0.135000X0.185000X0.135000X-0.185000X0.135000X-0.185000X-0.135000X0*%
%ADD43RoundRect,0.135000X-0.135000X-0.185000X0.135000X-0.185000X0.135000X0.185000X-0.135000X0.185000X0*%
%ADD44RoundRect,0.150000X0.150000X0.625000X-0.150000X0.625000X-0.150000X-0.625000X0.150000X-0.625000X0*%
%ADD45RoundRect,0.250000X0.350000X0.650000X-0.350000X0.650000X-0.350000X-0.650000X0.350000X-0.650000X0*%
%ADD46RoundRect,0.150000X-0.150000X0.587500X-0.150000X-0.587500X0.150000X-0.587500X0.150000X0.587500X0*%
G04 APERTURE END LIST*
D10*
X161800000Y-97600000D02*
X159800000Y-97600000D01*
X159800000Y-97600000D02*
X160200000Y-98100000D01*
X161800000Y-95600000D02*
X162200000Y-96100000D01*
X147150000Y-107190000D02*
X150400000Y-107190000D01*
X150400000Y-107190000D02*
X150400000Y-109200000D01*
X150400000Y-109200000D02*
X147150000Y-109200000D01*
X147150000Y-109200000D02*
X147150000Y-107190000D01*
X161800000Y-95600000D02*
X161800000Y-97600000D01*
X136300000Y-102630000D02*
X141020000Y-102630000D01*
X141020000Y-102630000D02*
X141020000Y-106040000D01*
X141020000Y-106040000D02*
X136300000Y-106040000D01*
X136300000Y-106040000D02*
X136300000Y-102630000D01*
X141467500Y-104400000D02*
X146332500Y-104400000D01*
X146332500Y-104400000D02*
X148200000Y-106800000D01*
X159800000Y-97600000D02*
X160200000Y-97100000D01*
X162470820Y-97600000D02*
G75*
G03*
X162470820Y-97600000I-670820J0D01*
G01*
X161400000Y-96100000D02*
X161800000Y-95600000D01*
X162432619Y-98666667D02*
X162432619Y-99333333D01*
X162432619Y-99333333D02*
X161432619Y-98666667D01*
X161432619Y-98666667D02*
X161432619Y-99333333D01*
X162432619Y-94616667D02*
X161432619Y-95283333D01*
X162432619Y-95283333D02*
X161432619Y-94616667D01*
X158491190Y-97700000D02*
X158967380Y-97700000D01*
X157967380Y-97366667D02*
X158491190Y-97700000D01*
X158491190Y-97700000D02*
X157967380Y-98033333D01*
X167433333Y-116769380D02*
X167766666Y-116293190D01*
X168004761Y-116769380D02*
X168004761Y-115769380D01*
X168004761Y-115769380D02*
X167623809Y-115769380D01*
X167623809Y-115769380D02*
X167528571Y-115817000D01*
X167528571Y-115817000D02*
X167480952Y-115864619D01*
X167480952Y-115864619D02*
X167433333Y-115959857D01*
X167433333Y-115959857D02*
X167433333Y-116102714D01*
X167433333Y-116102714D02*
X167480952Y-116197952D01*
X167480952Y-116197952D02*
X167528571Y-116245571D01*
X167528571Y-116245571D02*
X167623809Y-116293190D01*
X167623809Y-116293190D02*
X168004761Y-116293190D01*
X167004761Y-116245571D02*
X166671428Y-116245571D01*
X166528571Y-116769380D02*
X167004761Y-116769380D01*
X167004761Y-116769380D02*
X167004761Y-115769380D01*
X167004761Y-115769380D02*
X166528571Y-115769380D01*
X165766666Y-116245571D02*
X166099999Y-116245571D01*
X166099999Y-116769380D02*
X166099999Y-115769380D01*
X166099999Y-115769380D02*
X165623809Y-115769380D01*
X165099999Y-115769380D02*
X165099999Y-116007476D01*
X165338094Y-115912238D02*
X165099999Y-116007476D01*
X165099999Y-116007476D02*
X164861904Y-115912238D01*
X165242856Y-116197952D02*
X165099999Y-116007476D01*
X165099999Y-116007476D02*
X164957142Y-116197952D01*
X164338094Y-115769380D02*
X164338094Y-116007476D01*
X164576189Y-115912238D02*
X164338094Y-116007476D01*
X164338094Y-116007476D02*
X164099999Y-115912238D01*
X164480951Y-116197952D02*
X164338094Y-116007476D01*
X164338094Y-116007476D02*
X164195237Y-116197952D01*
X162233333Y-116769380D02*
X162566666Y-116293190D01*
X162804761Y-116769380D02*
X162804761Y-115769380D01*
X162804761Y-115769380D02*
X162423809Y-115769380D01*
X162423809Y-115769380D02*
X162328571Y-115817000D01*
X162328571Y-115817000D02*
X162280952Y-115864619D01*
X162280952Y-115864619D02*
X162233333Y-115959857D01*
X162233333Y-115959857D02*
X162233333Y-116102714D01*
X162233333Y-116102714D02*
X162280952Y-116197952D01*
X162280952Y-116197952D02*
X162328571Y-116245571D01*
X162328571Y-116245571D02*
X162423809Y-116293190D01*
X162423809Y-116293190D02*
X162804761Y-116293190D01*
X161804761Y-116245571D02*
X161471428Y-116245571D01*
X161328571Y-116769380D02*
X161804761Y-116769380D01*
X161804761Y-116769380D02*
X161804761Y-115769380D01*
X161804761Y-115769380D02*
X161328571Y-115769380D01*
X160566666Y-116245571D02*
X160899999Y-116245571D01*
X160899999Y-116769380D02*
X160899999Y-115769380D01*
X160899999Y-115769380D02*
X160423809Y-115769380D01*
X159899999Y-115769380D02*
X159899999Y-116007476D01*
X160138094Y-115912238D02*
X159899999Y-116007476D01*
X159899999Y-116007476D02*
X159661904Y-115912238D01*
X160042856Y-116197952D02*
X159899999Y-116007476D01*
X159899999Y-116007476D02*
X159757142Y-116197952D01*
X159138094Y-115769380D02*
X159138094Y-116007476D01*
X159376189Y-115912238D02*
X159138094Y-116007476D01*
X159138094Y-116007476D02*
X158899999Y-115912238D01*
X159280951Y-116197952D02*
X159138094Y-116007476D01*
X159138094Y-116007476D02*
X158995237Y-116197952D01*
X160761904Y-91587380D02*
X160761904Y-92396904D01*
X160761904Y-92396904D02*
X160714285Y-92492142D01*
X160714285Y-92492142D02*
X160666666Y-92539761D01*
X160666666Y-92539761D02*
X160571428Y-92587380D01*
X160571428Y-92587380D02*
X160380952Y-92587380D01*
X160380952Y-92587380D02*
X160285714Y-92539761D01*
X160285714Y-92539761D02*
X160238095Y-92492142D01*
X160238095Y-92492142D02*
X160190476Y-92396904D01*
X160190476Y-92396904D02*
X160190476Y-91587380D01*
X159666666Y-92587380D02*
X159476190Y-92587380D01*
X159476190Y-92587380D02*
X159380952Y-92539761D01*
X159380952Y-92539761D02*
X159333333Y-92492142D01*
X159333333Y-92492142D02*
X159238095Y-92349285D01*
X159238095Y-92349285D02*
X159190476Y-92158809D01*
X159190476Y-92158809D02*
X159190476Y-91777857D01*
X159190476Y-91777857D02*
X159238095Y-91682619D01*
X159238095Y-91682619D02*
X159285714Y-91635000D01*
X159285714Y-91635000D02*
X159380952Y-91587380D01*
X159380952Y-91587380D02*
X159571428Y-91587380D01*
X159571428Y-91587380D02*
X159666666Y-91635000D01*
X159666666Y-91635000D02*
X159714285Y-91682619D01*
X159714285Y-91682619D02*
X159761904Y-91777857D01*
X159761904Y-91777857D02*
X159761904Y-92015952D01*
X159761904Y-92015952D02*
X159714285Y-92111190D01*
X159714285Y-92111190D02*
X159666666Y-92158809D01*
X159666666Y-92158809D02*
X159571428Y-92206428D01*
X159571428Y-92206428D02*
X159380952Y-92206428D01*
X159380952Y-92206428D02*
X159285714Y-92158809D01*
X159285714Y-92158809D02*
X159238095Y-92111190D01*
X159238095Y-92111190D02*
X159190476Y-92015952D01*
X171946666Y-93232142D02*
X171994285Y-93279761D01*
X171994285Y-93279761D02*
X172137142Y-93327380D01*
X172137142Y-93327380D02*
X172232380Y-93327380D01*
X172232380Y-93327380D02*
X172375237Y-93279761D01*
X172375237Y-93279761D02*
X172470475Y-93184523D01*
X172470475Y-93184523D02*
X172518094Y-93089285D01*
X172518094Y-93089285D02*
X172565713Y-92898809D01*
X172565713Y-92898809D02*
X172565713Y-92755952D01*
X172565713Y-92755952D02*
X172518094Y-92565476D01*
X172518094Y-92565476D02*
X172470475Y-92470238D01*
X172470475Y-92470238D02*
X172375237Y-92375000D01*
X172375237Y-92375000D02*
X172232380Y-92327380D01*
X172232380Y-92327380D02*
X172137142Y-92327380D01*
X172137142Y-92327380D02*
X171994285Y-92375000D01*
X171994285Y-92375000D02*
X171946666Y-92422619D01*
X171041904Y-92327380D02*
X171518094Y-92327380D01*
X171518094Y-92327380D02*
X171565713Y-92803571D01*
X171565713Y-92803571D02*
X171518094Y-92755952D01*
X171518094Y-92755952D02*
X171422856Y-92708333D01*
X171422856Y-92708333D02*
X171184761Y-92708333D01*
X171184761Y-92708333D02*
X171089523Y-92755952D01*
X171089523Y-92755952D02*
X171041904Y-92803571D01*
X171041904Y-92803571D02*
X170994285Y-92898809D01*
X170994285Y-92898809D02*
X170994285Y-93136904D01*
X170994285Y-93136904D02*
X171041904Y-93232142D01*
X171041904Y-93232142D02*
X171089523Y-93279761D01*
X171089523Y-93279761D02*
X171184761Y-93327380D01*
X171184761Y-93327380D02*
X171422856Y-93327380D01*
X171422856Y-93327380D02*
X171518094Y-93279761D01*
X171518094Y-93279761D02*
X171565713Y-93232142D01*
X156902857Y-94222142D02*
X156950476Y-94269761D01*
X156950476Y-94269761D02*
X157093333Y-94317380D01*
X157093333Y-94317380D02*
X157188571Y-94317380D01*
X157188571Y-94317380D02*
X157331428Y-94269761D01*
X157331428Y-94269761D02*
X157426666Y-94174523D01*
X157426666Y-94174523D02*
X157474285Y-94079285D01*
X157474285Y-94079285D02*
X157521904Y-93888809D01*
X157521904Y-93888809D02*
X157521904Y-93745952D01*
X157521904Y-93745952D02*
X157474285Y-93555476D01*
X157474285Y-93555476D02*
X157426666Y-93460238D01*
X157426666Y-93460238D02*
X157331428Y-93365000D01*
X157331428Y-93365000D02*
X157188571Y-93317380D01*
X157188571Y-93317380D02*
X157093333Y-93317380D01*
X157093333Y-93317380D02*
X156950476Y-93365000D01*
X156950476Y-93365000D02*
X156902857Y-93412619D01*
X155950476Y-94317380D02*
X156521904Y-94317380D01*
X156236190Y-94317380D02*
X156236190Y-93317380D01*
X156236190Y-93317380D02*
X156331428Y-93460238D01*
X156331428Y-93460238D02*
X156426666Y-93555476D01*
X156426666Y-93555476D02*
X156521904Y-93603095D01*
X155474285Y-94317380D02*
X155283809Y-94317380D01*
X155283809Y-94317380D02*
X155188571Y-94269761D01*
X155188571Y-94269761D02*
X155140952Y-94222142D01*
X155140952Y-94222142D02*
X155045714Y-94079285D01*
X155045714Y-94079285D02*
X154998095Y-93888809D01*
X154998095Y-93888809D02*
X154998095Y-93507857D01*
X154998095Y-93507857D02*
X155045714Y-93412619D01*
X155045714Y-93412619D02*
X155093333Y-93365000D01*
X155093333Y-93365000D02*
X155188571Y-93317380D01*
X155188571Y-93317380D02*
X155379047Y-93317380D01*
X155379047Y-93317380D02*
X155474285Y-93365000D01*
X155474285Y-93365000D02*
X155521904Y-93412619D01*
X155521904Y-93412619D02*
X155569523Y-93507857D01*
X155569523Y-93507857D02*
X155569523Y-93745952D01*
X155569523Y-93745952D02*
X155521904Y-93841190D01*
X155521904Y-93841190D02*
X155474285Y-93888809D01*
X155474285Y-93888809D02*
X155379047Y-93936428D01*
X155379047Y-93936428D02*
X155188571Y-93936428D01*
X155188571Y-93936428D02*
X155093333Y-93888809D01*
X155093333Y-93888809D02*
X155045714Y-93841190D01*
X155045714Y-93841190D02*
X154998095Y-93745952D01*
X170803333Y-84357380D02*
X170803333Y-85071666D01*
X170803333Y-85071666D02*
X170850952Y-85214523D01*
X170850952Y-85214523D02*
X170946190Y-85309761D01*
X170946190Y-85309761D02*
X171089047Y-85357380D01*
X171089047Y-85357380D02*
X171184285Y-85357380D01*
X169850952Y-84357380D02*
X170327142Y-84357380D01*
X170327142Y-84357380D02*
X170374761Y-84833571D01*
X170374761Y-84833571D02*
X170327142Y-84785952D01*
X170327142Y-84785952D02*
X170231904Y-84738333D01*
X170231904Y-84738333D02*
X169993809Y-84738333D01*
X169993809Y-84738333D02*
X169898571Y-84785952D01*
X169898571Y-84785952D02*
X169850952Y-84833571D01*
X169850952Y-84833571D02*
X169803333Y-84928809D01*
X169803333Y-84928809D02*
X169803333Y-85166904D01*
X169803333Y-85166904D02*
X169850952Y-85262142D01*
X169850952Y-85262142D02*
X169898571Y-85309761D01*
X169898571Y-85309761D02*
X169993809Y-85357380D01*
X169993809Y-85357380D02*
X170231904Y-85357380D01*
X170231904Y-85357380D02*
X170327142Y-85309761D01*
X170327142Y-85309761D02*
X170374761Y-85262142D01*
X153152857Y-98507380D02*
X153486190Y-98031190D01*
X153724285Y-98507380D02*
X153724285Y-97507380D01*
X153724285Y-97507380D02*
X153343333Y-97507380D01*
X153343333Y-97507380D02*
X153248095Y-97555000D01*
X153248095Y-97555000D02*
X153200476Y-97602619D01*
X153200476Y-97602619D02*
X153152857Y-97697857D01*
X153152857Y-97697857D02*
X153152857Y-97840714D01*
X153152857Y-97840714D02*
X153200476Y-97935952D01*
X153200476Y-97935952D02*
X153248095Y-97983571D01*
X153248095Y-97983571D02*
X153343333Y-98031190D01*
X153343333Y-98031190D02*
X153724285Y-98031190D01*
X152200476Y-98507380D02*
X152771904Y-98507380D01*
X152486190Y-98507380D02*
X152486190Y-97507380D01*
X152486190Y-97507380D02*
X152581428Y-97650238D01*
X152581428Y-97650238D02*
X152676666Y-97745476D01*
X152676666Y-97745476D02*
X152771904Y-97793095D01*
X151581428Y-97507380D02*
X151486190Y-97507380D01*
X151486190Y-97507380D02*
X151390952Y-97555000D01*
X151390952Y-97555000D02*
X151343333Y-97602619D01*
X151343333Y-97602619D02*
X151295714Y-97697857D01*
X151295714Y-97697857D02*
X151248095Y-97888333D01*
X151248095Y-97888333D02*
X151248095Y-98126428D01*
X151248095Y-98126428D02*
X151295714Y-98316904D01*
X151295714Y-98316904D02*
X151343333Y-98412142D01*
X151343333Y-98412142D02*
X151390952Y-98459761D01*
X151390952Y-98459761D02*
X151486190Y-98507380D01*
X151486190Y-98507380D02*
X151581428Y-98507380D01*
X151581428Y-98507380D02*
X151676666Y-98459761D01*
X151676666Y-98459761D02*
X151724285Y-98412142D01*
X151724285Y-98412142D02*
X151771904Y-98316904D01*
X151771904Y-98316904D02*
X151819523Y-98126428D01*
X151819523Y-98126428D02*
X151819523Y-97888333D01*
X151819523Y-97888333D02*
X151771904Y-97697857D01*
X151771904Y-97697857D02*
X151724285Y-97602619D01*
X151724285Y-97602619D02*
X151676666Y-97555000D01*
X151676666Y-97555000D02*
X151581428Y-97507380D01*
X153146666Y-99797380D02*
X153479999Y-99321190D01*
X153718094Y-99797380D02*
X153718094Y-98797380D01*
X153718094Y-98797380D02*
X153337142Y-98797380D01*
X153337142Y-98797380D02*
X153241904Y-98845000D01*
X153241904Y-98845000D02*
X153194285Y-98892619D01*
X153194285Y-98892619D02*
X153146666Y-98987857D01*
X153146666Y-98987857D02*
X153146666Y-99130714D01*
X153146666Y-99130714D02*
X153194285Y-99225952D01*
X153194285Y-99225952D02*
X153241904Y-99273571D01*
X153241904Y-99273571D02*
X153337142Y-99321190D01*
X153337142Y-99321190D02*
X153718094Y-99321190D01*
X152670475Y-99797380D02*
X152479999Y-99797380D01*
X152479999Y-99797380D02*
X152384761Y-99749761D01*
X152384761Y-99749761D02*
X152337142Y-99702142D01*
X152337142Y-99702142D02*
X152241904Y-99559285D01*
X152241904Y-99559285D02*
X152194285Y-99368809D01*
X152194285Y-99368809D02*
X152194285Y-98987857D01*
X152194285Y-98987857D02*
X152241904Y-98892619D01*
X152241904Y-98892619D02*
X152289523Y-98845000D01*
X152289523Y-98845000D02*
X152384761Y-98797380D01*
X152384761Y-98797380D02*
X152575237Y-98797380D01*
X152575237Y-98797380D02*
X152670475Y-98845000D01*
X152670475Y-98845000D02*
X152718094Y-98892619D01*
X152718094Y-98892619D02*
X152765713Y-98987857D01*
X152765713Y-98987857D02*
X152765713Y-99225952D01*
X152765713Y-99225952D02*
X152718094Y-99321190D01*
X152718094Y-99321190D02*
X152670475Y-99368809D01*
X152670475Y-99368809D02*
X152575237Y-99416428D01*
X152575237Y-99416428D02*
X152384761Y-99416428D01*
X152384761Y-99416428D02*
X152289523Y-99368809D01*
X152289523Y-99368809D02*
X152241904Y-99321190D01*
X152241904Y-99321190D02*
X152194285Y-99225952D01*
X166956666Y-98997380D02*
X167432856Y-98997380D01*
X167432856Y-98997380D02*
X167432856Y-97997380D01*
X166718570Y-97997380D02*
X166099523Y-97997380D01*
X166099523Y-97997380D02*
X166432856Y-98378333D01*
X166432856Y-98378333D02*
X166289999Y-98378333D01*
X166289999Y-98378333D02*
X166194761Y-98425952D01*
X166194761Y-98425952D02*
X166147142Y-98473571D01*
X166147142Y-98473571D02*
X166099523Y-98568809D01*
X166099523Y-98568809D02*
X166099523Y-98806904D01*
X166099523Y-98806904D02*
X166147142Y-98902142D01*
X166147142Y-98902142D02*
X166194761Y-98949761D01*
X166194761Y-98949761D02*
X166289999Y-98997380D01*
X166289999Y-98997380D02*
X166575713Y-98997380D01*
X166575713Y-98997380D02*
X166670951Y-98949761D01*
X166670951Y-98949761D02*
X166718570Y-98902142D01*
X141666666Y-108772142D02*
X141714285Y-108819761D01*
X141714285Y-108819761D02*
X141857142Y-108867380D01*
X141857142Y-108867380D02*
X141952380Y-108867380D01*
X141952380Y-108867380D02*
X142095237Y-108819761D01*
X142095237Y-108819761D02*
X142190475Y-108724523D01*
X142190475Y-108724523D02*
X142238094Y-108629285D01*
X142238094Y-108629285D02*
X142285713Y-108438809D01*
X142285713Y-108438809D02*
X142285713Y-108295952D01*
X142285713Y-108295952D02*
X142238094Y-108105476D01*
X142238094Y-108105476D02*
X142190475Y-108010238D01*
X142190475Y-108010238D02*
X142095237Y-107915000D01*
X142095237Y-107915000D02*
X141952380Y-107867380D01*
X141952380Y-107867380D02*
X141857142Y-107867380D01*
X141857142Y-107867380D02*
X141714285Y-107915000D01*
X141714285Y-107915000D02*
X141666666Y-107962619D01*
X141333332Y-107867380D02*
X140666666Y-107867380D01*
X140666666Y-107867380D02*
X141095237Y-108867380D01*
X158872857Y-110202142D02*
X158920476Y-110249761D01*
X158920476Y-110249761D02*
X159063333Y-110297380D01*
X159063333Y-110297380D02*
X159158571Y-110297380D01*
X159158571Y-110297380D02*
X159301428Y-110249761D01*
X159301428Y-110249761D02*
X159396666Y-110154523D01*
X159396666Y-110154523D02*
X159444285Y-110059285D01*
X159444285Y-110059285D02*
X159491904Y-109868809D01*
X159491904Y-109868809D02*
X159491904Y-109725952D01*
X159491904Y-109725952D02*
X159444285Y-109535476D01*
X159444285Y-109535476D02*
X159396666Y-109440238D01*
X159396666Y-109440238D02*
X159301428Y-109345000D01*
X159301428Y-109345000D02*
X159158571Y-109297380D01*
X159158571Y-109297380D02*
X159063333Y-109297380D01*
X159063333Y-109297380D02*
X158920476Y-109345000D01*
X158920476Y-109345000D02*
X158872857Y-109392619D01*
X157920476Y-110297380D02*
X158491904Y-110297380D01*
X158206190Y-110297380D02*
X158206190Y-109297380D01*
X158206190Y-109297380D02*
X158301428Y-109440238D01*
X158301428Y-109440238D02*
X158396666Y-109535476D01*
X158396666Y-109535476D02*
X158491904Y-109583095D01*
X157063333Y-109630714D02*
X157063333Y-110297380D01*
X157301428Y-109249761D02*
X157539523Y-109964047D01*
X157539523Y-109964047D02*
X156920476Y-109964047D01*
X151801904Y-81767380D02*
X151801904Y-82576904D01*
X151801904Y-82576904D02*
X151754285Y-82672142D01*
X151754285Y-82672142D02*
X151706666Y-82719761D01*
X151706666Y-82719761D02*
X151611428Y-82767380D01*
X151611428Y-82767380D02*
X151420952Y-82767380D01*
X151420952Y-82767380D02*
X151325714Y-82719761D01*
X151325714Y-82719761D02*
X151278095Y-82672142D01*
X151278095Y-82672142D02*
X151230476Y-82576904D01*
X151230476Y-82576904D02*
X151230476Y-81767380D01*
X150278095Y-81767380D02*
X150754285Y-81767380D01*
X150754285Y-81767380D02*
X150801904Y-82243571D01*
X150801904Y-82243571D02*
X150754285Y-82195952D01*
X150754285Y-82195952D02*
X150659047Y-82148333D01*
X150659047Y-82148333D02*
X150420952Y-82148333D01*
X150420952Y-82148333D02*
X150325714Y-82195952D01*
X150325714Y-82195952D02*
X150278095Y-82243571D01*
X150278095Y-82243571D02*
X150230476Y-82338809D01*
X150230476Y-82338809D02*
X150230476Y-82576904D01*
X150230476Y-82576904D02*
X150278095Y-82672142D01*
X150278095Y-82672142D02*
X150325714Y-82719761D01*
X150325714Y-82719761D02*
X150420952Y-82767380D01*
X150420952Y-82767380D02*
X150659047Y-82767380D01*
X150659047Y-82767380D02*
X150754285Y-82719761D01*
X150754285Y-82719761D02*
X150801904Y-82672142D01*
X157566666Y-82667380D02*
X157899999Y-82191190D01*
X158138094Y-82667380D02*
X158138094Y-81667380D01*
X158138094Y-81667380D02*
X157757142Y-81667380D01*
X157757142Y-81667380D02*
X157661904Y-81715000D01*
X157661904Y-81715000D02*
X157614285Y-81762619D01*
X157614285Y-81762619D02*
X157566666Y-81857857D01*
X157566666Y-81857857D02*
X157566666Y-82000714D01*
X157566666Y-82000714D02*
X157614285Y-82095952D01*
X157614285Y-82095952D02*
X157661904Y-82143571D01*
X157661904Y-82143571D02*
X157757142Y-82191190D01*
X157757142Y-82191190D02*
X158138094Y-82191190D01*
X156709523Y-81667380D02*
X156899999Y-81667380D01*
X156899999Y-81667380D02*
X156995237Y-81715000D01*
X156995237Y-81715000D02*
X157042856Y-81762619D01*
X157042856Y-81762619D02*
X157138094Y-81905476D01*
X157138094Y-81905476D02*
X157185713Y-82095952D01*
X157185713Y-82095952D02*
X157185713Y-82476904D01*
X157185713Y-82476904D02*
X157138094Y-82572142D01*
X157138094Y-82572142D02*
X157090475Y-82619761D01*
X157090475Y-82619761D02*
X156995237Y-82667380D01*
X156995237Y-82667380D02*
X156804761Y-82667380D01*
X156804761Y-82667380D02*
X156709523Y-82619761D01*
X156709523Y-82619761D02*
X156661904Y-82572142D01*
X156661904Y-82572142D02*
X156614285Y-82476904D01*
X156614285Y-82476904D02*
X156614285Y-82238809D01*
X156614285Y-82238809D02*
X156661904Y-82143571D01*
X156661904Y-82143571D02*
X156709523Y-82095952D01*
X156709523Y-82095952D02*
X156804761Y-82048333D01*
X156804761Y-82048333D02*
X156995237Y-82048333D01*
X156995237Y-82048333D02*
X157090475Y-82095952D01*
X157090475Y-82095952D02*
X157138094Y-82143571D01*
X157138094Y-82143571D02*
X157185713Y-82238809D01*
X170491904Y-93117380D02*
X170491904Y-93926904D01*
X170491904Y-93926904D02*
X170444285Y-94022142D01*
X170444285Y-94022142D02*
X170396666Y-94069761D01*
X170396666Y-94069761D02*
X170301428Y-94117380D01*
X170301428Y-94117380D02*
X170110952Y-94117380D01*
X170110952Y-94117380D02*
X170015714Y-94069761D01*
X170015714Y-94069761D02*
X169968095Y-94022142D01*
X169968095Y-94022142D02*
X169920476Y-93926904D01*
X169920476Y-93926904D02*
X169920476Y-93117380D01*
X169539523Y-93117380D02*
X168920476Y-93117380D01*
X168920476Y-93117380D02*
X169253809Y-93498333D01*
X169253809Y-93498333D02*
X169110952Y-93498333D01*
X169110952Y-93498333D02*
X169015714Y-93545952D01*
X169015714Y-93545952D02*
X168968095Y-93593571D01*
X168968095Y-93593571D02*
X168920476Y-93688809D01*
X168920476Y-93688809D02*
X168920476Y-93926904D01*
X168920476Y-93926904D02*
X168968095Y-94022142D01*
X168968095Y-94022142D02*
X169015714Y-94069761D01*
X169015714Y-94069761D02*
X169110952Y-94117380D01*
X169110952Y-94117380D02*
X169396666Y-94117380D01*
X169396666Y-94117380D02*
X169491904Y-94069761D01*
X169491904Y-94069761D02*
X169539523Y-94022142D01*
X165617857Y-102772142D02*
X165665476Y-102819761D01*
X165665476Y-102819761D02*
X165808333Y-102867380D01*
X165808333Y-102867380D02*
X165903571Y-102867380D01*
X165903571Y-102867380D02*
X166046428Y-102819761D01*
X166046428Y-102819761D02*
X166141666Y-102724523D01*
X166141666Y-102724523D02*
X166189285Y-102629285D01*
X166189285Y-102629285D02*
X166236904Y-102438809D01*
X166236904Y-102438809D02*
X166236904Y-102295952D01*
X166236904Y-102295952D02*
X166189285Y-102105476D01*
X166189285Y-102105476D02*
X166141666Y-102010238D01*
X166141666Y-102010238D02*
X166046428Y-101915000D01*
X166046428Y-101915000D02*
X165903571Y-101867380D01*
X165903571Y-101867380D02*
X165808333Y-101867380D01*
X165808333Y-101867380D02*
X165665476Y-101915000D01*
X165665476Y-101915000D02*
X165617857Y-101962619D01*
X165236904Y-101962619D02*
X165189285Y-101915000D01*
X165189285Y-101915000D02*
X165094047Y-101867380D01*
X165094047Y-101867380D02*
X164855952Y-101867380D01*
X164855952Y-101867380D02*
X164760714Y-101915000D01*
X164760714Y-101915000D02*
X164713095Y-101962619D01*
X164713095Y-101962619D02*
X164665476Y-102057857D01*
X164665476Y-102057857D02*
X164665476Y-102153095D01*
X164665476Y-102153095D02*
X164713095Y-102295952D01*
X164713095Y-102295952D02*
X165284523Y-102867380D01*
X165284523Y-102867380D02*
X164665476Y-102867380D01*
X163713095Y-102867380D02*
X164284523Y-102867380D01*
X163998809Y-102867380D02*
X163998809Y-101867380D01*
X163998809Y-101867380D02*
X164094047Y-102010238D01*
X164094047Y-102010238D02*
X164189285Y-102105476D01*
X164189285Y-102105476D02*
X164284523Y-102153095D01*
X176382857Y-89372142D02*
X176430476Y-89419761D01*
X176430476Y-89419761D02*
X176573333Y-89467380D01*
X176573333Y-89467380D02*
X176668571Y-89467380D01*
X176668571Y-89467380D02*
X176811428Y-89419761D01*
X176811428Y-89419761D02*
X176906666Y-89324523D01*
X176906666Y-89324523D02*
X176954285Y-89229285D01*
X176954285Y-89229285D02*
X177001904Y-89038809D01*
X177001904Y-89038809D02*
X177001904Y-88895952D01*
X177001904Y-88895952D02*
X176954285Y-88705476D01*
X176954285Y-88705476D02*
X176906666Y-88610238D01*
X176906666Y-88610238D02*
X176811428Y-88515000D01*
X176811428Y-88515000D02*
X176668571Y-88467380D01*
X176668571Y-88467380D02*
X176573333Y-88467380D01*
X176573333Y-88467380D02*
X176430476Y-88515000D01*
X176430476Y-88515000D02*
X176382857Y-88562619D01*
X175430476Y-89467380D02*
X176001904Y-89467380D01*
X175716190Y-89467380D02*
X175716190Y-88467380D01*
X175716190Y-88467380D02*
X175811428Y-88610238D01*
X175811428Y-88610238D02*
X175906666Y-88705476D01*
X175906666Y-88705476D02*
X176001904Y-88753095D01*
X174525714Y-88467380D02*
X175001904Y-88467380D01*
X175001904Y-88467380D02*
X175049523Y-88943571D01*
X175049523Y-88943571D02*
X175001904Y-88895952D01*
X175001904Y-88895952D02*
X174906666Y-88848333D01*
X174906666Y-88848333D02*
X174668571Y-88848333D01*
X174668571Y-88848333D02*
X174573333Y-88895952D01*
X174573333Y-88895952D02*
X174525714Y-88943571D01*
X174525714Y-88943571D02*
X174478095Y-89038809D01*
X174478095Y-89038809D02*
X174478095Y-89276904D01*
X174478095Y-89276904D02*
X174525714Y-89372142D01*
X174525714Y-89372142D02*
X174573333Y-89419761D01*
X174573333Y-89419761D02*
X174668571Y-89467380D01*
X174668571Y-89467380D02*
X174906666Y-89467380D01*
X174906666Y-89467380D02*
X175001904Y-89419761D01*
X175001904Y-89419761D02*
X175049523Y-89372142D01*
X177861904Y-94567380D02*
X177290476Y-94567380D01*
X177576190Y-95567380D02*
X177576190Y-94567380D01*
X176957142Y-95567380D02*
X176957142Y-94567380D01*
X176957142Y-94567380D02*
X176576190Y-94567380D01*
X176576190Y-94567380D02*
X176480952Y-94615000D01*
X176480952Y-94615000D02*
X176433333Y-94662619D01*
X176433333Y-94662619D02*
X176385714Y-94757857D01*
X176385714Y-94757857D02*
X176385714Y-94900714D01*
X176385714Y-94900714D02*
X176433333Y-94995952D01*
X176433333Y-94995952D02*
X176480952Y-95043571D01*
X176480952Y-95043571D02*
X176576190Y-95091190D01*
X176576190Y-95091190D02*
X176957142Y-95091190D01*
X175528571Y-94900714D02*
X175528571Y-95567380D01*
X175766666Y-94519761D02*
X176004761Y-95234047D01*
X176004761Y-95234047D02*
X175385714Y-95234047D01*
X162742857Y-107902142D02*
X162790476Y-107949761D01*
X162790476Y-107949761D02*
X162933333Y-107997380D01*
X162933333Y-107997380D02*
X163028571Y-107997380D01*
X163028571Y-107997380D02*
X163171428Y-107949761D01*
X163171428Y-107949761D02*
X163266666Y-107854523D01*
X163266666Y-107854523D02*
X163314285Y-107759285D01*
X163314285Y-107759285D02*
X163361904Y-107568809D01*
X163361904Y-107568809D02*
X163361904Y-107425952D01*
X163361904Y-107425952D02*
X163314285Y-107235476D01*
X163314285Y-107235476D02*
X163266666Y-107140238D01*
X163266666Y-107140238D02*
X163171428Y-107045000D01*
X163171428Y-107045000D02*
X163028571Y-106997380D01*
X163028571Y-106997380D02*
X162933333Y-106997380D01*
X162933333Y-106997380D02*
X162790476Y-107045000D01*
X162790476Y-107045000D02*
X162742857Y-107092619D01*
X161790476Y-107997380D02*
X162361904Y-107997380D01*
X162076190Y-107997380D02*
X162076190Y-106997380D01*
X162076190Y-106997380D02*
X162171428Y-107140238D01*
X162171428Y-107140238D02*
X162266666Y-107235476D01*
X162266666Y-107235476D02*
X162361904Y-107283095D01*
X161457142Y-106997380D02*
X160790476Y-106997380D01*
X160790476Y-106997380D02*
X161219047Y-107997380D01*
X159753333Y-84377380D02*
X159753333Y-85091666D01*
X159753333Y-85091666D02*
X159800952Y-85234523D01*
X159800952Y-85234523D02*
X159896190Y-85329761D01*
X159896190Y-85329761D02*
X160039047Y-85377380D01*
X160039047Y-85377380D02*
X160134285Y-85377380D01*
X159372380Y-84377380D02*
X158753333Y-84377380D01*
X158753333Y-84377380D02*
X159086666Y-84758333D01*
X159086666Y-84758333D02*
X158943809Y-84758333D01*
X158943809Y-84758333D02*
X158848571Y-84805952D01*
X158848571Y-84805952D02*
X158800952Y-84853571D01*
X158800952Y-84853571D02*
X158753333Y-84948809D01*
X158753333Y-84948809D02*
X158753333Y-85186904D01*
X158753333Y-85186904D02*
X158800952Y-85282142D01*
X158800952Y-85282142D02*
X158848571Y-85329761D01*
X158848571Y-85329761D02*
X158943809Y-85377380D01*
X158943809Y-85377380D02*
X159229523Y-85377380D01*
X159229523Y-85377380D02*
X159324761Y-85329761D01*
X159324761Y-85329761D02*
X159372380Y-85282142D01*
X146031904Y-110727380D02*
X146031904Y-111536904D01*
X146031904Y-111536904D02*
X145984285Y-111632142D01*
X145984285Y-111632142D02*
X145936666Y-111679761D01*
X145936666Y-111679761D02*
X145841428Y-111727380D01*
X145841428Y-111727380D02*
X145650952Y-111727380D01*
X145650952Y-111727380D02*
X145555714Y-111679761D01*
X145555714Y-111679761D02*
X145508095Y-111632142D01*
X145508095Y-111632142D02*
X145460476Y-111536904D01*
X145460476Y-111536904D02*
X145460476Y-110727380D01*
X145031904Y-110822619D02*
X144984285Y-110775000D01*
X144984285Y-110775000D02*
X144889047Y-110727380D01*
X144889047Y-110727380D02*
X144650952Y-110727380D01*
X144650952Y-110727380D02*
X144555714Y-110775000D01*
X144555714Y-110775000D02*
X144508095Y-110822619D01*
X144508095Y-110822619D02*
X144460476Y-110917857D01*
X144460476Y-110917857D02*
X144460476Y-111013095D01*
X144460476Y-111013095D02*
X144508095Y-111155952D01*
X144508095Y-111155952D02*
X145079523Y-111727380D01*
X145079523Y-111727380D02*
X144460476Y-111727380D01*
X164076666Y-97892142D02*
X164124285Y-97939761D01*
X164124285Y-97939761D02*
X164267142Y-97987380D01*
X164267142Y-97987380D02*
X164362380Y-97987380D01*
X164362380Y-97987380D02*
X164505237Y-97939761D01*
X164505237Y-97939761D02*
X164600475Y-97844523D01*
X164600475Y-97844523D02*
X164648094Y-97749285D01*
X164648094Y-97749285D02*
X164695713Y-97558809D01*
X164695713Y-97558809D02*
X164695713Y-97415952D01*
X164695713Y-97415952D02*
X164648094Y-97225476D01*
X164648094Y-97225476D02*
X164600475Y-97130238D01*
X164600475Y-97130238D02*
X164505237Y-97035000D01*
X164505237Y-97035000D02*
X164362380Y-96987380D01*
X164362380Y-96987380D02*
X164267142Y-96987380D01*
X164267142Y-96987380D02*
X164124285Y-97035000D01*
X164124285Y-97035000D02*
X164076666Y-97082619D01*
X163219523Y-96987380D02*
X163409999Y-96987380D01*
X163409999Y-96987380D02*
X163505237Y-97035000D01*
X163505237Y-97035000D02*
X163552856Y-97082619D01*
X163552856Y-97082619D02*
X163648094Y-97225476D01*
X163648094Y-97225476D02*
X163695713Y-97415952D01*
X163695713Y-97415952D02*
X163695713Y-97796904D01*
X163695713Y-97796904D02*
X163648094Y-97892142D01*
X163648094Y-97892142D02*
X163600475Y-97939761D01*
X163600475Y-97939761D02*
X163505237Y-97987380D01*
X163505237Y-97987380D02*
X163314761Y-97987380D01*
X163314761Y-97987380D02*
X163219523Y-97939761D01*
X163219523Y-97939761D02*
X163171904Y-97892142D01*
X163171904Y-97892142D02*
X163124285Y-97796904D01*
X163124285Y-97796904D02*
X163124285Y-97558809D01*
X163124285Y-97558809D02*
X163171904Y-97463571D01*
X163171904Y-97463571D02*
X163219523Y-97415952D01*
X163219523Y-97415952D02*
X163314761Y-97368333D01*
X163314761Y-97368333D02*
X163505237Y-97368333D01*
X163505237Y-97368333D02*
X163600475Y-97415952D01*
X163600475Y-97415952D02*
X163648094Y-97463571D01*
X163648094Y-97463571D02*
X163695713Y-97558809D01*
X154602857Y-110852142D02*
X154650476Y-110899761D01*
X154650476Y-110899761D02*
X154793333Y-110947380D01*
X154793333Y-110947380D02*
X154888571Y-110947380D01*
X154888571Y-110947380D02*
X155031428Y-110899761D01*
X155031428Y-110899761D02*
X155126666Y-110804523D01*
X155126666Y-110804523D02*
X155174285Y-110709285D01*
X155174285Y-110709285D02*
X155221904Y-110518809D01*
X155221904Y-110518809D02*
X155221904Y-110375952D01*
X155221904Y-110375952D02*
X155174285Y-110185476D01*
X155174285Y-110185476D02*
X155126666Y-110090238D01*
X155126666Y-110090238D02*
X155031428Y-109995000D01*
X155031428Y-109995000D02*
X154888571Y-109947380D01*
X154888571Y-109947380D02*
X154793333Y-109947380D01*
X154793333Y-109947380D02*
X154650476Y-109995000D01*
X154650476Y-109995000D02*
X154602857Y-110042619D01*
X153650476Y-110947380D02*
X154221904Y-110947380D01*
X153936190Y-110947380D02*
X153936190Y-109947380D01*
X153936190Y-109947380D02*
X154031428Y-110090238D01*
X154031428Y-110090238D02*
X154126666Y-110185476D01*
X154126666Y-110185476D02*
X154221904Y-110233095D01*
X153079047Y-110375952D02*
X153174285Y-110328333D01*
X153174285Y-110328333D02*
X153221904Y-110280714D01*
X153221904Y-110280714D02*
X153269523Y-110185476D01*
X153269523Y-110185476D02*
X153269523Y-110137857D01*
X153269523Y-110137857D02*
X153221904Y-110042619D01*
X153221904Y-110042619D02*
X153174285Y-109995000D01*
X153174285Y-109995000D02*
X153079047Y-109947380D01*
X153079047Y-109947380D02*
X152888571Y-109947380D01*
X152888571Y-109947380D02*
X152793333Y-109995000D01*
X152793333Y-109995000D02*
X152745714Y-110042619D01*
X152745714Y-110042619D02*
X152698095Y-110137857D01*
X152698095Y-110137857D02*
X152698095Y-110185476D01*
X152698095Y-110185476D02*
X152745714Y-110280714D01*
X152745714Y-110280714D02*
X152793333Y-110328333D01*
X152793333Y-110328333D02*
X152888571Y-110375952D01*
X152888571Y-110375952D02*
X153079047Y-110375952D01*
X153079047Y-110375952D02*
X153174285Y-110423571D01*
X153174285Y-110423571D02*
X153221904Y-110471190D01*
X153221904Y-110471190D02*
X153269523Y-110566428D01*
X153269523Y-110566428D02*
X153269523Y-110756904D01*
X153269523Y-110756904D02*
X153221904Y-110852142D01*
X153221904Y-110852142D02*
X153174285Y-110899761D01*
X153174285Y-110899761D02*
X153079047Y-110947380D01*
X153079047Y-110947380D02*
X152888571Y-110947380D01*
X152888571Y-110947380D02*
X152793333Y-110899761D01*
X152793333Y-110899761D02*
X152745714Y-110852142D01*
X152745714Y-110852142D02*
X152698095Y-110756904D01*
X152698095Y-110756904D02*
X152698095Y-110566428D01*
X152698095Y-110566428D02*
X152745714Y-110471190D01*
X152745714Y-110471190D02*
X152793333Y-110423571D01*
X152793333Y-110423571D02*
X152888571Y-110375952D01*
X165632857Y-105242142D02*
X165680476Y-105289761D01*
X165680476Y-105289761D02*
X165823333Y-105337380D01*
X165823333Y-105337380D02*
X165918571Y-105337380D01*
X165918571Y-105337380D02*
X166061428Y-105289761D01*
X166061428Y-105289761D02*
X166156666Y-105194523D01*
X166156666Y-105194523D02*
X166204285Y-105099285D01*
X166204285Y-105099285D02*
X166251904Y-104908809D01*
X166251904Y-104908809D02*
X166251904Y-104765952D01*
X166251904Y-104765952D02*
X166204285Y-104575476D01*
X166204285Y-104575476D02*
X166156666Y-104480238D01*
X166156666Y-104480238D02*
X166061428Y-104385000D01*
X166061428Y-104385000D02*
X165918571Y-104337380D01*
X165918571Y-104337380D02*
X165823333Y-104337380D01*
X165823333Y-104337380D02*
X165680476Y-104385000D01*
X165680476Y-104385000D02*
X165632857Y-104432619D01*
X165251904Y-104432619D02*
X165204285Y-104385000D01*
X165204285Y-104385000D02*
X165109047Y-104337380D01*
X165109047Y-104337380D02*
X164870952Y-104337380D01*
X164870952Y-104337380D02*
X164775714Y-104385000D01*
X164775714Y-104385000D02*
X164728095Y-104432619D01*
X164728095Y-104432619D02*
X164680476Y-104527857D01*
X164680476Y-104527857D02*
X164680476Y-104623095D01*
X164680476Y-104623095D02*
X164728095Y-104765952D01*
X164728095Y-104765952D02*
X165299523Y-105337380D01*
X165299523Y-105337380D02*
X164680476Y-105337380D01*
X164299523Y-104432619D02*
X164251904Y-104385000D01*
X164251904Y-104385000D02*
X164156666Y-104337380D01*
X164156666Y-104337380D02*
X163918571Y-104337380D01*
X163918571Y-104337380D02*
X163823333Y-104385000D01*
X163823333Y-104385000D02*
X163775714Y-104432619D01*
X163775714Y-104432619D02*
X163728095Y-104527857D01*
X163728095Y-104527857D02*
X163728095Y-104623095D01*
X163728095Y-104623095D02*
X163775714Y-104765952D01*
X163775714Y-104765952D02*
X164347142Y-105337380D01*
X164347142Y-105337380D02*
X163728095Y-105337380D01*
X138261904Y-86867380D02*
X137690476Y-86867380D01*
X137976190Y-87867380D02*
X137976190Y-86867380D01*
X137357142Y-87867380D02*
X137357142Y-86867380D01*
X137357142Y-86867380D02*
X136976190Y-86867380D01*
X136976190Y-86867380D02*
X136880952Y-86915000D01*
X136880952Y-86915000D02*
X136833333Y-86962619D01*
X136833333Y-86962619D02*
X136785714Y-87057857D01*
X136785714Y-87057857D02*
X136785714Y-87200714D01*
X136785714Y-87200714D02*
X136833333Y-87295952D01*
X136833333Y-87295952D02*
X136880952Y-87343571D01*
X136880952Y-87343571D02*
X136976190Y-87391190D01*
X136976190Y-87391190D02*
X137357142Y-87391190D01*
X136309523Y-87867380D02*
X136119047Y-87867380D01*
X136119047Y-87867380D02*
X136023809Y-87819761D01*
X136023809Y-87819761D02*
X135976190Y-87772142D01*
X135976190Y-87772142D02*
X135880952Y-87629285D01*
X135880952Y-87629285D02*
X135833333Y-87438809D01*
X135833333Y-87438809D02*
X135833333Y-87057857D01*
X135833333Y-87057857D02*
X135880952Y-86962619D01*
X135880952Y-86962619D02*
X135928571Y-86915000D01*
X135928571Y-86915000D02*
X136023809Y-86867380D01*
X136023809Y-86867380D02*
X136214285Y-86867380D01*
X136214285Y-86867380D02*
X136309523Y-86915000D01*
X136309523Y-86915000D02*
X136357142Y-86962619D01*
X136357142Y-86962619D02*
X136404761Y-87057857D01*
X136404761Y-87057857D02*
X136404761Y-87295952D01*
X136404761Y-87295952D02*
X136357142Y-87391190D01*
X136357142Y-87391190D02*
X136309523Y-87438809D01*
X136309523Y-87438809D02*
X136214285Y-87486428D01*
X136214285Y-87486428D02*
X136023809Y-87486428D01*
X136023809Y-87486428D02*
X135928571Y-87438809D01*
X135928571Y-87438809D02*
X135880952Y-87391190D01*
X135880952Y-87391190D02*
X135833333Y-87295952D01*
X161286904Y-110017380D02*
X161286904Y-110826904D01*
X161286904Y-110826904D02*
X161239285Y-110922142D01*
X161239285Y-110922142D02*
X161191666Y-110969761D01*
X161191666Y-110969761D02*
X161096428Y-111017380D01*
X161096428Y-111017380D02*
X160905952Y-111017380D01*
X160905952Y-111017380D02*
X160810714Y-110969761D01*
X160810714Y-110969761D02*
X160763095Y-110922142D01*
X160763095Y-110922142D02*
X160715476Y-110826904D01*
X160715476Y-110826904D02*
X160715476Y-110017380D01*
X160096428Y-110445952D02*
X160191666Y-110398333D01*
X160191666Y-110398333D02*
X160239285Y-110350714D01*
X160239285Y-110350714D02*
X160286904Y-110255476D01*
X160286904Y-110255476D02*
X160286904Y-110207857D01*
X160286904Y-110207857D02*
X160239285Y-110112619D01*
X160239285Y-110112619D02*
X160191666Y-110065000D01*
X160191666Y-110065000D02*
X160096428Y-110017380D01*
X160096428Y-110017380D02*
X159905952Y-110017380D01*
X159905952Y-110017380D02*
X159810714Y-110065000D01*
X159810714Y-110065000D02*
X159763095Y-110112619D01*
X159763095Y-110112619D02*
X159715476Y-110207857D01*
X159715476Y-110207857D02*
X159715476Y-110255476D01*
X159715476Y-110255476D02*
X159763095Y-110350714D01*
X159763095Y-110350714D02*
X159810714Y-110398333D01*
X159810714Y-110398333D02*
X159905952Y-110445952D01*
X159905952Y-110445952D02*
X160096428Y-110445952D01*
X160096428Y-110445952D02*
X160191666Y-110493571D01*
X160191666Y-110493571D02*
X160239285Y-110541190D01*
X160239285Y-110541190D02*
X160286904Y-110636428D01*
X160286904Y-110636428D02*
X160286904Y-110826904D01*
X160286904Y-110826904D02*
X160239285Y-110922142D01*
X160239285Y-110922142D02*
X160191666Y-110969761D01*
X160191666Y-110969761D02*
X160096428Y-111017380D01*
X160096428Y-111017380D02*
X159905952Y-111017380D01*
X159905952Y-111017380D02*
X159810714Y-110969761D01*
X159810714Y-110969761D02*
X159763095Y-110922142D01*
X159763095Y-110922142D02*
X159715476Y-110826904D01*
X159715476Y-110826904D02*
X159715476Y-110636428D01*
X159715476Y-110636428D02*
X159763095Y-110541190D01*
X159763095Y-110541190D02*
X159810714Y-110493571D01*
X159810714Y-110493571D02*
X159905952Y-110445952D01*
X139172142Y-103633333D02*
X139219761Y-103585714D01*
X139219761Y-103585714D02*
X139267380Y-103442857D01*
X139267380Y-103442857D02*
X139267380Y-103347619D01*
X139267380Y-103347619D02*
X139219761Y-103204762D01*
X139219761Y-103204762D02*
X139124523Y-103109524D01*
X139124523Y-103109524D02*
X139029285Y-103061905D01*
X139029285Y-103061905D02*
X138838809Y-103014286D01*
X138838809Y-103014286D02*
X138695952Y-103014286D01*
X138695952Y-103014286D02*
X138505476Y-103061905D01*
X138505476Y-103061905D02*
X138410238Y-103109524D01*
X138410238Y-103109524D02*
X138315000Y-103204762D01*
X138315000Y-103204762D02*
X138267380Y-103347619D01*
X138267380Y-103347619D02*
X138267380Y-103442857D01*
X138267380Y-103442857D02*
X138315000Y-103585714D01*
X138315000Y-103585714D02*
X138362619Y-103633333D01*
X139267380Y-104109524D02*
X139267380Y-104300000D01*
X139267380Y-104300000D02*
X139219761Y-104395238D01*
X139219761Y-104395238D02*
X139172142Y-104442857D01*
X139172142Y-104442857D02*
X139029285Y-104538095D01*
X139029285Y-104538095D02*
X138838809Y-104585714D01*
X138838809Y-104585714D02*
X138457857Y-104585714D01*
X138457857Y-104585714D02*
X138362619Y-104538095D01*
X138362619Y-104538095D02*
X138315000Y-104490476D01*
X138315000Y-104490476D02*
X138267380Y-104395238D01*
X138267380Y-104395238D02*
X138267380Y-104204762D01*
X138267380Y-104204762D02*
X138315000Y-104109524D01*
X138315000Y-104109524D02*
X138362619Y-104061905D01*
X138362619Y-104061905D02*
X138457857Y-104014286D01*
X138457857Y-104014286D02*
X138695952Y-104014286D01*
X138695952Y-104014286D02*
X138791190Y-104061905D01*
X138791190Y-104061905D02*
X138838809Y-104109524D01*
X138838809Y-104109524D02*
X138886428Y-104204762D01*
X138886428Y-104204762D02*
X138886428Y-104395238D01*
X138886428Y-104395238D02*
X138838809Y-104490476D01*
X138838809Y-104490476D02*
X138791190Y-104538095D01*
X138791190Y-104538095D02*
X138695952Y-104585714D01*
X154761904Y-100247380D02*
X154761904Y-101056904D01*
X154761904Y-101056904D02*
X154714285Y-101152142D01*
X154714285Y-101152142D02*
X154666666Y-101199761D01*
X154666666Y-101199761D02*
X154571428Y-101247380D01*
X154571428Y-101247380D02*
X154380952Y-101247380D01*
X154380952Y-101247380D02*
X154285714Y-101199761D01*
X154285714Y-101199761D02*
X154238095Y-101152142D01*
X154238095Y-101152142D02*
X154190476Y-101056904D01*
X154190476Y-101056904D02*
X154190476Y-100247380D01*
X153285714Y-100247380D02*
X153476190Y-100247380D01*
X153476190Y-100247380D02*
X153571428Y-100295000D01*
X153571428Y-100295000D02*
X153619047Y-100342619D01*
X153619047Y-100342619D02*
X153714285Y-100485476D01*
X153714285Y-100485476D02*
X153761904Y-100675952D01*
X153761904Y-100675952D02*
X153761904Y-101056904D01*
X153761904Y-101056904D02*
X153714285Y-101152142D01*
X153714285Y-101152142D02*
X153666666Y-101199761D01*
X153666666Y-101199761D02*
X153571428Y-101247380D01*
X153571428Y-101247380D02*
X153380952Y-101247380D01*
X153380952Y-101247380D02*
X153285714Y-101199761D01*
X153285714Y-101199761D02*
X153238095Y-101152142D01*
X153238095Y-101152142D02*
X153190476Y-101056904D01*
X153190476Y-101056904D02*
X153190476Y-100818809D01*
X153190476Y-100818809D02*
X153238095Y-100723571D01*
X153238095Y-100723571D02*
X153285714Y-100675952D01*
X153285714Y-100675952D02*
X153380952Y-100628333D01*
X153380952Y-100628333D02*
X153571428Y-100628333D01*
X153571428Y-100628333D02*
X153666666Y-100675952D01*
X153666666Y-100675952D02*
X153714285Y-100723571D01*
X153714285Y-100723571D02*
X153761904Y-100818809D01*
X160967857Y-115117380D02*
X161301190Y-114641190D01*
X161539285Y-115117380D02*
X161539285Y-114117380D01*
X161539285Y-114117380D02*
X161158333Y-114117380D01*
X161158333Y-114117380D02*
X161063095Y-114165000D01*
X161063095Y-114165000D02*
X161015476Y-114212619D01*
X161015476Y-114212619D02*
X160967857Y-114307857D01*
X160967857Y-114307857D02*
X160967857Y-114450714D01*
X160967857Y-114450714D02*
X161015476Y-114545952D01*
X161015476Y-114545952D02*
X161063095Y-114593571D01*
X161063095Y-114593571D02*
X161158333Y-114641190D01*
X161158333Y-114641190D02*
X161539285Y-114641190D01*
X160015476Y-115117380D02*
X160586904Y-115117380D01*
X160301190Y-115117380D02*
X160301190Y-114117380D01*
X160301190Y-114117380D02*
X160396428Y-114260238D01*
X160396428Y-114260238D02*
X160491666Y-114355476D01*
X160491666Y-114355476D02*
X160586904Y-114403095D01*
X159682142Y-114117380D02*
X159063095Y-114117380D01*
X159063095Y-114117380D02*
X159396428Y-114498333D01*
X159396428Y-114498333D02*
X159253571Y-114498333D01*
X159253571Y-114498333D02*
X159158333Y-114545952D01*
X159158333Y-114545952D02*
X159110714Y-114593571D01*
X159110714Y-114593571D02*
X159063095Y-114688809D01*
X159063095Y-114688809D02*
X159063095Y-114926904D01*
X159063095Y-114926904D02*
X159110714Y-115022142D01*
X159110714Y-115022142D02*
X159158333Y-115069761D01*
X159158333Y-115069761D02*
X159253571Y-115117380D01*
X159253571Y-115117380D02*
X159539285Y-115117380D01*
X159539285Y-115117380D02*
X159634523Y-115069761D01*
X159634523Y-115069761D02*
X159682142Y-115022142D01*
X158766190Y-103591190D02*
X158766190Y-104067380D01*
X159099523Y-103067380D02*
X158766190Y-103591190D01*
X158766190Y-103591190D02*
X158432857Y-103067380D01*
X157575714Y-104067380D02*
X158147142Y-104067380D01*
X157861428Y-104067380D02*
X157861428Y-103067380D01*
X157861428Y-103067380D02*
X157956666Y-103210238D01*
X157956666Y-103210238D02*
X158051904Y-103305476D01*
X158051904Y-103305476D02*
X158147142Y-103353095D01*
X168267857Y-110472142D02*
X168315476Y-110519761D01*
X168315476Y-110519761D02*
X168458333Y-110567380D01*
X168458333Y-110567380D02*
X168553571Y-110567380D01*
X168553571Y-110567380D02*
X168696428Y-110519761D01*
X168696428Y-110519761D02*
X168791666Y-110424523D01*
X168791666Y-110424523D02*
X168839285Y-110329285D01*
X168839285Y-110329285D02*
X168886904Y-110138809D01*
X168886904Y-110138809D02*
X168886904Y-109995952D01*
X168886904Y-109995952D02*
X168839285Y-109805476D01*
X168839285Y-109805476D02*
X168791666Y-109710238D01*
X168791666Y-109710238D02*
X168696428Y-109615000D01*
X168696428Y-109615000D02*
X168553571Y-109567380D01*
X168553571Y-109567380D02*
X168458333Y-109567380D01*
X168458333Y-109567380D02*
X168315476Y-109615000D01*
X168315476Y-109615000D02*
X168267857Y-109662619D01*
X167886904Y-109662619D02*
X167839285Y-109615000D01*
X167839285Y-109615000D02*
X167744047Y-109567380D01*
X167744047Y-109567380D02*
X167505952Y-109567380D01*
X167505952Y-109567380D02*
X167410714Y-109615000D01*
X167410714Y-109615000D02*
X167363095Y-109662619D01*
X167363095Y-109662619D02*
X167315476Y-109757857D01*
X167315476Y-109757857D02*
X167315476Y-109853095D01*
X167315476Y-109853095D02*
X167363095Y-109995952D01*
X167363095Y-109995952D02*
X167934523Y-110567380D01*
X167934523Y-110567380D02*
X167315476Y-110567380D01*
X166982142Y-109567380D02*
X166363095Y-109567380D01*
X166363095Y-109567380D02*
X166696428Y-109948333D01*
X166696428Y-109948333D02*
X166553571Y-109948333D01*
X166553571Y-109948333D02*
X166458333Y-109995952D01*
X166458333Y-109995952D02*
X166410714Y-110043571D01*
X166410714Y-110043571D02*
X166363095Y-110138809D01*
X166363095Y-110138809D02*
X166363095Y-110376904D01*
X166363095Y-110376904D02*
X166410714Y-110472142D01*
X166410714Y-110472142D02*
X166458333Y-110519761D01*
X166458333Y-110519761D02*
X166553571Y-110567380D01*
X166553571Y-110567380D02*
X166839285Y-110567380D01*
X166839285Y-110567380D02*
X166934523Y-110519761D01*
X166934523Y-110519761D02*
X166982142Y-110472142D01*
X144821904Y-83117380D02*
X144821904Y-83926904D01*
X144821904Y-83926904D02*
X144774285Y-84022142D01*
X144774285Y-84022142D02*
X144726666Y-84069761D01*
X144726666Y-84069761D02*
X144631428Y-84117380D01*
X144631428Y-84117380D02*
X144440952Y-84117380D01*
X144440952Y-84117380D02*
X144345714Y-84069761D01*
X144345714Y-84069761D02*
X144298095Y-84022142D01*
X144298095Y-84022142D02*
X144250476Y-83926904D01*
X144250476Y-83926904D02*
X144250476Y-83117380D01*
X143345714Y-83450714D02*
X143345714Y-84117380D01*
X143583809Y-83069761D02*
X143821904Y-83784047D01*
X143821904Y-83784047D02*
X143202857Y-83784047D01*
X154161904Y-113167380D02*
X154161904Y-113976904D01*
X154161904Y-113976904D02*
X154114285Y-114072142D01*
X154114285Y-114072142D02*
X154066666Y-114119761D01*
X154066666Y-114119761D02*
X153971428Y-114167380D01*
X153971428Y-114167380D02*
X153780952Y-114167380D01*
X153780952Y-114167380D02*
X153685714Y-114119761D01*
X153685714Y-114119761D02*
X153638095Y-114072142D01*
X153638095Y-114072142D02*
X153590476Y-113976904D01*
X153590476Y-113976904D02*
X153590476Y-113167380D01*
X153209523Y-113167380D02*
X152542857Y-113167380D01*
X152542857Y-113167380D02*
X152971428Y-114167380D01*
X167267857Y-115117380D02*
X167601190Y-114641190D01*
X167839285Y-115117380D02*
X167839285Y-114117380D01*
X167839285Y-114117380D02*
X167458333Y-114117380D01*
X167458333Y-114117380D02*
X167363095Y-114165000D01*
X167363095Y-114165000D02*
X167315476Y-114212619D01*
X167315476Y-114212619D02*
X167267857Y-114307857D01*
X167267857Y-114307857D02*
X167267857Y-114450714D01*
X167267857Y-114450714D02*
X167315476Y-114545952D01*
X167315476Y-114545952D02*
X167363095Y-114593571D01*
X167363095Y-114593571D02*
X167458333Y-114641190D01*
X167458333Y-114641190D02*
X167839285Y-114641190D01*
X166315476Y-115117380D02*
X166886904Y-115117380D01*
X166601190Y-115117380D02*
X166601190Y-114117380D01*
X166601190Y-114117380D02*
X166696428Y-114260238D01*
X166696428Y-114260238D02*
X166791666Y-114355476D01*
X166791666Y-114355476D02*
X166886904Y-114403095D01*
X165934523Y-114212619D02*
X165886904Y-114165000D01*
X165886904Y-114165000D02*
X165791666Y-114117380D01*
X165791666Y-114117380D02*
X165553571Y-114117380D01*
X165553571Y-114117380D02*
X165458333Y-114165000D01*
X165458333Y-114165000D02*
X165410714Y-114212619D01*
X165410714Y-114212619D02*
X165363095Y-114307857D01*
X165363095Y-114307857D02*
X165363095Y-114403095D01*
X165363095Y-114403095D02*
X165410714Y-114545952D01*
X165410714Y-114545952D02*
X165982142Y-115117380D01*
X165982142Y-115117380D02*
X165363095Y-115117380D01*
X164086666Y-95782142D02*
X164134285Y-95829761D01*
X164134285Y-95829761D02*
X164277142Y-95877380D01*
X164277142Y-95877380D02*
X164372380Y-95877380D01*
X164372380Y-95877380D02*
X164515237Y-95829761D01*
X164515237Y-95829761D02*
X164610475Y-95734523D01*
X164610475Y-95734523D02*
X164658094Y-95639285D01*
X164658094Y-95639285D02*
X164705713Y-95448809D01*
X164705713Y-95448809D02*
X164705713Y-95305952D01*
X164705713Y-95305952D02*
X164658094Y-95115476D01*
X164658094Y-95115476D02*
X164610475Y-95020238D01*
X164610475Y-95020238D02*
X164515237Y-94925000D01*
X164515237Y-94925000D02*
X164372380Y-94877380D01*
X164372380Y-94877380D02*
X164277142Y-94877380D01*
X164277142Y-94877380D02*
X164134285Y-94925000D01*
X164134285Y-94925000D02*
X164086666Y-94972619D01*
X163229523Y-95210714D02*
X163229523Y-95877380D01*
X163467618Y-94829761D02*
X163705713Y-95544047D01*
X163705713Y-95544047D02*
X163086666Y-95544047D01*
X154566666Y-82667380D02*
X154899999Y-82191190D01*
X155138094Y-82667380D02*
X155138094Y-81667380D01*
X155138094Y-81667380D02*
X154757142Y-81667380D01*
X154757142Y-81667380D02*
X154661904Y-81715000D01*
X154661904Y-81715000D02*
X154614285Y-81762619D01*
X154614285Y-81762619D02*
X154566666Y-81857857D01*
X154566666Y-81857857D02*
X154566666Y-82000714D01*
X154566666Y-82000714D02*
X154614285Y-82095952D01*
X154614285Y-82095952D02*
X154661904Y-82143571D01*
X154661904Y-82143571D02*
X154757142Y-82191190D01*
X154757142Y-82191190D02*
X155138094Y-82191190D01*
X154233332Y-81667380D02*
X153566666Y-81667380D01*
X153566666Y-81667380D02*
X153995237Y-82667380D01*
X137532142Y-103667142D02*
X137579761Y-103619523D01*
X137579761Y-103619523D02*
X137627380Y-103476666D01*
X137627380Y-103476666D02*
X137627380Y-103381428D01*
X137627380Y-103381428D02*
X137579761Y-103238571D01*
X137579761Y-103238571D02*
X137484523Y-103143333D01*
X137484523Y-103143333D02*
X137389285Y-103095714D01*
X137389285Y-103095714D02*
X137198809Y-103048095D01*
X137198809Y-103048095D02*
X137055952Y-103048095D01*
X137055952Y-103048095D02*
X136865476Y-103095714D01*
X136865476Y-103095714D02*
X136770238Y-103143333D01*
X136770238Y-103143333D02*
X136675000Y-103238571D01*
X136675000Y-103238571D02*
X136627380Y-103381428D01*
X136627380Y-103381428D02*
X136627380Y-103476666D01*
X136627380Y-103476666D02*
X136675000Y-103619523D01*
X136675000Y-103619523D02*
X136722619Y-103667142D01*
X137627380Y-104619523D02*
X137627380Y-104048095D01*
X137627380Y-104333809D02*
X136627380Y-104333809D01*
X136627380Y-104333809D02*
X136770238Y-104238571D01*
X136770238Y-104238571D02*
X136865476Y-104143333D01*
X136865476Y-104143333D02*
X136913095Y-104048095D01*
X136722619Y-105000476D02*
X136675000Y-105048095D01*
X136675000Y-105048095D02*
X136627380Y-105143333D01*
X136627380Y-105143333D02*
X136627380Y-105381428D01*
X136627380Y-105381428D02*
X136675000Y-105476666D01*
X136675000Y-105476666D02*
X136722619Y-105524285D01*
X136722619Y-105524285D02*
X136817857Y-105571904D01*
X136817857Y-105571904D02*
X136913095Y-105571904D01*
X136913095Y-105571904D02*
X137055952Y-105524285D01*
X137055952Y-105524285D02*
X137627380Y-104952857D01*
X137627380Y-104952857D02*
X137627380Y-105571904D01*
X150961904Y-91867380D02*
X150390476Y-91867380D01*
X150676190Y-92867380D02*
X150676190Y-91867380D01*
X150057142Y-92867380D02*
X150057142Y-91867380D01*
X150057142Y-91867380D02*
X149676190Y-91867380D01*
X149676190Y-91867380D02*
X149580952Y-91915000D01*
X149580952Y-91915000D02*
X149533333Y-91962619D01*
X149533333Y-91962619D02*
X149485714Y-92057857D01*
X149485714Y-92057857D02*
X149485714Y-92200714D01*
X149485714Y-92200714D02*
X149533333Y-92295952D01*
X149533333Y-92295952D02*
X149580952Y-92343571D01*
X149580952Y-92343571D02*
X149676190Y-92391190D01*
X149676190Y-92391190D02*
X150057142Y-92391190D01*
X149152380Y-91867380D02*
X148485714Y-91867380D01*
X148485714Y-91867380D02*
X148914285Y-92867380D01*
X143561904Y-106467380D02*
X142990476Y-106467380D01*
X143276190Y-107467380D02*
X143276190Y-106467380D01*
X142657142Y-107467380D02*
X142657142Y-106467380D01*
X142657142Y-106467380D02*
X142276190Y-106467380D01*
X142276190Y-106467380D02*
X142180952Y-106515000D01*
X142180952Y-106515000D02*
X142133333Y-106562619D01*
X142133333Y-106562619D02*
X142085714Y-106657857D01*
X142085714Y-106657857D02*
X142085714Y-106800714D01*
X142085714Y-106800714D02*
X142133333Y-106895952D01*
X142133333Y-106895952D02*
X142180952Y-106943571D01*
X142180952Y-106943571D02*
X142276190Y-106991190D01*
X142276190Y-106991190D02*
X142657142Y-106991190D01*
X141752380Y-106467380D02*
X141133333Y-106467380D01*
X141133333Y-106467380D02*
X141466666Y-106848333D01*
X141466666Y-106848333D02*
X141323809Y-106848333D01*
X141323809Y-106848333D02*
X141228571Y-106895952D01*
X141228571Y-106895952D02*
X141180952Y-106943571D01*
X141180952Y-106943571D02*
X141133333Y-107038809D01*
X141133333Y-107038809D02*
X141133333Y-107276904D01*
X141133333Y-107276904D02*
X141180952Y-107372142D01*
X141180952Y-107372142D02*
X141228571Y-107419761D01*
X141228571Y-107419761D02*
X141323809Y-107467380D01*
X141323809Y-107467380D02*
X141609523Y-107467380D01*
X141609523Y-107467380D02*
X141704761Y-107419761D01*
X141704761Y-107419761D02*
X141752380Y-107372142D01*
X148456666Y-88367380D02*
X148789999Y-87891190D01*
X149028094Y-88367380D02*
X149028094Y-87367380D01*
X149028094Y-87367380D02*
X148647142Y-87367380D01*
X148647142Y-87367380D02*
X148551904Y-87415000D01*
X148551904Y-87415000D02*
X148504285Y-87462619D01*
X148504285Y-87462619D02*
X148456666Y-87557857D01*
X148456666Y-87557857D02*
X148456666Y-87700714D01*
X148456666Y-87700714D02*
X148504285Y-87795952D01*
X148504285Y-87795952D02*
X148551904Y-87843571D01*
X148551904Y-87843571D02*
X148647142Y-87891190D01*
X148647142Y-87891190D02*
X149028094Y-87891190D01*
X147551904Y-87367380D02*
X148028094Y-87367380D01*
X148028094Y-87367380D02*
X148075713Y-87843571D01*
X148075713Y-87843571D02*
X148028094Y-87795952D01*
X148028094Y-87795952D02*
X147932856Y-87748333D01*
X147932856Y-87748333D02*
X147694761Y-87748333D01*
X147694761Y-87748333D02*
X147599523Y-87795952D01*
X147599523Y-87795952D02*
X147551904Y-87843571D01*
X147551904Y-87843571D02*
X147504285Y-87938809D01*
X147504285Y-87938809D02*
X147504285Y-88176904D01*
X147504285Y-88176904D02*
X147551904Y-88272142D01*
X147551904Y-88272142D02*
X147599523Y-88319761D01*
X147599523Y-88319761D02*
X147694761Y-88367380D01*
X147694761Y-88367380D02*
X147932856Y-88367380D01*
X147932856Y-88367380D02*
X148028094Y-88319761D01*
X148028094Y-88319761D02*
X148075713Y-88272142D01*
X158182857Y-100512142D02*
X158230476Y-100559761D01*
X158230476Y-100559761D02*
X158373333Y-100607380D01*
X158373333Y-100607380D02*
X158468571Y-100607380D01*
X158468571Y-100607380D02*
X158611428Y-100559761D01*
X158611428Y-100559761D02*
X158706666Y-100464523D01*
X158706666Y-100464523D02*
X158754285Y-100369285D01*
X158754285Y-100369285D02*
X158801904Y-100178809D01*
X158801904Y-100178809D02*
X158801904Y-100035952D01*
X158801904Y-100035952D02*
X158754285Y-99845476D01*
X158754285Y-99845476D02*
X158706666Y-99750238D01*
X158706666Y-99750238D02*
X158611428Y-99655000D01*
X158611428Y-99655000D02*
X158468571Y-99607380D01*
X158468571Y-99607380D02*
X158373333Y-99607380D01*
X158373333Y-99607380D02*
X158230476Y-99655000D01*
X158230476Y-99655000D02*
X158182857Y-99702619D01*
X157230476Y-100607380D02*
X157801904Y-100607380D01*
X157516190Y-100607380D02*
X157516190Y-99607380D01*
X157516190Y-99607380D02*
X157611428Y-99750238D01*
X157611428Y-99750238D02*
X157706666Y-99845476D01*
X157706666Y-99845476D02*
X157801904Y-99893095D01*
X156897142Y-99607380D02*
X156278095Y-99607380D01*
X156278095Y-99607380D02*
X156611428Y-99988333D01*
X156611428Y-99988333D02*
X156468571Y-99988333D01*
X156468571Y-99988333D02*
X156373333Y-100035952D01*
X156373333Y-100035952D02*
X156325714Y-100083571D01*
X156325714Y-100083571D02*
X156278095Y-100178809D01*
X156278095Y-100178809D02*
X156278095Y-100416904D01*
X156278095Y-100416904D02*
X156325714Y-100512142D01*
X156325714Y-100512142D02*
X156373333Y-100559761D01*
X156373333Y-100559761D02*
X156468571Y-100607380D01*
X156468571Y-100607380D02*
X156754285Y-100607380D01*
X156754285Y-100607380D02*
X156849523Y-100559761D01*
X156849523Y-100559761D02*
X156897142Y-100512142D01*
X137403333Y-115877380D02*
X137403333Y-116591666D01*
X137403333Y-116591666D02*
X137450952Y-116734523D01*
X137450952Y-116734523D02*
X137546190Y-116829761D01*
X137546190Y-116829761D02*
X137689047Y-116877380D01*
X137689047Y-116877380D02*
X137784285Y-116877380D01*
X136498571Y-116210714D02*
X136498571Y-116877380D01*
X136736666Y-115829761D02*
X136974761Y-116544047D01*
X136974761Y-116544047D02*
X136355714Y-116544047D01*
X169532857Y-87722142D02*
X169580476Y-87769761D01*
X169580476Y-87769761D02*
X169723333Y-87817380D01*
X169723333Y-87817380D02*
X169818571Y-87817380D01*
X169818571Y-87817380D02*
X169961428Y-87769761D01*
X169961428Y-87769761D02*
X170056666Y-87674523D01*
X170056666Y-87674523D02*
X170104285Y-87579285D01*
X170104285Y-87579285D02*
X170151904Y-87388809D01*
X170151904Y-87388809D02*
X170151904Y-87245952D01*
X170151904Y-87245952D02*
X170104285Y-87055476D01*
X170104285Y-87055476D02*
X170056666Y-86960238D01*
X170056666Y-86960238D02*
X169961428Y-86865000D01*
X169961428Y-86865000D02*
X169818571Y-86817380D01*
X169818571Y-86817380D02*
X169723333Y-86817380D01*
X169723333Y-86817380D02*
X169580476Y-86865000D01*
X169580476Y-86865000D02*
X169532857Y-86912619D01*
X168580476Y-87817380D02*
X169151904Y-87817380D01*
X168866190Y-87817380D02*
X168866190Y-86817380D01*
X168866190Y-86817380D02*
X168961428Y-86960238D01*
X168961428Y-86960238D02*
X169056666Y-87055476D01*
X169056666Y-87055476D02*
X169151904Y-87103095D01*
X167723333Y-86817380D02*
X167913809Y-86817380D01*
X167913809Y-86817380D02*
X168009047Y-86865000D01*
X168009047Y-86865000D02*
X168056666Y-86912619D01*
X168056666Y-86912619D02*
X168151904Y-87055476D01*
X168151904Y-87055476D02*
X168199523Y-87245952D01*
X168199523Y-87245952D02*
X168199523Y-87626904D01*
X168199523Y-87626904D02*
X168151904Y-87722142D01*
X168151904Y-87722142D02*
X168104285Y-87769761D01*
X168104285Y-87769761D02*
X168009047Y-87817380D01*
X168009047Y-87817380D02*
X167818571Y-87817380D01*
X167818571Y-87817380D02*
X167723333Y-87769761D01*
X167723333Y-87769761D02*
X167675714Y-87722142D01*
X167675714Y-87722142D02*
X167628095Y-87626904D01*
X167628095Y-87626904D02*
X167628095Y-87388809D01*
X167628095Y-87388809D02*
X167675714Y-87293571D01*
X167675714Y-87293571D02*
X167723333Y-87245952D01*
X167723333Y-87245952D02*
X167818571Y-87198333D01*
X167818571Y-87198333D02*
X168009047Y-87198333D01*
X168009047Y-87198333D02*
X168104285Y-87245952D01*
X168104285Y-87245952D02*
X168151904Y-87293571D01*
X168151904Y-87293571D02*
X168199523Y-87388809D01*
X161463094Y-117934880D02*
X161463094Y-116934880D01*
X161463094Y-116934880D02*
X161224999Y-116934880D01*
X161224999Y-116934880D02*
X161082142Y-116982500D01*
X161082142Y-116982500D02*
X160986904Y-117077738D01*
X160986904Y-117077738D02*
X160939285Y-117172976D01*
X160939285Y-117172976D02*
X160891666Y-117363452D01*
X160891666Y-117363452D02*
X160891666Y-117506309D01*
X160891666Y-117506309D02*
X160939285Y-117696785D01*
X160939285Y-117696785D02*
X160986904Y-117792023D01*
X160986904Y-117792023D02*
X161082142Y-117887261D01*
X161082142Y-117887261D02*
X161224999Y-117934880D01*
X161224999Y-117934880D02*
X161463094Y-117934880D01*
X160510713Y-117030119D02*
X160463094Y-116982500D01*
X160463094Y-116982500D02*
X160367856Y-116934880D01*
X160367856Y-116934880D02*
X160129761Y-116934880D01*
X160129761Y-116934880D02*
X160034523Y-116982500D01*
X160034523Y-116982500D02*
X159986904Y-117030119D01*
X159986904Y-117030119D02*
X159939285Y-117125357D01*
X159939285Y-117125357D02*
X159939285Y-117220595D01*
X159939285Y-117220595D02*
X159986904Y-117363452D01*
X159986904Y-117363452D02*
X160558332Y-117934880D01*
X160558332Y-117934880D02*
X159939285Y-117934880D01*
X158696666Y-106157380D02*
X159029999Y-105681190D01*
X159268094Y-106157380D02*
X159268094Y-105157380D01*
X159268094Y-105157380D02*
X158887142Y-105157380D01*
X158887142Y-105157380D02*
X158791904Y-105205000D01*
X158791904Y-105205000D02*
X158744285Y-105252619D01*
X158744285Y-105252619D02*
X158696666Y-105347857D01*
X158696666Y-105347857D02*
X158696666Y-105490714D01*
X158696666Y-105490714D02*
X158744285Y-105585952D01*
X158744285Y-105585952D02*
X158791904Y-105633571D01*
X158791904Y-105633571D02*
X158887142Y-105681190D01*
X158887142Y-105681190D02*
X159268094Y-105681190D01*
X158125237Y-105585952D02*
X158220475Y-105538333D01*
X158220475Y-105538333D02*
X158268094Y-105490714D01*
X158268094Y-105490714D02*
X158315713Y-105395476D01*
X158315713Y-105395476D02*
X158315713Y-105347857D01*
X158315713Y-105347857D02*
X158268094Y-105252619D01*
X158268094Y-105252619D02*
X158220475Y-105205000D01*
X158220475Y-105205000D02*
X158125237Y-105157380D01*
X158125237Y-105157380D02*
X157934761Y-105157380D01*
X157934761Y-105157380D02*
X157839523Y-105205000D01*
X157839523Y-105205000D02*
X157791904Y-105252619D01*
X157791904Y-105252619D02*
X157744285Y-105347857D01*
X157744285Y-105347857D02*
X157744285Y-105395476D01*
X157744285Y-105395476D02*
X157791904Y-105490714D01*
X157791904Y-105490714D02*
X157839523Y-105538333D01*
X157839523Y-105538333D02*
X157934761Y-105585952D01*
X157934761Y-105585952D02*
X158125237Y-105585952D01*
X158125237Y-105585952D02*
X158220475Y-105633571D01*
X158220475Y-105633571D02*
X158268094Y-105681190D01*
X158268094Y-105681190D02*
X158315713Y-105776428D01*
X158315713Y-105776428D02*
X158315713Y-105966904D01*
X158315713Y-105966904D02*
X158268094Y-106062142D01*
X158268094Y-106062142D02*
X158220475Y-106109761D01*
X158220475Y-106109761D02*
X158125237Y-106157380D01*
X158125237Y-106157380D02*
X157934761Y-106157380D01*
X157934761Y-106157380D02*
X157839523Y-106109761D01*
X157839523Y-106109761D02*
X157791904Y-106062142D01*
X157791904Y-106062142D02*
X157744285Y-105966904D01*
X157744285Y-105966904D02*
X157744285Y-105776428D01*
X157744285Y-105776428D02*
X157791904Y-105681190D01*
X157791904Y-105681190D02*
X157839523Y-105633571D01*
X157839523Y-105633571D02*
X157934761Y-105585952D01*
X138261904Y-90867380D02*
X137690476Y-90867380D01*
X137976190Y-91867380D02*
X137976190Y-90867380D01*
X137357142Y-91867380D02*
X137357142Y-90867380D01*
X137357142Y-90867380D02*
X136976190Y-90867380D01*
X136976190Y-90867380D02*
X136880952Y-90915000D01*
X136880952Y-90915000D02*
X136833333Y-90962619D01*
X136833333Y-90962619D02*
X136785714Y-91057857D01*
X136785714Y-91057857D02*
X136785714Y-91200714D01*
X136785714Y-91200714D02*
X136833333Y-91295952D01*
X136833333Y-91295952D02*
X136880952Y-91343571D01*
X136880952Y-91343571D02*
X136976190Y-91391190D01*
X136976190Y-91391190D02*
X137357142Y-91391190D01*
X136214285Y-91295952D02*
X136309523Y-91248333D01*
X136309523Y-91248333D02*
X136357142Y-91200714D01*
X136357142Y-91200714D02*
X136404761Y-91105476D01*
X136404761Y-91105476D02*
X136404761Y-91057857D01*
X136404761Y-91057857D02*
X136357142Y-90962619D01*
X136357142Y-90962619D02*
X136309523Y-90915000D01*
X136309523Y-90915000D02*
X136214285Y-90867380D01*
X136214285Y-90867380D02*
X136023809Y-90867380D01*
X136023809Y-90867380D02*
X135928571Y-90915000D01*
X135928571Y-90915000D02*
X135880952Y-90962619D01*
X135880952Y-90962619D02*
X135833333Y-91057857D01*
X135833333Y-91057857D02*
X135833333Y-91105476D01*
X135833333Y-91105476D02*
X135880952Y-91200714D01*
X135880952Y-91200714D02*
X135928571Y-91248333D01*
X135928571Y-91248333D02*
X136023809Y-91295952D01*
X136023809Y-91295952D02*
X136214285Y-91295952D01*
X136214285Y-91295952D02*
X136309523Y-91343571D01*
X136309523Y-91343571D02*
X136357142Y-91391190D01*
X136357142Y-91391190D02*
X136404761Y-91486428D01*
X136404761Y-91486428D02*
X136404761Y-91676904D01*
X136404761Y-91676904D02*
X136357142Y-91772142D01*
X136357142Y-91772142D02*
X136309523Y-91819761D01*
X136309523Y-91819761D02*
X136214285Y-91867380D01*
X136214285Y-91867380D02*
X136023809Y-91867380D01*
X136023809Y-91867380D02*
X135928571Y-91819761D01*
X135928571Y-91819761D02*
X135880952Y-91772142D01*
X135880952Y-91772142D02*
X135833333Y-91676904D01*
X135833333Y-91676904D02*
X135833333Y-91486428D01*
X135833333Y-91486428D02*
X135880952Y-91391190D01*
X135880952Y-91391190D02*
X135928571Y-91343571D01*
X135928571Y-91343571D02*
X136023809Y-91295952D01*
X140642142Y-103583333D02*
X140689761Y-103535714D01*
X140689761Y-103535714D02*
X140737380Y-103392857D01*
X140737380Y-103392857D02*
X140737380Y-103297619D01*
X140737380Y-103297619D02*
X140689761Y-103154762D01*
X140689761Y-103154762D02*
X140594523Y-103059524D01*
X140594523Y-103059524D02*
X140499285Y-103011905D01*
X140499285Y-103011905D02*
X140308809Y-102964286D01*
X140308809Y-102964286D02*
X140165952Y-102964286D01*
X140165952Y-102964286D02*
X139975476Y-103011905D01*
X139975476Y-103011905D02*
X139880238Y-103059524D01*
X139880238Y-103059524D02*
X139785000Y-103154762D01*
X139785000Y-103154762D02*
X139737380Y-103297619D01*
X139737380Y-103297619D02*
X139737380Y-103392857D01*
X139737380Y-103392857D02*
X139785000Y-103535714D01*
X139785000Y-103535714D02*
X139832619Y-103583333D01*
X140165952Y-104154762D02*
X140118333Y-104059524D01*
X140118333Y-104059524D02*
X140070714Y-104011905D01*
X140070714Y-104011905D02*
X139975476Y-103964286D01*
X139975476Y-103964286D02*
X139927857Y-103964286D01*
X139927857Y-103964286D02*
X139832619Y-104011905D01*
X139832619Y-104011905D02*
X139785000Y-104059524D01*
X139785000Y-104059524D02*
X139737380Y-104154762D01*
X139737380Y-104154762D02*
X139737380Y-104345238D01*
X139737380Y-104345238D02*
X139785000Y-104440476D01*
X139785000Y-104440476D02*
X139832619Y-104488095D01*
X139832619Y-104488095D02*
X139927857Y-104535714D01*
X139927857Y-104535714D02*
X139975476Y-104535714D01*
X139975476Y-104535714D02*
X140070714Y-104488095D01*
X140070714Y-104488095D02*
X140118333Y-104440476D01*
X140118333Y-104440476D02*
X140165952Y-104345238D01*
X140165952Y-104345238D02*
X140165952Y-104154762D01*
X140165952Y-104154762D02*
X140213571Y-104059524D01*
X140213571Y-104059524D02*
X140261190Y-104011905D01*
X140261190Y-104011905D02*
X140356428Y-103964286D01*
X140356428Y-103964286D02*
X140546904Y-103964286D01*
X140546904Y-103964286D02*
X140642142Y-104011905D01*
X140642142Y-104011905D02*
X140689761Y-104059524D01*
X140689761Y-104059524D02*
X140737380Y-104154762D01*
X140737380Y-104154762D02*
X140737380Y-104345238D01*
X140737380Y-104345238D02*
X140689761Y-104440476D01*
X140689761Y-104440476D02*
X140642142Y-104488095D01*
X140642142Y-104488095D02*
X140546904Y-104535714D01*
X140546904Y-104535714D02*
X140356428Y-104535714D01*
X140356428Y-104535714D02*
X140261190Y-104488095D01*
X140261190Y-104488095D02*
X140213571Y-104440476D01*
X140213571Y-104440476D02*
X140165952Y-104345238D01*
X164182857Y-113692142D02*
X164230476Y-113739761D01*
X164230476Y-113739761D02*
X164373333Y-113787380D01*
X164373333Y-113787380D02*
X164468571Y-113787380D01*
X164468571Y-113787380D02*
X164611428Y-113739761D01*
X164611428Y-113739761D02*
X164706666Y-113644523D01*
X164706666Y-113644523D02*
X164754285Y-113549285D01*
X164754285Y-113549285D02*
X164801904Y-113358809D01*
X164801904Y-113358809D02*
X164801904Y-113215952D01*
X164801904Y-113215952D02*
X164754285Y-113025476D01*
X164754285Y-113025476D02*
X164706666Y-112930238D01*
X164706666Y-112930238D02*
X164611428Y-112835000D01*
X164611428Y-112835000D02*
X164468571Y-112787380D01*
X164468571Y-112787380D02*
X164373333Y-112787380D01*
X164373333Y-112787380D02*
X164230476Y-112835000D01*
X164230476Y-112835000D02*
X164182857Y-112882619D01*
X163801904Y-112882619D02*
X163754285Y-112835000D01*
X163754285Y-112835000D02*
X163659047Y-112787380D01*
X163659047Y-112787380D02*
X163420952Y-112787380D01*
X163420952Y-112787380D02*
X163325714Y-112835000D01*
X163325714Y-112835000D02*
X163278095Y-112882619D01*
X163278095Y-112882619D02*
X163230476Y-112977857D01*
X163230476Y-112977857D02*
X163230476Y-113073095D01*
X163230476Y-113073095D02*
X163278095Y-113215952D01*
X163278095Y-113215952D02*
X163849523Y-113787380D01*
X163849523Y-113787380D02*
X163230476Y-113787380D01*
X162611428Y-112787380D02*
X162516190Y-112787380D01*
X162516190Y-112787380D02*
X162420952Y-112835000D01*
X162420952Y-112835000D02*
X162373333Y-112882619D01*
X162373333Y-112882619D02*
X162325714Y-112977857D01*
X162325714Y-112977857D02*
X162278095Y-113168333D01*
X162278095Y-113168333D02*
X162278095Y-113406428D01*
X162278095Y-113406428D02*
X162325714Y-113596904D01*
X162325714Y-113596904D02*
X162373333Y-113692142D01*
X162373333Y-113692142D02*
X162420952Y-113739761D01*
X162420952Y-113739761D02*
X162516190Y-113787380D01*
X162516190Y-113787380D02*
X162611428Y-113787380D01*
X162611428Y-113787380D02*
X162706666Y-113739761D01*
X162706666Y-113739761D02*
X162754285Y-113692142D01*
X162754285Y-113692142D02*
X162801904Y-113596904D01*
X162801904Y-113596904D02*
X162849523Y-113406428D01*
X162849523Y-113406428D02*
X162849523Y-113168333D01*
X162849523Y-113168333D02*
X162801904Y-112977857D01*
X162801904Y-112977857D02*
X162754285Y-112882619D01*
X162754285Y-112882619D02*
X162706666Y-112835000D01*
X162706666Y-112835000D02*
X162611428Y-112787380D01*
X150692857Y-118687380D02*
X151026190Y-118211190D01*
X151264285Y-118687380D02*
X151264285Y-117687380D01*
X151264285Y-117687380D02*
X150883333Y-117687380D01*
X150883333Y-117687380D02*
X150788095Y-117735000D01*
X150788095Y-117735000D02*
X150740476Y-117782619D01*
X150740476Y-117782619D02*
X150692857Y-117877857D01*
X150692857Y-117877857D02*
X150692857Y-118020714D01*
X150692857Y-118020714D02*
X150740476Y-118115952D01*
X150740476Y-118115952D02*
X150788095Y-118163571D01*
X150788095Y-118163571D02*
X150883333Y-118211190D01*
X150883333Y-118211190D02*
X151264285Y-118211190D01*
X149740476Y-118687380D02*
X150311904Y-118687380D01*
X150026190Y-118687380D02*
X150026190Y-117687380D01*
X150026190Y-117687380D02*
X150121428Y-117830238D01*
X150121428Y-117830238D02*
X150216666Y-117925476D01*
X150216666Y-117925476D02*
X150311904Y-117973095D01*
X148788095Y-118687380D02*
X149359523Y-118687380D01*
X149073809Y-118687380D02*
X149073809Y-117687380D01*
X149073809Y-117687380D02*
X149169047Y-117830238D01*
X149169047Y-117830238D02*
X149264285Y-117925476D01*
X149264285Y-117925476D02*
X149359523Y-117973095D01*
D11*
X164900000Y-119600000D02*
X167300000Y-119600000D01*
X167300000Y-119600000D02*
X167300000Y-117200000D01*
X167300000Y-117200000D02*
X164900000Y-117200000D01*
X164900000Y-117200000D02*
X164900000Y-119600000D01*
X159700000Y-119600000D02*
X162100000Y-119600000D01*
X162100000Y-119600000D02*
X162100000Y-117200000D01*
X162100000Y-117200000D02*
X159700000Y-117200000D01*
X159700000Y-117200000D02*
X159700000Y-119600000D01*
X161110000Y-95010000D02*
X161110000Y-94785000D01*
X160710000Y-95010000D02*
X161110000Y-95010000D01*
X160710000Y-92790000D02*
X161110000Y-92790000D01*
X159290000Y-95010000D02*
X158890000Y-95010000D01*
X159290000Y-92790000D02*
X158890000Y-92790000D01*
X158890000Y-95010000D02*
X158890000Y-94785000D01*
X158890000Y-92790000D02*
X158890000Y-93015000D01*
X171867836Y-94420000D02*
X171652164Y-94420000D01*
X171867836Y-93700000D02*
X171652164Y-93700000D01*
X157880000Y-94057836D02*
X157880000Y-93842164D01*
X158600000Y-94057836D02*
X158600000Y-93842164D01*
X171620000Y-82885000D02*
X171620000Y-85385000D01*
X171620000Y-85385000D02*
X172670000Y-85385000D01*
X172670000Y-85385000D02*
X172670000Y-86375000D01*
X172790000Y-80915000D02*
X176670000Y-80915000D01*
X177840000Y-82885000D02*
X177840000Y-85385000D01*
X177840000Y-85385000D02*
X176790000Y-85385000D01*
G36*
X177456184Y-118310526D02*
G01*
X172777237Y-118310526D01*
X172777237Y-117157500D01*
X177456184Y-117157500D01*
X177456184Y-118310526D01*
G37*
D12*
X177456184Y-118310526D02*
X172777237Y-118310526D01*
X172777237Y-117157500D01*
X177456184Y-117157500D01*
X177456184Y-118310526D01*
G36*
X176085937Y-110941184D02*
G01*
X176085938Y-110945362D01*
X176086595Y-110962572D01*
X176095141Y-110991467D01*
X176119466Y-111015972D01*
X176166918Y-111045143D01*
X176208573Y-111071793D01*
X176271989Y-111122960D01*
X176329460Y-111180400D01*
X176373422Y-111236279D01*
X176396311Y-111282762D01*
X176401919Y-111300674D01*
X176412309Y-111312970D01*
X176415812Y-111317116D01*
X176444445Y-111324083D01*
X176497141Y-111325526D01*
X176587237Y-111325526D01*
X176587237Y-111475921D01*
X176375228Y-111475921D01*
X176355433Y-111712183D01*
X176352775Y-111744483D01*
X176346583Y-111825340D01*
X176342208Y-111891135D01*
X176340030Y-111935791D01*
X176340426Y-111953233D01*
X176346185Y-111948219D01*
X176372462Y-111922083D01*
X176417888Y-111875758D01*
X176480166Y-111811647D01*
X176556997Y-111732150D01*
X176646080Y-111639669D01*
X176745119Y-111536606D01*
X176851814Y-111425362D01*
X176963865Y-111308338D01*
X177078975Y-111187936D01*
X177194844Y-111066558D01*
X177309174Y-110946604D01*
X177419666Y-110830476D01*
X177524021Y-110720575D01*
X177619940Y-110619304D01*
X177705124Y-110529063D01*
X177777275Y-110452253D01*
X177906194Y-110314539D01*
X177906781Y-110431852D01*
X177907368Y-110549164D01*
X177109286Y-111388485D01*
X176311204Y-112227807D01*
X176295250Y-112419106D01*
X176231419Y-113184528D01*
X176220138Y-113320287D01*
X176206140Y-113490154D01*
X176193220Y-113648505D01*
X176181627Y-113792228D01*
X176171607Y-113918210D01*
X176163407Y-114023338D01*
X176157274Y-114104501D01*
X176153456Y-114158586D01*
X176152199Y-114182480D01*
X176155517Y-114193429D01*
X176170429Y-114217071D01*
X176198709Y-114252703D01*
X176212358Y-114268277D01*
X176241864Y-114301948D01*
X176301399Y-114366428D01*
X176378820Y-114447768D01*
X176475632Y-114547591D01*
X176593342Y-114667520D01*
X176733454Y-114809179D01*
X176825628Y-114902136D01*
X176954119Y-115031795D01*
X177082159Y-115161079D01*
X177205900Y-115286097D01*
X177321492Y-115402959D01*
X177425085Y-115507774D01*
X177512831Y-115596652D01*
X177580881Y-115665702D01*
X177847617Y-115936757D01*
X177799169Y-115987326D01*
X177787743Y-115998719D01*
X177754035Y-116026697D01*
X177730910Y-116037895D01*
X177712805Y-116028335D01*
X177679145Y-115999649D01*
X177638792Y-115958520D01*
X177614230Y-115932542D01*
X177568423Y-115885104D01*
X177503683Y-115818566D01*
X177422295Y-115735263D01*
X177326545Y-115637528D01*
X177218721Y-115527695D01*
X177101108Y-115408096D01*
X176975992Y-115281066D01*
X176845659Y-115148938D01*
X176124831Y-114418732D01*
X176095469Y-114798017D01*
X176089068Y-114878972D01*
X176079721Y-114987793D01*
X176071290Y-115070217D01*
X176063151Y-115130575D01*
X176054679Y-115173200D01*
X176045250Y-115202424D01*
X176034237Y-115222580D01*
X176018825Y-115250750D01*
X176006143Y-115302539D01*
X176002368Y-115377152D01*
X176002368Y-115486447D01*
X175701579Y-115486447D01*
X175701579Y-115252500D01*
X174577832Y-115252500D01*
X174512875Y-115326295D01*
X174495110Y-115345511D01*
X174398831Y-115422712D01*
X174290049Y-115470239D01*
X174172262Y-115486447D01*
X174068327Y-115477854D01*
X173950770Y-115441628D01*
X173850134Y-115376882D01*
X173830520Y-115358378D01*
X173781503Y-115298475D01*
X173738497Y-115228693D01*
X173707658Y-115159909D01*
X173695141Y-115103002D01*
X173694899Y-115094741D01*
X173693099Y-115064471D01*
X173688392Y-115043563D01*
X173678544Y-115033669D01*
X173661323Y-115036444D01*
X173634494Y-115053540D01*
X173595824Y-115086610D01*
X173543080Y-115137307D01*
X173474028Y-115207285D01*
X173386434Y-115298197D01*
X173278065Y-115411695D01*
X173220342Y-115472280D01*
X173123855Y-115573718D01*
X173032568Y-115669889D01*
X172950059Y-115757013D01*
X172879906Y-115831311D01*
X172825685Y-115889003D01*
X172790974Y-115926310D01*
X172696092Y-116029539D01*
X172637449Y-115971052D01*
X172578805Y-115912566D01*
X173304179Y-115152237D01*
X173349916Y-115104263D01*
X173512633Y-114932940D01*
X173652313Y-114784738D01*
X173769373Y-114659198D01*
X173864233Y-114555861D01*
X173931309Y-114480967D01*
X174205947Y-114480967D01*
X174208106Y-114498589D01*
X174208483Y-114500430D01*
X174226480Y-114542171D01*
X174262428Y-114561620D01*
X174373237Y-114603083D01*
X174471963Y-114672156D01*
X174549611Y-114763524D01*
X174602828Y-114873195D01*
X174628258Y-114997173D01*
X174636681Y-115102105D01*
X175898482Y-115102105D01*
X175907280Y-115064506D01*
X175908836Y-115055279D01*
X175913672Y-115014018D01*
X175920271Y-114947304D01*
X175928142Y-114860453D01*
X175936797Y-114758777D01*
X175945743Y-114647592D01*
X175975409Y-114268277D01*
X175575532Y-113862198D01*
X175502187Y-113787961D01*
X175412447Y-113697837D01*
X175331940Y-113617775D01*
X175263488Y-113550542D01*
X175209917Y-113498910D01*
X175174052Y-113465646D01*
X175158715Y-113453521D01*
X175148431Y-113459314D01*
X175117801Y-113485675D01*
X175071705Y-113529709D01*
X175014265Y-113587444D01*
X174949605Y-113654911D01*
X174932738Y-113672804D01*
X174857107Y-113752839D01*
X174766984Y-113847977D01*
X174669155Y-113951067D01*
X174570405Y-114054956D01*
X174477520Y-114152493D01*
X174471940Y-114158346D01*
X174385584Y-114249214D01*
X174319690Y-114319577D01*
X174271651Y-114372783D01*
X174238863Y-114412177D01*
X174218720Y-114441108D01*
X174208616Y-114462922D01*
X174205947Y-114480967D01*
X173931309Y-114480967D01*
X173937311Y-114474266D01*
X173989026Y-114413955D01*
X174019796Y-114374466D01*
X174030040Y-114355342D01*
X174030041Y-114355229D01*
X174028636Y-114331394D01*
X174024531Y-114277967D01*
X174018048Y-114198584D01*
X174009508Y-114096880D01*
X173999233Y-113976493D01*
X173987544Y-113841057D01*
X173974763Y-113694211D01*
X173961212Y-113539590D01*
X173947212Y-113380830D01*
X173933085Y-113221568D01*
X173919153Y-113065441D01*
X173905736Y-112916083D01*
X173893157Y-112777133D01*
X173881738Y-112652226D01*
X173871799Y-112544998D01*
X173863662Y-112459087D01*
X173857650Y-112398127D01*
X173854083Y-112365756D01*
X173846891Y-112311538D01*
X174018573Y-112311538D01*
X174020772Y-112352630D01*
X174025611Y-112421735D01*
X174032848Y-112515870D01*
X174042241Y-112632053D01*
X174053547Y-112767299D01*
X174066523Y-112918627D01*
X174080929Y-113083054D01*
X174096521Y-113257597D01*
X174108710Y-113392206D01*
X174123976Y-113559145D01*
X174138269Y-113713618D01*
X174151305Y-113852649D01*
X174162800Y-113973264D01*
X174172470Y-114072489D01*
X174180030Y-114147348D01*
X174185197Y-114194867D01*
X174187686Y-114212072D01*
X174195236Y-114206742D01*
X174222922Y-114180578D01*
X174267909Y-114135637D01*
X174327100Y-114075191D01*
X174397399Y-114002509D01*
X174475708Y-113920864D01*
X174558930Y-113833526D01*
X174643969Y-113743767D01*
X174727727Y-113654858D01*
X174807107Y-113570070D01*
X174879013Y-113492673D01*
X174940347Y-113425941D01*
X174988013Y-113373142D01*
X175018913Y-113337550D01*
X175027941Y-113325186D01*
X175269574Y-113325186D01*
X175635971Y-113691299D01*
X175725569Y-113780679D01*
X175810013Y-113864320D01*
X175875427Y-113928027D01*
X175924208Y-113973868D01*
X175958753Y-114003909D01*
X175981459Y-114020218D01*
X175994722Y-114024862D01*
X176000940Y-114019908D01*
X176002509Y-114007423D01*
X176003515Y-113987363D01*
X176007140Y-113935712D01*
X176013130Y-113857320D01*
X176021198Y-113755759D01*
X176031055Y-113634602D01*
X176042413Y-113497421D01*
X176054984Y-113347787D01*
X176068480Y-113189271D01*
X176080395Y-113049563D01*
X176092811Y-112902414D01*
X176103943Y-112768805D01*
X176113526Y-112652028D01*
X176121290Y-112555378D01*
X176126969Y-112482145D01*
X176130297Y-112435624D01*
X176131004Y-112419106D01*
X176130444Y-112419416D01*
X176114663Y-112434623D01*
X176079606Y-112470303D01*
X176028363Y-112523220D01*
X175964019Y-112590139D01*
X175889664Y-112667823D01*
X175808385Y-112753036D01*
X175723270Y-112842541D01*
X175637406Y-112933102D01*
X175553881Y-113021483D01*
X175475784Y-113104448D01*
X175406202Y-113178760D01*
X175272141Y-113322434D01*
X175269574Y-113325186D01*
X175027941Y-113325186D01*
X175029951Y-113322434D01*
X175019131Y-113307785D01*
X174987674Y-113272722D01*
X174938503Y-113220265D01*
X174874544Y-113153372D01*
X174798723Y-113074999D01*
X174713967Y-112988103D01*
X174623202Y-112895641D01*
X174529356Y-112800569D01*
X174435354Y-112705845D01*
X174344124Y-112614424D01*
X174258591Y-112529265D01*
X174181683Y-112453323D01*
X174116326Y-112389556D01*
X174065446Y-112340920D01*
X174031970Y-112310372D01*
X174018824Y-112300868D01*
X174018573Y-112311538D01*
X173846891Y-112311538D01*
X173844663Y-112294737D01*
X173479079Y-112294737D01*
X173478870Y-112161052D01*
X173612763Y-112161052D01*
X173721382Y-112161052D01*
X173731045Y-112161044D01*
X173785604Y-112159880D01*
X173815276Y-112154902D01*
X173827571Y-112143477D01*
X173830000Y-112122971D01*
X173819301Y-112092829D01*
X173782654Y-112042687D01*
X173721382Y-111977237D01*
X173612763Y-111869584D01*
X173612763Y-112161052D01*
X173478870Y-112161052D01*
X173478641Y-112014835D01*
X173478204Y-111734934D01*
X172877885Y-111125000D01*
X172277567Y-110515066D01*
X172276744Y-110399337D01*
X172275921Y-110283610D01*
X172995969Y-111013449D01*
X173065564Y-111083944D01*
X173209975Y-111229828D01*
X173333442Y-111353875D01*
X173437560Y-111457611D01*
X173523925Y-111542562D01*
X173594132Y-111610256D01*
X173649776Y-111662219D01*
X173692452Y-111699977D01*
X173723756Y-111725057D01*
X173745282Y-111738986D01*
X173758625Y-111743289D01*
X173781125Y-111741986D01*
X173793756Y-111732468D01*
X173795934Y-111706427D01*
X173790697Y-111655559D01*
X173787086Y-111623533D01*
X173782061Y-111570002D01*
X173780037Y-111534408D01*
X173779045Y-111522138D01*
X173769386Y-111508996D01*
X173742703Y-111504641D01*
X173690902Y-111506542D01*
X173677676Y-111507287D01*
X173624733Y-111506447D01*
X173587073Y-111494813D01*
X173560529Y-111475921D01*
X173936974Y-111475921D01*
X173942504Y-111538585D01*
X173945058Y-111567017D01*
X173953018Y-111644642D01*
X173960861Y-111695769D01*
X173970031Y-111725711D01*
X173981973Y-111739780D01*
X173998129Y-111743289D01*
X174012656Y-111745679D01*
X174022289Y-111757098D01*
X174027672Y-111783645D01*
X174030015Y-111831414D01*
X174030526Y-111906502D01*
X174030526Y-112069715D01*
X174083948Y-112122971D01*
X174214342Y-112252960D01*
X174398158Y-112436206D01*
X174398158Y-112294737D01*
X175400790Y-112294737D01*
X175400790Y-112612237D01*
X174578827Y-112612237D01*
X174857589Y-112900493D01*
X174910984Y-112955548D01*
X174984817Y-113031120D01*
X175048929Y-113096082D01*
X175099961Y-113147060D01*
X175134557Y-113180681D01*
X175149357Y-113193574D01*
X175154983Y-113190018D01*
X175181363Y-113166118D01*
X175226849Y-113121862D01*
X175289012Y-113059708D01*
X175365422Y-112982115D01*
X175453649Y-112891540D01*
X175551262Y-112790441D01*
X175655833Y-112681275D01*
X175760940Y-112570964D01*
X175863974Y-112462246D01*
X175947530Y-112373136D01*
X176013654Y-112301271D01*
X176064387Y-112244289D01*
X176101775Y-112199828D01*
X176127860Y-112165525D01*
X176144687Y-112139017D01*
X176154298Y-112117942D01*
X176158739Y-112099939D01*
X176159916Y-112091169D01*
X176165136Y-112042847D01*
X176171742Y-111971707D01*
X176179008Y-111885861D01*
X176186207Y-111793421D01*
X176188648Y-111761225D01*
X176195701Y-111674236D01*
X176202425Y-111599203D01*
X176208160Y-111543255D01*
X176212240Y-111513520D01*
X176220242Y-111475921D01*
X173936974Y-111475921D01*
X173560529Y-111475921D01*
X173549956Y-111468396D01*
X173543563Y-111462835D01*
X173491285Y-111395487D01*
X173470581Y-111325526D01*
X173923481Y-111325526D01*
X175803306Y-111325526D01*
X176085921Y-111325526D01*
X176161706Y-111325526D01*
X176184412Y-111325366D01*
X176218054Y-111322442D01*
X176227766Y-111312970D01*
X176220227Y-111293267D01*
X176217999Y-111289511D01*
X176192990Y-111260623D01*
X176156757Y-111228563D01*
X176120613Y-111202560D01*
X176095874Y-111191842D01*
X176093650Y-111193536D01*
X176088131Y-111216810D01*
X176085921Y-111258684D01*
X176085921Y-111325526D01*
X175803306Y-111325526D01*
X175798397Y-111205007D01*
X175793487Y-111084488D01*
X175693224Y-111064348D01*
X175642943Y-111055214D01*
X175558975Y-111042425D01*
X175480165Y-111032776D01*
X175367368Y-111021345D01*
X175367368Y-111158421D01*
X174598684Y-111158421D01*
X174598684Y-111037596D01*
X174502599Y-111049065D01*
X174355787Y-111073646D01*
X174208032Y-111118089D01*
X174085814Y-111180062D01*
X173987062Y-111260413D01*
X173923481Y-111325526D01*
X173470581Y-111325526D01*
X173468281Y-111317754D01*
X173475328Y-111236211D01*
X173513203Y-111157434D01*
X173516868Y-111152529D01*
X173567486Y-111110327D01*
X173633474Y-111085365D01*
X173704607Y-111078725D01*
X173770664Y-111091492D01*
X173821419Y-111124750D01*
X173838604Y-111141729D01*
X173855345Y-111145844D01*
X173879318Y-111133115D01*
X173919799Y-111101332D01*
X173932219Y-111091564D01*
X174028111Y-111029911D01*
X174038832Y-111024737D01*
X174732368Y-111024737D01*
X175233684Y-111024737D01*
X175233684Y-110941184D01*
X174732368Y-110941184D01*
X174732368Y-111024737D01*
X174038832Y-111024737D01*
X174141715Y-110975084D01*
X174262453Y-110931033D01*
X174379746Y-110901706D01*
X174483017Y-110891052D01*
X174493988Y-110890968D01*
X174554970Y-110885031D01*
X174588460Y-110868385D01*
X174598684Y-110839133D01*
X174599885Y-110829917D01*
X174606449Y-110821991D01*
X174622391Y-110816189D01*
X174651719Y-110812181D01*
X174698440Y-110809639D01*
X174766559Y-110808230D01*
X174860086Y-110807628D01*
X174983026Y-110807500D01*
X175098219Y-110807725D01*
X175196126Y-110808635D01*
X175267800Y-110810469D01*
X175317001Y-110813466D01*
X175347490Y-110817863D01*
X175363025Y-110823898D01*
X175367368Y-110831808D01*
X175381653Y-110851232D01*
X175421678Y-110863627D01*
X175436997Y-110865796D01*
X175489230Y-110873430D01*
X175558737Y-110883778D01*
X175634737Y-110895240D01*
X175676651Y-110901075D01*
X175737992Y-110907394D01*
X175781273Y-110908918D01*
X175799057Y-110905197D01*
X175802094Y-110902773D01*
X175830130Y-110896785D01*
X175880564Y-110892617D01*
X175945274Y-110891052D01*
X176085921Y-110891052D01*
X176085937Y-110941184D01*
G37*
X176085937Y-110941184D02*
X176085938Y-110945362D01*
X176086595Y-110962572D01*
X176095141Y-110991467D01*
X176119466Y-111015972D01*
X176166918Y-111045143D01*
X176208573Y-111071793D01*
X176271989Y-111122960D01*
X176329460Y-111180400D01*
X176373422Y-111236279D01*
X176396311Y-111282762D01*
X176401919Y-111300674D01*
X176412309Y-111312970D01*
X176415812Y-111317116D01*
X176444445Y-111324083D01*
X176497141Y-111325526D01*
X176587237Y-111325526D01*
X176587237Y-111475921D01*
X176375228Y-111475921D01*
X176355433Y-111712183D01*
X176352775Y-111744483D01*
X176346583Y-111825340D01*
X176342208Y-111891135D01*
X176340030Y-111935791D01*
X176340426Y-111953233D01*
X176346185Y-111948219D01*
X176372462Y-111922083D01*
X176417888Y-111875758D01*
X176480166Y-111811647D01*
X176556997Y-111732150D01*
X176646080Y-111639669D01*
X176745119Y-111536606D01*
X176851814Y-111425362D01*
X176963865Y-111308338D01*
X177078975Y-111187936D01*
X177194844Y-111066558D01*
X177309174Y-110946604D01*
X177419666Y-110830476D01*
X177524021Y-110720575D01*
X177619940Y-110619304D01*
X177705124Y-110529063D01*
X177777275Y-110452253D01*
X177906194Y-110314539D01*
X177906781Y-110431852D01*
X177907368Y-110549164D01*
X177109286Y-111388485D01*
X176311204Y-112227807D01*
X176295250Y-112419106D01*
X176231419Y-113184528D01*
X176220138Y-113320287D01*
X176206140Y-113490154D01*
X176193220Y-113648505D01*
X176181627Y-113792228D01*
X176171607Y-113918210D01*
X176163407Y-114023338D01*
X176157274Y-114104501D01*
X176153456Y-114158586D01*
X176152199Y-114182480D01*
X176155517Y-114193429D01*
X176170429Y-114217071D01*
X176198709Y-114252703D01*
X176212358Y-114268277D01*
X176241864Y-114301948D01*
X176301399Y-114366428D01*
X176378820Y-114447768D01*
X176475632Y-114547591D01*
X176593342Y-114667520D01*
X176733454Y-114809179D01*
X176825628Y-114902136D01*
X176954119Y-115031795D01*
X177082159Y-115161079D01*
X177205900Y-115286097D01*
X177321492Y-115402959D01*
X177425085Y-115507774D01*
X177512831Y-115596652D01*
X177580881Y-115665702D01*
X177847617Y-115936757D01*
X177799169Y-115987326D01*
X177787743Y-115998719D01*
X177754035Y-116026697D01*
X177730910Y-116037895D01*
X177712805Y-116028335D01*
X177679145Y-115999649D01*
X177638792Y-115958520D01*
X177614230Y-115932542D01*
X177568423Y-115885104D01*
X177503683Y-115818566D01*
X177422295Y-115735263D01*
X177326545Y-115637528D01*
X177218721Y-115527695D01*
X177101108Y-115408096D01*
X176975992Y-115281066D01*
X176845659Y-115148938D01*
X176124831Y-114418732D01*
X176095469Y-114798017D01*
X176089068Y-114878972D01*
X176079721Y-114987793D01*
X176071290Y-115070217D01*
X176063151Y-115130575D01*
X176054679Y-115173200D01*
X176045250Y-115202424D01*
X176034237Y-115222580D01*
X176018825Y-115250750D01*
X176006143Y-115302539D01*
X176002368Y-115377152D01*
X176002368Y-115486447D01*
X175701579Y-115486447D01*
X175701579Y-115252500D01*
X174577832Y-115252500D01*
X174512875Y-115326295D01*
X174495110Y-115345511D01*
X174398831Y-115422712D01*
X174290049Y-115470239D01*
X174172262Y-115486447D01*
X174068327Y-115477854D01*
X173950770Y-115441628D01*
X173850134Y-115376882D01*
X173830520Y-115358378D01*
X173781503Y-115298475D01*
X173738497Y-115228693D01*
X173707658Y-115159909D01*
X173695141Y-115103002D01*
X173694899Y-115094741D01*
X173693099Y-115064471D01*
X173688392Y-115043563D01*
X173678544Y-115033669D01*
X173661323Y-115036444D01*
X173634494Y-115053540D01*
X173595824Y-115086610D01*
X173543080Y-115137307D01*
X173474028Y-115207285D01*
X173386434Y-115298197D01*
X173278065Y-115411695D01*
X173220342Y-115472280D01*
X173123855Y-115573718D01*
X173032568Y-115669889D01*
X172950059Y-115757013D01*
X172879906Y-115831311D01*
X172825685Y-115889003D01*
X172790974Y-115926310D01*
X172696092Y-116029539D01*
X172637449Y-115971052D01*
X172578805Y-115912566D01*
X173304179Y-115152237D01*
X173349916Y-115104263D01*
X173512633Y-114932940D01*
X173652313Y-114784738D01*
X173769373Y-114659198D01*
X173864233Y-114555861D01*
X173931309Y-114480967D01*
X174205947Y-114480967D01*
X174208106Y-114498589D01*
X174208483Y-114500430D01*
X174226480Y-114542171D01*
X174262428Y-114561620D01*
X174373237Y-114603083D01*
X174471963Y-114672156D01*
X174549611Y-114763524D01*
X174602828Y-114873195D01*
X174628258Y-114997173D01*
X174636681Y-115102105D01*
X175898482Y-115102105D01*
X175907280Y-115064506D01*
X175908836Y-115055279D01*
X175913672Y-115014018D01*
X175920271Y-114947304D01*
X175928142Y-114860453D01*
X175936797Y-114758777D01*
X175945743Y-114647592D01*
X175975409Y-114268277D01*
X175575532Y-113862198D01*
X175502187Y-113787961D01*
X175412447Y-113697837D01*
X175331940Y-113617775D01*
X175263488Y-113550542D01*
X175209917Y-113498910D01*
X175174052Y-113465646D01*
X175158715Y-113453521D01*
X175148431Y-113459314D01*
X175117801Y-113485675D01*
X175071705Y-113529709D01*
X175014265Y-113587444D01*
X174949605Y-113654911D01*
X174932738Y-113672804D01*
X174857107Y-113752839D01*
X174766984Y-113847977D01*
X174669155Y-113951067D01*
X174570405Y-114054956D01*
X174477520Y-114152493D01*
X174471940Y-114158346D01*
X174385584Y-114249214D01*
X174319690Y-114319577D01*
X174271651Y-114372783D01*
X174238863Y-114412177D01*
X174218720Y-114441108D01*
X174208616Y-114462922D01*
X174205947Y-114480967D01*
X173931309Y-114480967D01*
X173937311Y-114474266D01*
X173989026Y-114413955D01*
X174019796Y-114374466D01*
X174030040Y-114355342D01*
X174030041Y-114355229D01*
X174028636Y-114331394D01*
X174024531Y-114277967D01*
X174018048Y-114198584D01*
X174009508Y-114096880D01*
X173999233Y-113976493D01*
X173987544Y-113841057D01*
X173974763Y-113694211D01*
X173961212Y-113539590D01*
X173947212Y-113380830D01*
X173933085Y-113221568D01*
X173919153Y-113065441D01*
X173905736Y-112916083D01*
X173893157Y-112777133D01*
X173881738Y-112652226D01*
X173871799Y-112544998D01*
X173863662Y-112459087D01*
X173857650Y-112398127D01*
X173854083Y-112365756D01*
X173846891Y-112311538D01*
X174018573Y-112311538D01*
X174020772Y-112352630D01*
X174025611Y-112421735D01*
X174032848Y-112515870D01*
X174042241Y-112632053D01*
X174053547Y-112767299D01*
X174066523Y-112918627D01*
X174080929Y-113083054D01*
X174096521Y-113257597D01*
X174108710Y-113392206D01*
X174123976Y-113559145D01*
X174138269Y-113713618D01*
X174151305Y-113852649D01*
X174162800Y-113973264D01*
X174172470Y-114072489D01*
X174180030Y-114147348D01*
X174185197Y-114194867D01*
X174187686Y-114212072D01*
X174195236Y-114206742D01*
X174222922Y-114180578D01*
X174267909Y-114135637D01*
X174327100Y-114075191D01*
X174397399Y-114002509D01*
X174475708Y-113920864D01*
X174558930Y-113833526D01*
X174643969Y-113743767D01*
X174727727Y-113654858D01*
X174807107Y-113570070D01*
X174879013Y-113492673D01*
X174940347Y-113425941D01*
X174988013Y-113373142D01*
X175018913Y-113337550D01*
X175027941Y-113325186D01*
X175269574Y-113325186D01*
X175635971Y-113691299D01*
X175725569Y-113780679D01*
X175810013Y-113864320D01*
X175875427Y-113928027D01*
X175924208Y-113973868D01*
X175958753Y-114003909D01*
X175981459Y-114020218D01*
X175994722Y-114024862D01*
X176000940Y-114019908D01*
X176002509Y-114007423D01*
X176003515Y-113987363D01*
X176007140Y-113935712D01*
X176013130Y-113857320D01*
X176021198Y-113755759D01*
X176031055Y-113634602D01*
X176042413Y-113497421D01*
X176054984Y-113347787D01*
X176068480Y-113189271D01*
X176080395Y-113049563D01*
X176092811Y-112902414D01*
X176103943Y-112768805D01*
X176113526Y-112652028D01*
X176121290Y-112555378D01*
X176126969Y-112482145D01*
X176130297Y-112435624D01*
X176131004Y-112419106D01*
X176130444Y-112419416D01*
X176114663Y-112434623D01*
X176079606Y-112470303D01*
X176028363Y-112523220D01*
X175964019Y-112590139D01*
X175889664Y-112667823D01*
X175808385Y-112753036D01*
X175723270Y-112842541D01*
X175637406Y-112933102D01*
X175553881Y-113021483D01*
X175475784Y-113104448D01*
X175406202Y-113178760D01*
X175272141Y-113322434D01*
X175269574Y-113325186D01*
X175027941Y-113325186D01*
X175029951Y-113322434D01*
X175019131Y-113307785D01*
X174987674Y-113272722D01*
X174938503Y-113220265D01*
X174874544Y-113153372D01*
X174798723Y-113074999D01*
X174713967Y-112988103D01*
X174623202Y-112895641D01*
X174529356Y-112800569D01*
X174435354Y-112705845D01*
X174344124Y-112614424D01*
X174258591Y-112529265D01*
X174181683Y-112453323D01*
X174116326Y-112389556D01*
X174065446Y-112340920D01*
X174031970Y-112310372D01*
X174018824Y-112300868D01*
X174018573Y-112311538D01*
X173846891Y-112311538D01*
X173844663Y-112294737D01*
X173479079Y-112294737D01*
X173478870Y-112161052D01*
X173612763Y-112161052D01*
X173721382Y-112161052D01*
X173731045Y-112161044D01*
X173785604Y-112159880D01*
X173815276Y-112154902D01*
X173827571Y-112143477D01*
X173830000Y-112122971D01*
X173819301Y-112092829D01*
X173782654Y-112042687D01*
X173721382Y-111977237D01*
X173612763Y-111869584D01*
X173612763Y-112161052D01*
X173478870Y-112161052D01*
X173478641Y-112014835D01*
X173478204Y-111734934D01*
X172877885Y-111125000D01*
X172277567Y-110515066D01*
X172276744Y-110399337D01*
X172275921Y-110283610D01*
X172995969Y-111013449D01*
X173065564Y-111083944D01*
X173209975Y-111229828D01*
X173333442Y-111353875D01*
X173437560Y-111457611D01*
X173523925Y-111542562D01*
X173594132Y-111610256D01*
X173649776Y-111662219D01*
X173692452Y-111699977D01*
X173723756Y-111725057D01*
X173745282Y-111738986D01*
X173758625Y-111743289D01*
X173781125Y-111741986D01*
X173793756Y-111732468D01*
X173795934Y-111706427D01*
X173790697Y-111655559D01*
X173787086Y-111623533D01*
X173782061Y-111570002D01*
X173780037Y-111534408D01*
X173779045Y-111522138D01*
X173769386Y-111508996D01*
X173742703Y-111504641D01*
X173690902Y-111506542D01*
X173677676Y-111507287D01*
X173624733Y-111506447D01*
X173587073Y-111494813D01*
X173560529Y-111475921D01*
X173936974Y-111475921D01*
X173942504Y-111538585D01*
X173945058Y-111567017D01*
X173953018Y-111644642D01*
X173960861Y-111695769D01*
X173970031Y-111725711D01*
X173981973Y-111739780D01*
X173998129Y-111743289D01*
X174012656Y-111745679D01*
X174022289Y-111757098D01*
X174027672Y-111783645D01*
X174030015Y-111831414D01*
X174030526Y-111906502D01*
X174030526Y-112069715D01*
X174083948Y-112122971D01*
X174214342Y-112252960D01*
X174398158Y-112436206D01*
X174398158Y-112294737D01*
X175400790Y-112294737D01*
X175400790Y-112612237D01*
X174578827Y-112612237D01*
X174857589Y-112900493D01*
X174910984Y-112955548D01*
X174984817Y-113031120D01*
X175048929Y-113096082D01*
X175099961Y-113147060D01*
X175134557Y-113180681D01*
X175149357Y-113193574D01*
X175154983Y-113190018D01*
X175181363Y-113166118D01*
X175226849Y-113121862D01*
X175289012Y-113059708D01*
X175365422Y-112982115D01*
X175453649Y-112891540D01*
X175551262Y-112790441D01*
X175655833Y-112681275D01*
X175760940Y-112570964D01*
X175863974Y-112462246D01*
X175947530Y-112373136D01*
X176013654Y-112301271D01*
X176064387Y-112244289D01*
X176101775Y-112199828D01*
X176127860Y-112165525D01*
X176144687Y-112139017D01*
X176154298Y-112117942D01*
X176158739Y-112099939D01*
X176159916Y-112091169D01*
X176165136Y-112042847D01*
X176171742Y-111971707D01*
X176179008Y-111885861D01*
X176186207Y-111793421D01*
X176188648Y-111761225D01*
X176195701Y-111674236D01*
X176202425Y-111599203D01*
X176208160Y-111543255D01*
X176212240Y-111513520D01*
X176220242Y-111475921D01*
X173936974Y-111475921D01*
X173560529Y-111475921D01*
X173549956Y-111468396D01*
X173543563Y-111462835D01*
X173491285Y-111395487D01*
X173470581Y-111325526D01*
X173923481Y-111325526D01*
X175803306Y-111325526D01*
X176085921Y-111325526D01*
X176161706Y-111325526D01*
X176184412Y-111325366D01*
X176218054Y-111322442D01*
X176227766Y-111312970D01*
X176220227Y-111293267D01*
X176217999Y-111289511D01*
X176192990Y-111260623D01*
X176156757Y-111228563D01*
X176120613Y-111202560D01*
X176095874Y-111191842D01*
X176093650Y-111193536D01*
X176088131Y-111216810D01*
X176085921Y-111258684D01*
X176085921Y-111325526D01*
X175803306Y-111325526D01*
X175798397Y-111205007D01*
X175793487Y-111084488D01*
X175693224Y-111064348D01*
X175642943Y-111055214D01*
X175558975Y-111042425D01*
X175480165Y-111032776D01*
X175367368Y-111021345D01*
X175367368Y-111158421D01*
X174598684Y-111158421D01*
X174598684Y-111037596D01*
X174502599Y-111049065D01*
X174355787Y-111073646D01*
X174208032Y-111118089D01*
X174085814Y-111180062D01*
X173987062Y-111260413D01*
X173923481Y-111325526D01*
X173470581Y-111325526D01*
X173468281Y-111317754D01*
X173475328Y-111236211D01*
X173513203Y-111157434D01*
X173516868Y-111152529D01*
X173567486Y-111110327D01*
X173633474Y-111085365D01*
X173704607Y-111078725D01*
X173770664Y-111091492D01*
X173821419Y-111124750D01*
X173838604Y-111141729D01*
X173855345Y-111145844D01*
X173879318Y-111133115D01*
X173919799Y-111101332D01*
X173932219Y-111091564D01*
X174028111Y-111029911D01*
X174038832Y-111024737D01*
X174732368Y-111024737D01*
X175233684Y-111024737D01*
X175233684Y-110941184D01*
X174732368Y-110941184D01*
X174732368Y-111024737D01*
X174038832Y-111024737D01*
X174141715Y-110975084D01*
X174262453Y-110931033D01*
X174379746Y-110901706D01*
X174483017Y-110891052D01*
X174493988Y-110890968D01*
X174554970Y-110885031D01*
X174588460Y-110868385D01*
X174598684Y-110839133D01*
X174599885Y-110829917D01*
X174606449Y-110821991D01*
X174622391Y-110816189D01*
X174651719Y-110812181D01*
X174698440Y-110809639D01*
X174766559Y-110808230D01*
X174860086Y-110807628D01*
X174983026Y-110807500D01*
X175098219Y-110807725D01*
X175196126Y-110808635D01*
X175267800Y-110810469D01*
X175317001Y-110813466D01*
X175347490Y-110817863D01*
X175363025Y-110823898D01*
X175367368Y-110831808D01*
X175381653Y-110851232D01*
X175421678Y-110863627D01*
X175436997Y-110865796D01*
X175489230Y-110873430D01*
X175558737Y-110883778D01*
X175634737Y-110895240D01*
X175676651Y-110901075D01*
X175737992Y-110907394D01*
X175781273Y-110908918D01*
X175799057Y-110905197D01*
X175802094Y-110902773D01*
X175830130Y-110896785D01*
X175880564Y-110892617D01*
X175945274Y-110891052D01*
X176085921Y-110891052D01*
X176085937Y-110941184D01*
D11*
X155423641Y-98630000D02*
X155116359Y-98630000D01*
X155423641Y-97870000D02*
X155116359Y-97870000D01*
X154903641Y-99650000D02*
X154596359Y-99650000D01*
X154903641Y-98890000D02*
X154596359Y-98890000D01*
X142620000Y-108597836D02*
X142620000Y-108382164D01*
X143340000Y-108597836D02*
X143340000Y-108382164D01*
X158590000Y-107992164D02*
X158590000Y-108207836D01*
X157870000Y-107992164D02*
X157870000Y-108207836D01*
X149360000Y-82400000D02*
X149360000Y-81600000D01*
X149360000Y-82400000D02*
X149360000Y-83200000D01*
X146240000Y-82400000D02*
X146240000Y-80600000D01*
X146240000Y-82400000D02*
X146240000Y-83200000D01*
X159230000Y-81586359D02*
X159230000Y-81893641D01*
X158470000Y-81586359D02*
X158470000Y-81893641D01*
X169757500Y-94620000D02*
X168957500Y-94620000D01*
X169757500Y-94620000D02*
X170557500Y-94620000D01*
X169757500Y-97740000D02*
X167957500Y-97740000D01*
X169757500Y-97740000D02*
X170557500Y-97740000D01*
X162442164Y-102090000D02*
X162657836Y-102090000D01*
X162442164Y-102810000D02*
X162657836Y-102810000D01*
X175622164Y-87450000D02*
X175837836Y-87450000D01*
X175622164Y-88170000D02*
X175837836Y-88170000D01*
X174800000Y-95200000D02*
G75*
G03*
X174800000Y-95200000I-700000J0D01*
G01*
X160560000Y-107092164D02*
X160560000Y-107307836D01*
X159840000Y-107092164D02*
X159840000Y-107307836D01*
X160490000Y-82885000D02*
X160490000Y-85385000D01*
X160490000Y-85385000D02*
X161540000Y-85385000D01*
X161540000Y-85385000D02*
X161540000Y-86375000D01*
X161660000Y-80915000D02*
X167540000Y-80915000D01*
X168710000Y-82885000D02*
X168710000Y-85385000D01*
X168710000Y-85385000D02*
X167660000Y-85385000D01*
X143710000Y-108360000D02*
X143710000Y-109160000D01*
X143710000Y-108360000D02*
X143710000Y-107560000D01*
X146830000Y-108360000D02*
X146830000Y-110160000D01*
X146830000Y-108360000D02*
X146830000Y-107560000D01*
X165780000Y-97522164D02*
X165780000Y-97737836D01*
X165060000Y-97522164D02*
X165060000Y-97737836D01*
X151767836Y-110910000D02*
X151552164Y-110910000D01*
X151767836Y-110190000D02*
X151552164Y-110190000D01*
X162422164Y-104610000D02*
X162637836Y-104610000D01*
X162422164Y-105330000D02*
X162637836Y-105330000D01*
X140100000Y-87500000D02*
G75*
G03*
X140100000Y-87500000I-700000J0D01*
G01*
D13*
X161975000Y-108800000D02*
X161975000Y-110000000D01*
X164975000Y-110350000D02*
X162075000Y-110350000D01*
X162075000Y-110350000D02*
X162075000Y-110950000D01*
X164975000Y-110950000D02*
X164975000Y-110350000D01*
X162075000Y-110950000D02*
X164975000Y-110950000D01*
D11*
X149160000Y-108102164D02*
X149160000Y-108317836D01*
X148440000Y-108102164D02*
X148440000Y-108317836D01*
X156610000Y-107310000D02*
X156610000Y-106835000D01*
X156135000Y-107310000D02*
X156610000Y-107310000D01*
X156135000Y-102090000D02*
X156610000Y-102090000D01*
X151865000Y-107310000D02*
X151390000Y-107310000D01*
X151865000Y-102090000D02*
X151390000Y-102090000D01*
X151390000Y-107310000D02*
X151390000Y-106835000D01*
X151390000Y-102090000D02*
X151390000Y-102565000D01*
X162805000Y-114596359D02*
X162805000Y-114903641D01*
X162045000Y-114596359D02*
X162045000Y-114903641D01*
D13*
X160690000Y-101400000D02*
X160690000Y-101400000D01*
X160490000Y-101400000D02*
X160490000Y-101400000D01*
D14*
X161340000Y-103200000D02*
X161340000Y-104200000D01*
X159840000Y-103200000D02*
X159840000Y-104200000D01*
D13*
X160490000Y-101400000D02*
G75*
G03*
X160690000Y-101400000I100000J0D01*
G01*
X160690000Y-101400000D02*
G75*
G03*
X160490000Y-101400000I-100000J0D01*
G01*
D11*
X165365000Y-110257836D02*
X165365000Y-110042164D01*
X166085000Y-110257836D02*
X166085000Y-110042164D01*
X141965000Y-85040000D02*
X141965000Y-85765000D01*
X142690000Y-85040000D02*
X141965000Y-85040000D01*
X142690000Y-89260000D02*
X141965000Y-89260000D01*
X145460000Y-85040000D02*
X146185000Y-85040000D01*
X145460000Y-89260000D02*
X146185000Y-89260000D01*
X146185000Y-85040000D02*
X146185000Y-85765000D01*
X146185000Y-89260000D02*
X146185000Y-88535000D01*
X147990000Y-115800000D02*
X147990000Y-111800000D01*
X152210000Y-113800000D02*
X152210000Y-111800000D01*
X164245000Y-114903641D02*
X164245000Y-114596359D01*
X165005000Y-114903641D02*
X165005000Y-114596359D01*
X165780000Y-95402164D02*
X165780000Y-95617836D01*
X165060000Y-95402164D02*
X165060000Y-95617836D01*
X156240000Y-81586359D02*
X156240000Y-81893641D01*
X155480000Y-81586359D02*
X155480000Y-81893641D01*
X148120000Y-108102164D02*
X148120000Y-108317836D01*
X147400000Y-108102164D02*
X147400000Y-108317836D01*
X150400000Y-90600000D02*
G75*
G03*
X150400000Y-90600000I-700000J0D01*
G01*
X143000000Y-105500000D02*
G75*
G03*
X143000000Y-105500000I-700000J0D01*
G01*
X148136359Y-86450000D02*
X148443641Y-86450000D01*
X148136359Y-87210000D02*
X148443641Y-87210000D01*
X156667836Y-101510000D02*
X156452164Y-101510000D01*
X156667836Y-100790000D02*
X156452164Y-100790000D01*
X145410000Y-117215000D02*
X145410000Y-114715000D01*
X145410000Y-114715000D02*
X144360000Y-114715000D01*
X144360000Y-114715000D02*
X144360000Y-113725000D01*
X144240000Y-119185000D02*
X140360000Y-119185000D01*
X139190000Y-117215000D02*
X139190000Y-114715000D01*
X139190000Y-114715000D02*
X140240000Y-114715000D01*
X166472164Y-87090000D02*
X166687836Y-87090000D01*
X166472164Y-87810000D02*
X166687836Y-87810000D01*
X165085000Y-117567500D02*
X165085000Y-116917500D01*
X165085000Y-117567500D02*
X165085000Y-118217500D01*
X161965000Y-117567500D02*
X161965000Y-115892500D01*
X161965000Y-117567500D02*
X161965000Y-118217500D01*
X158853641Y-107080000D02*
X158546359Y-107080000D01*
X158853641Y-106320000D02*
X158546359Y-106320000D01*
X140100000Y-91500000D02*
G75*
G03*
X140100000Y-91500000I-700000J0D01*
G01*
X150210000Y-108092164D02*
X150210000Y-108307836D01*
X149490000Y-108092164D02*
X149490000Y-108307836D01*
X163165000Y-114857836D02*
X163165000Y-114642164D01*
X163885000Y-114857836D02*
X163885000Y-114642164D01*
X150203641Y-117290000D02*
X149896359Y-117290000D01*
X150203641Y-116530000D02*
X149896359Y-116530000D01*
%LPC*%
D15*
X166099999Y-118399999D03*
X160899999Y-118399999D03*
D16*
X160490000Y-86562500D03*
X154710000Y-86562500D03*
D17*
X160762500Y-93375000D03*
X160762500Y-93725000D03*
X160762500Y-94075000D03*
X160762500Y-94425000D03*
D18*
X160350000Y-94662500D03*
X160000000Y-94662500D03*
X159650000Y-94662500D03*
D17*
X159237500Y-94425000D03*
X159237500Y-94075000D03*
X159237500Y-93725000D03*
X159237500Y-93375000D03*
D18*
X159650000Y-93137500D03*
X160000000Y-93137500D03*
X160350000Y-93137500D03*
D19*
X172240000Y-94060000D03*
X171280000Y-94060000D03*
D20*
X158240000Y-94430000D03*
X158240000Y-93470000D03*
D21*
X173230000Y-85600000D03*
X174230000Y-85600000D03*
X175230000Y-85600000D03*
X176230000Y-85600000D03*
D22*
X171930000Y-81725000D03*
X177530000Y-81725000D03*
D23*
X155780000Y-98250000D03*
X154760000Y-98250000D03*
X155260000Y-99270000D03*
X154240000Y-99270000D03*
D24*
X167275000Y-97130000D03*
X166305000Y-97130000D03*
D20*
X142980000Y-108970000D03*
X142980000Y-108010000D03*
D25*
X158230000Y-107620000D03*
X158230000Y-108580000D03*
D26*
X146850000Y-81262500D03*
X147800000Y-81262500D03*
X148750000Y-81262500D03*
X148750000Y-83537500D03*
X147800000Y-83537500D03*
X146850000Y-83537500D03*
D27*
X158850000Y-81230000D03*
X158850000Y-82250000D03*
D28*
X168620000Y-97130000D03*
X168620000Y-96180000D03*
X168620000Y-95230000D03*
X170895000Y-95230000D03*
X170895000Y-97130000D03*
D29*
X162070000Y-102450000D03*
X163030000Y-102450000D03*
X175250000Y-87810000D03*
X176210000Y-87810000D03*
D30*
X174100000Y-95200000D03*
D25*
X160200000Y-106720000D03*
X160200000Y-107680000D03*
D21*
X162100000Y-85600000D03*
X163100000Y-85600000D03*
X164100000Y-85600000D03*
X165100000Y-85600000D03*
X166100000Y-85600000D03*
X167100000Y-85600000D03*
D22*
X160800000Y-81725000D03*
X168400000Y-81725000D03*
D31*
X146220000Y-109497500D03*
X145270000Y-109497500D03*
X144320000Y-109497500D03*
X144320000Y-107222500D03*
X146220000Y-107222500D03*
D25*
X165420000Y-97150000D03*
X165420000Y-98110000D03*
D19*
X152140000Y-110550000D03*
X151180000Y-110550000D03*
D29*
X162050000Y-104970000D03*
X163010000Y-104970000D03*
D30*
X139400000Y-87500000D03*
D32*
X162549999Y-109399999D03*
X163199999Y-109399999D03*
X163849999Y-109399999D03*
X164499999Y-109399999D03*
X164499999Y-111899999D03*
X163849999Y-111899999D03*
X163199999Y-111899999D03*
X162549999Y-111899999D03*
D25*
X148800000Y-107730000D03*
X148800000Y-108690000D03*
D33*
X156437500Y-102950000D03*
X156437500Y-103450000D03*
X156437500Y-103950000D03*
X156437500Y-104450000D03*
X156437500Y-104950000D03*
X156437500Y-105450000D03*
X156437500Y-105950000D03*
X156437500Y-106450000D03*
D34*
X155750000Y-107137500D03*
X155250000Y-107137500D03*
X154750000Y-107137500D03*
X154250000Y-107137500D03*
X153750000Y-107137500D03*
X153250000Y-107137500D03*
X152750000Y-107137500D03*
X152250000Y-107137500D03*
D33*
X151562500Y-106450000D03*
X151562500Y-105950000D03*
X151562500Y-105450000D03*
X151562500Y-104950000D03*
X151562500Y-104450000D03*
X151562500Y-103950000D03*
X151562500Y-103450000D03*
X151562500Y-102950000D03*
D34*
X152250000Y-102262500D03*
X152750000Y-102262500D03*
X153250000Y-102262500D03*
X153750000Y-102262500D03*
X154250000Y-102262500D03*
X154750000Y-102262500D03*
X155250000Y-102262500D03*
X155750000Y-102262500D03*
D35*
X153999999Y-104699999D03*
D27*
X162425000Y-114240000D03*
X162425000Y-115260000D03*
D36*
X160589999Y-102449999D03*
X160589999Y-104949999D03*
D20*
X165725000Y-110630000D03*
X165725000Y-109670000D03*
D37*
X142125000Y-88125000D03*
X142125000Y-87475000D03*
X142125000Y-86825000D03*
X142125000Y-86175000D03*
D38*
X143100000Y-85200000D03*
X143750000Y-85200000D03*
X144400000Y-85200000D03*
X145050000Y-85200000D03*
D37*
X146025000Y-86175000D03*
X146025000Y-86825000D03*
X146025000Y-87475000D03*
X146025000Y-88125000D03*
D38*
X145050000Y-89100000D03*
X144400000Y-89100000D03*
X143750000Y-89100000D03*
X143100000Y-89100000D03*
D39*
X144074999Y-87149999D03*
D40*
X151300000Y-115450000D03*
X150500000Y-115450000D03*
X149700000Y-115450000D03*
X148900000Y-115450000D03*
X148900000Y-112150000D03*
X149700000Y-112150000D03*
X150500000Y-112150000D03*
X151300000Y-112150000D03*
D41*
X150099999Y-113799999D03*
D42*
X164625000Y-115260000D03*
X164625000Y-114240000D03*
D25*
X165420000Y-95030000D03*
X165420000Y-95990000D03*
D27*
X155860000Y-81230000D03*
X155860000Y-82250000D03*
D25*
X147760000Y-107730000D03*
X147760000Y-108690000D03*
D30*
X149700000Y-90600000D03*
X142300000Y-105500000D03*
D43*
X147780000Y-86830000D03*
X148800000Y-86830000D03*
D19*
X157040000Y-101150000D03*
X156080000Y-101150000D03*
D44*
X143800000Y-114500000D03*
X142800000Y-114500000D03*
X141800000Y-114500000D03*
X140800000Y-114500000D03*
D45*
X145100000Y-118375000D03*
X139500000Y-118375000D03*
D29*
X166100000Y-87450000D03*
X167060000Y-87450000D03*
D46*
X162575000Y-116630000D03*
X164475000Y-116630000D03*
X163525000Y-118505000D03*
D23*
X159210000Y-106700000D03*
X158190000Y-106700000D03*
D30*
X139400000Y-91500000D03*
D25*
X149850000Y-107720000D03*
X149850000Y-108680000D03*
D20*
X163525000Y-115230000D03*
X163525000Y-114270000D03*
D23*
X150560000Y-116910000D03*
X149540000Y-116910000D03*
M02*
