%TF.GenerationSoftware,KiCad,Pcbnew,(7.0.0)*%
%TF.CreationDate,2023-03-08T15:34:54+02:00*%
%TF.ProjectId,SARA-R4_DevBoard,53415241-2d52-4345-9f44-6576426f6172,rev?*%
%TF.SameCoordinates,Original*%
%TF.FileFunction,Drillmap*%
%TF.FilePolarity,Positive*%
%FSLAX45Y45*%
G04 Gerber Fmt 4.5, Leading zero omitted, Abs format (unit mm)*
G04 Created by KiCad (PCBNEW (7.0.0)) date 2023-03-08 15:34:54*
%MOMM*%
%LPD*%
G01*
G04 APERTURE LIST*
%ADD10C,0.100000*%
%ADD11C,0.200000*%
%ADD12C,0.020000*%
%ADD13C,0.040000*%
G04 APERTURE END LIST*
D10*
X18000000Y-12000000D02*
X18000000Y-8000000D01*
X12000000Y-8000000D02*
X12000000Y-12000000D01*
X12000000Y-8000000D02*
X18000000Y-8000000D01*
X12000000Y-12000000D02*
X18000000Y-12000000D01*
D11*
D12*
X14082500Y-8737500D02*
X14102500Y-8757500D01*
X14102500Y-8737500D02*
X14082500Y-8757500D01*
X14083000Y-8625000D02*
X14103000Y-8645000D01*
X14103000Y-8625000D02*
X14083000Y-8645000D01*
X14170000Y-11310000D02*
X14190000Y-11330000D01*
X14190000Y-11310000D02*
X14170000Y-11330000D01*
X14200000Y-9220000D02*
X14220000Y-9240000D01*
X14220000Y-9220000D02*
X14200000Y-9240000D01*
X14203000Y-9028000D02*
X14223000Y-9048000D01*
X14223000Y-9028000D02*
X14203000Y-9048000D01*
X14230000Y-8490000D02*
X14250000Y-8510000D01*
X14250000Y-8490000D02*
X14230000Y-8510000D01*
X14270000Y-11310000D02*
X14290000Y-11330000D01*
X14290000Y-11310000D02*
X14270000Y-11330000D01*
X14350000Y-8660000D02*
X14370000Y-8680000D01*
X14370000Y-8660000D02*
X14350000Y-8680000D01*
X14350000Y-8740000D02*
X14370000Y-8760000D01*
X14370000Y-8740000D02*
X14350000Y-8760000D01*
X14440000Y-8660000D02*
X14460000Y-8680000D01*
X14460000Y-8660000D02*
X14440000Y-8680000D01*
X14440000Y-8740000D02*
X14460000Y-8760000D01*
X14460000Y-8740000D02*
X14440000Y-8760000D01*
X14497000Y-9069000D02*
X14517000Y-9089000D01*
X14517000Y-9069000D02*
X14497000Y-9089000D01*
X14521000Y-10782000D02*
X14541000Y-10802000D01*
X14541000Y-10782000D02*
X14521000Y-10802000D01*
X14560000Y-10050000D02*
X14580000Y-10070000D01*
X14580000Y-10050000D02*
X14560000Y-10070000D01*
X14590000Y-8190000D02*
X14610000Y-8210000D01*
X14610000Y-8190000D02*
X14590000Y-8210000D01*
X14755000Y-10285000D02*
X14775000Y-10305000D01*
X14775000Y-10285000D02*
X14755000Y-10305000D01*
X14770000Y-8220000D02*
X14790000Y-8240000D01*
X14790000Y-8220000D02*
X14770000Y-8240000D01*
X14804000Y-10585000D02*
X14824000Y-10605000D01*
X14824000Y-10585000D02*
X14804000Y-10605000D01*
X14820000Y-11533000D02*
X14840000Y-11553000D01*
X14840000Y-11533000D02*
X14820000Y-11553000D01*
X14850000Y-10335000D02*
X14870000Y-10355000D01*
X14870000Y-10335000D02*
X14850000Y-10355000D01*
X14946000Y-10077000D02*
X14966000Y-10097000D01*
X14966000Y-10077000D02*
X14946000Y-10097000D01*
X14946000Y-10436000D02*
X14966000Y-10456000D01*
X14966000Y-10436000D02*
X14946000Y-10456000D01*
X14997000Y-10385000D02*
X15017000Y-10405000D01*
X15017000Y-10385000D02*
X14997000Y-10405000D01*
X15097000Y-11106000D02*
X15117000Y-11126000D01*
X15117000Y-11106000D02*
X15097000Y-11126000D01*
X15098000Y-11681000D02*
X15118000Y-11701000D01*
X15118000Y-11681000D02*
X15098000Y-11701000D01*
X15170000Y-10840000D02*
X15190000Y-10860000D01*
X15190000Y-10840000D02*
X15170000Y-10860000D01*
X15190000Y-11090000D02*
X15210000Y-11110000D01*
X15210000Y-11090000D02*
X15190000Y-11110000D01*
X15250000Y-10840000D02*
X15270000Y-10860000D01*
X15270000Y-10840000D02*
X15250000Y-10860000D01*
X15291000Y-10360000D02*
X15311000Y-10380000D01*
X15311000Y-10360000D02*
X15291000Y-10380000D01*
X15291000Y-10459000D02*
X15311000Y-10479000D01*
X15311000Y-10459000D02*
X15291000Y-10479000D01*
X15291000Y-10560000D02*
X15311000Y-10580000D01*
X15311000Y-10560000D02*
X15291000Y-10580000D01*
X15383000Y-11265000D02*
X15403000Y-11285000D01*
X15403000Y-11265000D02*
X15383000Y-11285000D01*
X15390000Y-10361000D02*
X15410000Y-10381000D01*
X15410000Y-10361000D02*
X15390000Y-10381000D01*
X15390000Y-10460000D02*
X15410000Y-10480000D01*
X15410000Y-10460000D02*
X15390000Y-10480000D01*
X15390000Y-10561000D02*
X15410000Y-10581000D01*
X15410000Y-10561000D02*
X15390000Y-10581000D01*
X15415000Y-10835000D02*
X15435000Y-10855000D01*
X15435000Y-10835000D02*
X15415000Y-10855000D01*
X15415000Y-11103000D02*
X15435000Y-11123000D01*
X15435000Y-11103000D02*
X15415000Y-11123000D01*
X15427000Y-9377000D02*
X15447000Y-9397000D01*
X15447000Y-9377000D02*
X15427000Y-9397000D01*
X15489000Y-10361000D02*
X15509000Y-10381000D01*
X15509000Y-10361000D02*
X15489000Y-10381000D01*
X15489000Y-10460000D02*
X15509000Y-10480000D01*
X15509000Y-10460000D02*
X15489000Y-10480000D01*
X15489000Y-10561000D02*
X15509000Y-10581000D01*
X15509000Y-10561000D02*
X15489000Y-10581000D01*
X15495000Y-11265000D02*
X15515000Y-11285000D01*
X15515000Y-11265000D02*
X15495000Y-11285000D01*
X15516000Y-10072000D02*
X15536000Y-10092000D01*
X15536000Y-10072000D02*
X15516000Y-10092000D01*
X15575000Y-8288000D02*
X15595000Y-8308000D01*
X15595000Y-8288000D02*
X15575000Y-8308000D01*
X15586000Y-9216000D02*
X15606000Y-9236000D01*
X15606000Y-9216000D02*
X15586000Y-9236000D01*
X15605000Y-11265000D02*
X15625000Y-11285000D01*
X15625000Y-11265000D02*
X15605000Y-11285000D01*
X15680000Y-8430000D02*
X15700000Y-8450000D01*
X15700000Y-8430000D02*
X15680000Y-8450000D01*
X15695000Y-9109000D02*
X15715000Y-9129000D01*
X15715000Y-9109000D02*
X15695000Y-9129000D01*
X15715000Y-11265000D02*
X15735000Y-11285000D01*
X15735000Y-11265000D02*
X15715000Y-11285000D01*
X15716000Y-9874000D02*
X15736000Y-9894000D01*
X15736000Y-9874000D02*
X15716000Y-9894000D01*
X15770000Y-8430000D02*
X15790000Y-8450000D01*
X15790000Y-8430000D02*
X15770000Y-8450000D01*
X15825000Y-9874000D02*
X15845000Y-9894000D01*
X15845000Y-9874000D02*
X15825000Y-9894000D01*
X15830000Y-10910000D02*
X15850000Y-10930000D01*
X15850000Y-10910000D02*
X15830000Y-10930000D01*
X15875000Y-8288000D02*
X15895000Y-8308000D01*
X15895000Y-8288000D02*
X15875000Y-8308000D01*
X15880000Y-10850000D02*
X15900000Y-10870000D01*
X15900000Y-10850000D02*
X15880000Y-10870000D01*
X15990000Y-9380000D02*
X16010000Y-9400000D01*
X16010000Y-9380000D02*
X15990000Y-9400000D01*
X15990000Y-9631000D02*
X16010000Y-9651000D01*
X16010000Y-9631000D02*
X15990000Y-9651000D01*
X16010000Y-10840000D02*
X16030000Y-10860000D01*
X16030000Y-10840000D02*
X16010000Y-10860000D01*
X16012000Y-11117000D02*
X16032000Y-11137000D01*
X16032000Y-11117000D02*
X16012000Y-11137000D01*
X16020000Y-10590000D02*
X16040000Y-10610000D01*
X16040000Y-10590000D02*
X16020000Y-10610000D01*
X16090000Y-10130000D02*
X16110000Y-10150000D01*
X16110000Y-10130000D02*
X16090000Y-10150000D01*
X16090000Y-10360000D02*
X16110000Y-10380000D01*
X16110000Y-10360000D02*
X16090000Y-10380000D01*
X16090000Y-10590000D02*
X16110000Y-10610000D01*
X16110000Y-10590000D02*
X16090000Y-10610000D01*
X16090000Y-10660000D02*
X16110000Y-10680000D01*
X16110000Y-10660000D02*
X16090000Y-10680000D01*
X16090000Y-10840000D02*
X16110000Y-10860000D01*
X16110000Y-10840000D02*
X16090000Y-10860000D01*
X16128000Y-8920000D02*
X16148000Y-8940000D01*
X16148000Y-8920000D02*
X16128000Y-8940000D01*
X16128000Y-9058000D02*
X16148000Y-9078000D01*
X16148000Y-9058000D02*
X16128000Y-9078000D01*
X16130000Y-10720000D02*
X16150000Y-10740000D01*
X16150000Y-10720000D02*
X16130000Y-10740000D01*
X16160000Y-10130000D02*
X16180000Y-10150000D01*
X16180000Y-10130000D02*
X16160000Y-10150000D01*
X16160000Y-10360000D02*
X16180000Y-10380000D01*
X16180000Y-10360000D02*
X16160000Y-10380000D01*
X16160000Y-10590000D02*
X16180000Y-10610000D01*
X16180000Y-10590000D02*
X16160000Y-10610000D01*
X16230000Y-10150000D02*
X16250000Y-10170000D01*
X16250000Y-10150000D02*
X16230000Y-10170000D01*
X16230000Y-10570000D02*
X16250000Y-10590000D01*
X16250000Y-10570000D02*
X16230000Y-10590000D01*
X16246500Y-11790000D02*
X16266500Y-11810000D01*
X16266500Y-11790000D02*
X16246500Y-11810000D01*
X16246500Y-11891000D02*
X16266500Y-11911000D01*
X16266500Y-11891000D02*
X16246500Y-11911000D01*
X16250000Y-10320000D02*
X16270000Y-10340000D01*
X16270000Y-10320000D02*
X16250000Y-10340000D01*
X16250000Y-10400000D02*
X16270000Y-10420000D01*
X16270000Y-10400000D02*
X16250000Y-10420000D01*
X16270000Y-10770000D02*
X16290000Y-10790000D01*
X16290000Y-10770000D02*
X16270000Y-10790000D01*
X16310000Y-10160000D02*
X16330000Y-10180000D01*
X16330000Y-10160000D02*
X16310000Y-10180000D01*
X16310000Y-10360000D02*
X16330000Y-10380000D01*
X16330000Y-10360000D02*
X16310000Y-10380000D01*
X16310000Y-10560000D02*
X16330000Y-10580000D01*
X16330000Y-10560000D02*
X16310000Y-10580000D01*
X16342500Y-11601000D02*
X16362500Y-11621000D01*
X16362500Y-11601000D02*
X16342500Y-11621000D01*
X16342500Y-11703000D02*
X16362500Y-11723000D01*
X16362500Y-11703000D02*
X16342500Y-11723000D01*
X16370000Y-10160000D02*
X16390000Y-10180000D01*
X16390000Y-10160000D02*
X16370000Y-10180000D01*
X16370000Y-10360000D02*
X16390000Y-10380000D01*
X16390000Y-10360000D02*
X16370000Y-10380000D01*
X16370000Y-10560000D02*
X16390000Y-10580000D01*
X16390000Y-10560000D02*
X16370000Y-10580000D01*
X16410000Y-9190000D02*
X16430000Y-9210000D01*
X16430000Y-9190000D02*
X16410000Y-9210000D01*
X16410000Y-9320000D02*
X16430000Y-9340000D01*
X16430000Y-9320000D02*
X16410000Y-9340000D01*
X16438500Y-11789000D02*
X16458500Y-11809000D01*
X16458500Y-11789000D02*
X16438500Y-11809000D01*
X16438500Y-11891000D02*
X16458500Y-11911000D01*
X16458500Y-11891000D02*
X16438500Y-11911000D01*
X16501000Y-8823000D02*
X16521000Y-8843000D01*
X16521000Y-8823000D02*
X16501000Y-8843000D01*
X16501000Y-9025000D02*
X16521000Y-9045000D01*
X16521000Y-9025000D02*
X16501000Y-9045000D01*
X16502000Y-8744000D02*
X16522000Y-8764000D01*
X16522000Y-8744000D02*
X16502000Y-8764000D01*
X16562500Y-10885000D02*
X16582500Y-10905000D01*
X16582500Y-10885000D02*
X16562500Y-10905000D01*
X16571000Y-8823000D02*
X16591000Y-8843000D01*
X16591000Y-8823000D02*
X16571000Y-8843000D01*
X16619000Y-9612000D02*
X16639000Y-9632000D01*
X16639000Y-9612000D02*
X16619000Y-9632000D01*
X16720000Y-9790000D02*
X16740000Y-9810000D01*
X16740000Y-9790000D02*
X16720000Y-9810000D01*
X16720000Y-9900000D02*
X16740000Y-9920000D01*
X16740000Y-9900000D02*
X16720000Y-9920000D01*
X16810000Y-9790000D02*
X16830000Y-9810000D01*
X16830000Y-9790000D02*
X16810000Y-9810000D01*
X16810000Y-9900000D02*
X16830000Y-9920000D01*
X16830000Y-9900000D02*
X16810000Y-9920000D01*
X16810000Y-10020000D02*
X16830000Y-10040000D01*
X16830000Y-10020000D02*
X16810000Y-10040000D01*
X16810000Y-10240000D02*
X16830000Y-10260000D01*
X16830000Y-10240000D02*
X16810000Y-10260000D01*
X16890000Y-9790000D02*
X16910000Y-9810000D01*
X16910000Y-9790000D02*
X16890000Y-9810000D01*
X16890000Y-9900000D02*
X16910000Y-9920000D01*
X16910000Y-9900000D02*
X16890000Y-9920000D01*
X16890000Y-10020000D02*
X16910000Y-10040000D01*
X16910000Y-10020000D02*
X16890000Y-10040000D01*
X16890000Y-10320000D02*
X16910000Y-10340000D01*
X16910000Y-10320000D02*
X16890000Y-10340000D01*
X17000000Y-10020000D02*
X17020000Y-10040000D01*
X17020000Y-10020000D02*
X17000000Y-10040000D01*
X17000000Y-10240000D02*
X17020000Y-10260000D01*
X17020000Y-10240000D02*
X17000000Y-10260000D01*
X17070000Y-9800000D02*
X17090000Y-9820000D01*
X17090000Y-9800000D02*
X17070000Y-9820000D01*
X17070000Y-9930000D02*
X17090000Y-9950000D01*
X17090000Y-9930000D02*
X17070000Y-9950000D01*
X17070000Y-10320000D02*
X17090000Y-10340000D01*
X17090000Y-10320000D02*
X17070000Y-10340000D01*
X17130000Y-10020000D02*
X17150000Y-10040000D01*
X17150000Y-10020000D02*
X17130000Y-10040000D01*
X17130000Y-10240000D02*
X17150000Y-10260000D01*
X17150000Y-10240000D02*
X17130000Y-10260000D01*
X17280000Y-9900000D02*
X17300000Y-9920000D01*
X17300000Y-9900000D02*
X17280000Y-9920000D01*
X17280000Y-10020000D02*
X17300000Y-10040000D01*
X17300000Y-10020000D02*
X17280000Y-10040000D01*
X17280000Y-10320000D02*
X17300000Y-10340000D01*
X17300000Y-10320000D02*
X17280000Y-10340000D01*
X17330000Y-9810000D02*
X17350000Y-9830000D01*
X17350000Y-9810000D02*
X17330000Y-9830000D01*
X17330000Y-10490000D02*
X17350000Y-10510000D01*
X17350000Y-10490000D02*
X17330000Y-10510000D01*
X17410000Y-9690000D02*
X17430000Y-9710000D01*
X17430000Y-9690000D02*
X17410000Y-9710000D01*
X17455000Y-10622000D02*
X17475000Y-10642000D01*
X17475000Y-10622000D02*
X17455000Y-10642000D01*
X17470000Y-9810000D02*
X17490000Y-9830000D01*
X17490000Y-9810000D02*
X17470000Y-9830000D01*
X17570000Y-9690000D02*
X17590000Y-9710000D01*
X17590000Y-9690000D02*
X17570000Y-9710000D01*
X17612000Y-8418000D02*
X17632000Y-8438000D01*
X17632000Y-8418000D02*
X17612000Y-8438000D01*
X17630000Y-9810000D02*
X17650000Y-9830000D01*
X17650000Y-9810000D02*
X17630000Y-9830000D01*
X17631000Y-10622000D02*
X17651000Y-10642000D01*
X17651000Y-10622000D02*
X17631000Y-10642000D01*
X17699000Y-8599000D02*
X17719000Y-8619000D01*
X17719000Y-8599000D02*
X17699000Y-8619000D01*
X17700000Y-8494000D02*
X17720000Y-8514000D01*
X17720000Y-8494000D02*
X17700000Y-8514000D01*
X17740000Y-9690000D02*
X17760000Y-9710000D01*
X17760000Y-9690000D02*
X17740000Y-9710000D01*
X17780000Y-9810000D02*
X17800000Y-9830000D01*
X17800000Y-9810000D02*
X17780000Y-9830000D01*
X17780000Y-10622000D02*
X17800000Y-10642000D01*
X17800000Y-10622000D02*
X17780000Y-10642000D01*
X17895000Y-10621000D02*
X17915000Y-10641000D01*
X17915000Y-10621000D02*
X17895000Y-10641000D01*
X17910000Y-9810000D02*
X17930000Y-9830000D01*
X17930000Y-9810000D02*
X17910000Y-9830000D01*
D13*
X13520000Y-8100000D02*
G75*
G03*
X13520000Y-8100000I-20000J0D01*
G01*
X13520000Y-8400000D02*
G75*
G03*
X13520000Y-8400000I-20000J0D01*
G01*
X13520000Y-8700000D02*
G75*
G03*
X13520000Y-8700000I-20000J0D01*
G01*
X13520000Y-9000000D02*
G75*
G03*
X13520000Y-9000000I-20000J0D01*
G01*
X13520000Y-9300000D02*
G75*
G03*
X13520000Y-9300000I-20000J0D01*
G01*
X13520000Y-9600000D02*
G75*
G03*
X13520000Y-9600000I-20000J0D01*
G01*
X13520000Y-9900000D02*
G75*
G03*
X13520000Y-9900000I-20000J0D01*
G01*
X13520000Y-10100000D02*
G75*
G03*
X13520000Y-10100000I-20000J0D01*
G01*
X13520000Y-10500000D02*
G75*
G03*
X13520000Y-10500000I-20000J0D01*
G01*
X13520000Y-10700000D02*
G75*
G03*
X13520000Y-10700000I-20000J0D01*
G01*
X13520000Y-10900000D02*
G75*
G03*
X13520000Y-10900000I-20000J0D01*
G01*
X13520000Y-11100000D02*
G75*
G03*
X13520000Y-11100000I-20000J0D01*
G01*
X13520000Y-11300000D02*
G75*
G03*
X13520000Y-11300000I-20000J0D01*
G01*
X13520000Y-11500000D02*
G75*
G03*
X13520000Y-11500000I-20000J0D01*
G01*
X13520000Y-11700000D02*
G75*
G03*
X13520000Y-11700000I-20000J0D01*
G01*
X13520000Y-11900000D02*
G75*
G03*
X13520000Y-11900000I-20000J0D01*
G01*
X13660000Y-9000000D02*
G75*
G03*
X13660000Y-9000000I-20000J0D01*
G01*
X13720000Y-9300000D02*
G75*
G03*
X13720000Y-9300000I-20000J0D01*
G01*
X13720000Y-9600000D02*
G75*
G03*
X13720000Y-9600000I-20000J0D01*
G01*
X13720000Y-9900000D02*
G75*
G03*
X13720000Y-9900000I-20000J0D01*
G01*
X13720000Y-10100000D02*
G75*
G03*
X13720000Y-10100000I-20000J0D01*
G01*
X13720000Y-10700000D02*
G75*
G03*
X13720000Y-10700000I-20000J0D01*
G01*
X13720000Y-10900000D02*
G75*
G03*
X13720000Y-10900000I-20000J0D01*
G01*
X13720000Y-11100000D02*
G75*
G03*
X13720000Y-11100000I-20000J0D01*
G01*
X13720000Y-11300000D02*
G75*
G03*
X13720000Y-11300000I-20000J0D01*
G01*
X13720000Y-11500000D02*
G75*
G03*
X13720000Y-11500000I-20000J0D01*
G01*
X13720000Y-11700000D02*
G75*
G03*
X13720000Y-11700000I-20000J0D01*
G01*
X13780000Y-9000000D02*
G75*
G03*
X13780000Y-9000000I-20000J0D01*
G01*
X13820000Y-11900000D02*
G75*
G03*
X13820000Y-11900000I-20000J0D01*
G01*
X13900000Y-9000000D02*
G75*
G03*
X13900000Y-9000000I-20000J0D01*
G01*
X13920000Y-9300000D02*
G75*
G03*
X13920000Y-9300000I-20000J0D01*
G01*
X13920000Y-9600000D02*
G75*
G03*
X13920000Y-9600000I-20000J0D01*
G01*
X13920000Y-9900000D02*
G75*
G03*
X13920000Y-9900000I-20000J0D01*
G01*
X13920000Y-10100000D02*
G75*
G03*
X13920000Y-10100000I-20000J0D01*
G01*
X13920000Y-10700000D02*
G75*
G03*
X13920000Y-10700000I-20000J0D01*
G01*
X13920000Y-11300000D02*
G75*
G03*
X13920000Y-11300000I-20000J0D01*
G01*
X13992000Y-11518000D02*
G75*
G03*
X13992000Y-11518000I-20000J0D01*
G01*
X13993000Y-11409000D02*
G75*
G03*
X13993000Y-11409000I-20000J0D01*
G01*
X14040000Y-9348000D02*
G75*
G03*
X14040000Y-9348000I-20000J0D01*
G01*
X14040000Y-9510000D02*
G75*
G03*
X14040000Y-9510000I-20000J0D01*
G01*
X14040000Y-10952000D02*
G75*
G03*
X14040000Y-10952000I-20000J0D01*
G01*
X14040000Y-11060000D02*
G75*
G03*
X14040000Y-11060000I-20000J0D01*
G01*
X14040000Y-11162000D02*
G75*
G03*
X14040000Y-11162000I-20000J0D01*
G01*
X14042000Y-11308000D02*
G75*
G03*
X14042000Y-11308000I-20000J0D01*
G01*
X14140000Y-11900000D02*
G75*
G03*
X14140000Y-11900000I-20000J0D01*
G01*
X14320000Y-11700000D02*
G75*
G03*
X14320000Y-11700000I-20000J0D01*
G01*
X14360000Y-11900000D02*
G75*
G03*
X14360000Y-11900000I-20000J0D01*
G01*
X14590000Y-10160000D02*
G75*
G03*
X14590000Y-10160000I-20000J0D01*
G01*
X14591000Y-10370000D02*
G75*
G03*
X14591000Y-10370000I-20000J0D01*
G01*
X14621000Y-9693000D02*
G75*
G03*
X14621000Y-9693000I-20000J0D01*
G01*
X14646000Y-11415000D02*
G75*
G03*
X14646000Y-11415000I-20000J0D01*
G01*
X14720000Y-11700000D02*
G75*
G03*
X14720000Y-11700000I-20000J0D01*
G01*
X14720000Y-11900000D02*
G75*
G03*
X14720000Y-11900000I-20000J0D01*
G01*
X14750000Y-9691000D02*
G75*
G03*
X14750000Y-9691000I-20000J0D01*
G01*
X14770000Y-10160000D02*
G75*
G03*
X14770000Y-10160000I-20000J0D01*
G01*
X14789000Y-10988000D02*
G75*
G03*
X14789000Y-10988000I-20000J0D01*
G01*
X14840000Y-9090000D02*
G75*
G03*
X14840000Y-9090000I-20000J0D01*
G01*
X14879000Y-9690000D02*
G75*
G03*
X14879000Y-9690000I-20000J0D01*
G01*
X14905000Y-10989000D02*
G75*
G03*
X14905000Y-10989000I-20000J0D01*
G01*
X14951000Y-10667000D02*
G75*
G03*
X14951000Y-10667000I-20000J0D01*
G01*
X14990000Y-8240000D02*
G75*
G03*
X14990000Y-8240000I-20000J0D01*
G01*
X15020000Y-11900000D02*
G75*
G03*
X15020000Y-11900000I-20000J0D01*
G01*
X15058000Y-10667000D02*
G75*
G03*
X15058000Y-10667000I-20000J0D01*
G01*
X15085000Y-10051000D02*
G75*
G03*
X15085000Y-10051000I-20000J0D01*
G01*
X15160000Y-8930000D02*
G75*
G03*
X15160000Y-8930000I-20000J0D01*
G01*
X15270000Y-8930000D02*
G75*
G03*
X15270000Y-8930000I-20000J0D01*
G01*
X15320000Y-11700000D02*
G75*
G03*
X15320000Y-11700000I-20000J0D01*
G01*
X15320000Y-11900000D02*
G75*
G03*
X15320000Y-11900000I-20000J0D01*
G01*
X15380000Y-8930000D02*
G75*
G03*
X15380000Y-8930000I-20000J0D01*
G01*
X15420000Y-8100000D02*
G75*
G03*
X15420000Y-8100000I-20000J0D01*
G01*
X15620000Y-11700000D02*
G75*
G03*
X15620000Y-11700000I-20000J0D01*
G01*
X15620000Y-11900000D02*
G75*
G03*
X15620000Y-11900000I-20000J0D01*
G01*
X15839000Y-10534000D02*
G75*
G03*
X15839000Y-10534000I-20000J0D01*
G01*
X15840000Y-10252000D02*
G75*
G03*
X15840000Y-10252000I-20000J0D01*
G01*
X15920000Y-11700000D02*
G75*
G03*
X15920000Y-11700000I-20000J0D01*
G01*
X15920000Y-11900000D02*
G75*
G03*
X15920000Y-11900000I-20000J0D01*
G01*
X15966000Y-10054000D02*
G75*
G03*
X15966000Y-10054000I-20000J0D01*
G01*
X16067000Y-10054000D02*
G75*
G03*
X16067000Y-10054000I-20000J0D01*
G01*
X16190000Y-10960000D02*
G75*
G03*
X16190000Y-10960000I-20000J0D01*
G01*
X16420000Y-8100000D02*
G75*
G03*
X16420000Y-8100000I-20000J0D01*
G01*
X16720000Y-8100000D02*
G75*
G03*
X16720000Y-8100000I-20000J0D01*
G01*
X16920000Y-10700000D02*
G75*
G03*
X16920000Y-10700000I-20000J0D01*
G01*
X16920000Y-10900000D02*
G75*
G03*
X16920000Y-10900000I-20000J0D01*
G01*
X16920000Y-11200000D02*
G75*
G03*
X16920000Y-11200000I-20000J0D01*
G01*
X16920000Y-11400000D02*
G75*
G03*
X16920000Y-11400000I-20000J0D01*
G01*
X16920000Y-11900000D02*
G75*
G03*
X16920000Y-11900000I-20000J0D01*
G01*
X17018000Y-9618000D02*
G75*
G03*
X17018000Y-9618000I-20000J0D01*
G01*
X17020000Y-8100000D02*
G75*
G03*
X17020000Y-8100000I-20000J0D01*
G01*
X17120000Y-10700000D02*
G75*
G03*
X17120000Y-10700000I-20000J0D01*
G01*
X17120000Y-10900000D02*
G75*
G03*
X17120000Y-10900000I-20000J0D01*
G01*
X17220000Y-11200000D02*
G75*
G03*
X17220000Y-11200000I-20000J0D01*
G01*
X17220000Y-11400000D02*
G75*
G03*
X17220000Y-11400000I-20000J0D01*
G01*
X17220000Y-11900000D02*
G75*
G03*
X17220000Y-11900000I-20000J0D01*
G01*
X17520000Y-11400000D02*
G75*
G03*
X17520000Y-11400000I-20000J0D01*
G01*
X17620000Y-8100000D02*
G75*
G03*
X17620000Y-8100000I-20000J0D01*
G01*
X17620000Y-9300000D02*
G75*
G03*
X17620000Y-9300000I-20000J0D01*
G01*
X17620000Y-9600000D02*
G75*
G03*
X17620000Y-9600000I-20000J0D01*
G01*
X17620000Y-10800000D02*
G75*
G03*
X17620000Y-10800000I-20000J0D01*
G01*
X17620000Y-11000000D02*
G75*
G03*
X17620000Y-11000000I-20000J0D01*
G01*
X17620000Y-11200000D02*
G75*
G03*
X17620000Y-11200000I-20000J0D01*
G01*
X17720000Y-11400000D02*
G75*
G03*
X17720000Y-11400000I-20000J0D01*
G01*
X17720000Y-11900000D02*
G75*
G03*
X17720000Y-11900000I-20000J0D01*
G01*
X17920000Y-8100000D02*
G75*
G03*
X17920000Y-8100000I-20000J0D01*
G01*
X17920000Y-8400000D02*
G75*
G03*
X17920000Y-8400000I-20000J0D01*
G01*
X17920000Y-8700000D02*
G75*
G03*
X17920000Y-8700000I-20000J0D01*
G01*
X17920000Y-9000000D02*
G75*
G03*
X17920000Y-9000000I-20000J0D01*
G01*
X17920000Y-9300000D02*
G75*
G03*
X17920000Y-9300000I-20000J0D01*
G01*
X17920000Y-9600000D02*
G75*
G03*
X17920000Y-9600000I-20000J0D01*
G01*
X17920000Y-10800000D02*
G75*
G03*
X17920000Y-10800000I-20000J0D01*
G01*
X17920000Y-11000000D02*
G75*
G03*
X17920000Y-11000000I-20000J0D01*
G01*
X17920000Y-11200000D02*
G75*
G03*
X17920000Y-11200000I-20000J0D01*
G01*
X17920000Y-11400000D02*
G75*
G03*
X17920000Y-11400000I-20000J0D01*
G01*
X17920000Y-11900000D02*
G75*
G03*
X17920000Y-11900000I-20000J0D01*
G01*
D11*
X12242619Y-12298476D02*
X12242619Y-12098476D01*
X12242619Y-12098476D02*
X12290238Y-12098476D01*
X12290238Y-12098476D02*
X12318809Y-12108000D01*
X12318809Y-12108000D02*
X12337857Y-12127048D01*
X12337857Y-12127048D02*
X12347381Y-12146095D01*
X12347381Y-12146095D02*
X12356905Y-12184190D01*
X12356905Y-12184190D02*
X12356905Y-12212762D01*
X12356905Y-12212762D02*
X12347381Y-12250857D01*
X12347381Y-12250857D02*
X12337857Y-12269905D01*
X12337857Y-12269905D02*
X12318809Y-12288952D01*
X12318809Y-12288952D02*
X12290238Y-12298476D01*
X12290238Y-12298476D02*
X12242619Y-12298476D01*
X12442619Y-12298476D02*
X12442619Y-12165143D01*
X12442619Y-12203238D02*
X12452143Y-12184190D01*
X12452143Y-12184190D02*
X12461667Y-12174667D01*
X12461667Y-12174667D02*
X12480714Y-12165143D01*
X12480714Y-12165143D02*
X12499762Y-12165143D01*
X12566428Y-12298476D02*
X12566428Y-12165143D01*
X12566428Y-12098476D02*
X12556905Y-12108000D01*
X12556905Y-12108000D02*
X12566428Y-12117524D01*
X12566428Y-12117524D02*
X12575952Y-12108000D01*
X12575952Y-12108000D02*
X12566428Y-12098476D01*
X12566428Y-12098476D02*
X12566428Y-12117524D01*
X12690238Y-12298476D02*
X12671190Y-12288952D01*
X12671190Y-12288952D02*
X12661667Y-12269905D01*
X12661667Y-12269905D02*
X12661667Y-12098476D01*
X12795000Y-12298476D02*
X12775952Y-12288952D01*
X12775952Y-12288952D02*
X12766428Y-12269905D01*
X12766428Y-12269905D02*
X12766428Y-12098476D01*
X12991190Y-12298476D02*
X12991190Y-12098476D01*
X12991190Y-12098476D02*
X13057857Y-12241333D01*
X13057857Y-12241333D02*
X13124524Y-12098476D01*
X13124524Y-12098476D02*
X13124524Y-12298476D01*
X13305476Y-12298476D02*
X13305476Y-12193714D01*
X13305476Y-12193714D02*
X13295952Y-12174667D01*
X13295952Y-12174667D02*
X13276905Y-12165143D01*
X13276905Y-12165143D02*
X13238809Y-12165143D01*
X13238809Y-12165143D02*
X13219762Y-12174667D01*
X13305476Y-12288952D02*
X13286428Y-12298476D01*
X13286428Y-12298476D02*
X13238809Y-12298476D01*
X13238809Y-12298476D02*
X13219762Y-12288952D01*
X13219762Y-12288952D02*
X13210238Y-12269905D01*
X13210238Y-12269905D02*
X13210238Y-12250857D01*
X13210238Y-12250857D02*
X13219762Y-12231809D01*
X13219762Y-12231809D02*
X13238809Y-12222286D01*
X13238809Y-12222286D02*
X13286428Y-12222286D01*
X13286428Y-12222286D02*
X13305476Y-12212762D01*
X13400714Y-12165143D02*
X13400714Y-12365143D01*
X13400714Y-12174667D02*
X13419762Y-12165143D01*
X13419762Y-12165143D02*
X13457857Y-12165143D01*
X13457857Y-12165143D02*
X13476905Y-12174667D01*
X13476905Y-12174667D02*
X13486428Y-12184190D01*
X13486428Y-12184190D02*
X13495952Y-12203238D01*
X13495952Y-12203238D02*
X13495952Y-12260381D01*
X13495952Y-12260381D02*
X13486428Y-12279428D01*
X13486428Y-12279428D02*
X13476905Y-12288952D01*
X13476905Y-12288952D02*
X13457857Y-12298476D01*
X13457857Y-12298476D02*
X13419762Y-12298476D01*
X13419762Y-12298476D02*
X13400714Y-12288952D01*
X13581667Y-12279428D02*
X13591190Y-12288952D01*
X13591190Y-12288952D02*
X13581667Y-12298476D01*
X13581667Y-12298476D02*
X13572143Y-12288952D01*
X13572143Y-12288952D02*
X13581667Y-12279428D01*
X13581667Y-12279428D02*
X13581667Y-12298476D01*
X13581667Y-12174667D02*
X13591190Y-12184190D01*
X13591190Y-12184190D02*
X13581667Y-12193714D01*
X13581667Y-12193714D02*
X13572143Y-12184190D01*
X13572143Y-12184190D02*
X13581667Y-12174667D01*
X13581667Y-12174667D02*
X13581667Y-12193714D01*
D12*
X11975000Y-12635000D02*
X11995000Y-12655000D01*
X11995000Y-12635000D02*
X11975000Y-12655000D01*
D11*
X12280714Y-12518476D02*
X12299762Y-12518476D01*
X12299762Y-12518476D02*
X12318809Y-12528000D01*
X12318809Y-12528000D02*
X12328333Y-12537524D01*
X12328333Y-12537524D02*
X12337857Y-12556571D01*
X12337857Y-12556571D02*
X12347381Y-12594667D01*
X12347381Y-12594667D02*
X12347381Y-12642286D01*
X12347381Y-12642286D02*
X12337857Y-12680381D01*
X12337857Y-12680381D02*
X12328333Y-12699428D01*
X12328333Y-12699428D02*
X12318809Y-12708952D01*
X12318809Y-12708952D02*
X12299762Y-12718476D01*
X12299762Y-12718476D02*
X12280714Y-12718476D01*
X12280714Y-12718476D02*
X12261667Y-12708952D01*
X12261667Y-12708952D02*
X12252143Y-12699428D01*
X12252143Y-12699428D02*
X12242619Y-12680381D01*
X12242619Y-12680381D02*
X12233095Y-12642286D01*
X12233095Y-12642286D02*
X12233095Y-12594667D01*
X12233095Y-12594667D02*
X12242619Y-12556571D01*
X12242619Y-12556571D02*
X12252143Y-12537524D01*
X12252143Y-12537524D02*
X12261667Y-12528000D01*
X12261667Y-12528000D02*
X12280714Y-12518476D01*
X12433095Y-12699428D02*
X12442619Y-12708952D01*
X12442619Y-12708952D02*
X12433095Y-12718476D01*
X12433095Y-12718476D02*
X12423571Y-12708952D01*
X12423571Y-12708952D02*
X12433095Y-12699428D01*
X12433095Y-12699428D02*
X12433095Y-12718476D01*
X12518809Y-12537524D02*
X12528333Y-12528000D01*
X12528333Y-12528000D02*
X12547381Y-12518476D01*
X12547381Y-12518476D02*
X12595000Y-12518476D01*
X12595000Y-12518476D02*
X12614048Y-12528000D01*
X12614048Y-12528000D02*
X12623571Y-12537524D01*
X12623571Y-12537524D02*
X12633095Y-12556571D01*
X12633095Y-12556571D02*
X12633095Y-12575619D01*
X12633095Y-12575619D02*
X12623571Y-12604190D01*
X12623571Y-12604190D02*
X12509286Y-12718476D01*
X12509286Y-12718476D02*
X12633095Y-12718476D01*
X12756905Y-12518476D02*
X12775952Y-12518476D01*
X12775952Y-12518476D02*
X12795000Y-12528000D01*
X12795000Y-12528000D02*
X12804524Y-12537524D01*
X12804524Y-12537524D02*
X12814048Y-12556571D01*
X12814048Y-12556571D02*
X12823571Y-12594667D01*
X12823571Y-12594667D02*
X12823571Y-12642286D01*
X12823571Y-12642286D02*
X12814048Y-12680381D01*
X12814048Y-12680381D02*
X12804524Y-12699428D01*
X12804524Y-12699428D02*
X12795000Y-12708952D01*
X12795000Y-12708952D02*
X12775952Y-12718476D01*
X12775952Y-12718476D02*
X12756905Y-12718476D01*
X12756905Y-12718476D02*
X12737857Y-12708952D01*
X12737857Y-12708952D02*
X12728333Y-12699428D01*
X12728333Y-12699428D02*
X12718809Y-12680381D01*
X12718809Y-12680381D02*
X12709286Y-12642286D01*
X12709286Y-12642286D02*
X12709286Y-12594667D01*
X12709286Y-12594667D02*
X12718809Y-12556571D01*
X12718809Y-12556571D02*
X12728333Y-12537524D01*
X12728333Y-12537524D02*
X12737857Y-12528000D01*
X12737857Y-12528000D02*
X12756905Y-12518476D01*
X12947381Y-12518476D02*
X12966429Y-12518476D01*
X12966429Y-12518476D02*
X12985476Y-12528000D01*
X12985476Y-12528000D02*
X12995000Y-12537524D01*
X12995000Y-12537524D02*
X13004524Y-12556571D01*
X13004524Y-12556571D02*
X13014048Y-12594667D01*
X13014048Y-12594667D02*
X13014048Y-12642286D01*
X13014048Y-12642286D02*
X13004524Y-12680381D01*
X13004524Y-12680381D02*
X12995000Y-12699428D01*
X12995000Y-12699428D02*
X12985476Y-12708952D01*
X12985476Y-12708952D02*
X12966429Y-12718476D01*
X12966429Y-12718476D02*
X12947381Y-12718476D01*
X12947381Y-12718476D02*
X12928333Y-12708952D01*
X12928333Y-12708952D02*
X12918809Y-12699428D01*
X12918809Y-12699428D02*
X12909286Y-12680381D01*
X12909286Y-12680381D02*
X12899762Y-12642286D01*
X12899762Y-12642286D02*
X12899762Y-12594667D01*
X12899762Y-12594667D02*
X12909286Y-12556571D01*
X12909286Y-12556571D02*
X12918809Y-12537524D01*
X12918809Y-12537524D02*
X12928333Y-12528000D01*
X12928333Y-12528000D02*
X12947381Y-12518476D01*
X13099762Y-12718476D02*
X13099762Y-12585143D01*
X13099762Y-12604190D02*
X13109286Y-12594667D01*
X13109286Y-12594667D02*
X13128333Y-12585143D01*
X13128333Y-12585143D02*
X13156905Y-12585143D01*
X13156905Y-12585143D02*
X13175952Y-12594667D01*
X13175952Y-12594667D02*
X13185476Y-12613714D01*
X13185476Y-12613714D02*
X13185476Y-12718476D01*
X13185476Y-12613714D02*
X13195000Y-12594667D01*
X13195000Y-12594667D02*
X13214048Y-12585143D01*
X13214048Y-12585143D02*
X13242619Y-12585143D01*
X13242619Y-12585143D02*
X13261667Y-12594667D01*
X13261667Y-12594667D02*
X13271190Y-12613714D01*
X13271190Y-12613714D02*
X13271190Y-12718476D01*
X13366429Y-12718476D02*
X13366429Y-12585143D01*
X13366429Y-12604190D02*
X13375952Y-12594667D01*
X13375952Y-12594667D02*
X13395000Y-12585143D01*
X13395000Y-12585143D02*
X13423571Y-12585143D01*
X13423571Y-12585143D02*
X13442619Y-12594667D01*
X13442619Y-12594667D02*
X13452143Y-12613714D01*
X13452143Y-12613714D02*
X13452143Y-12718476D01*
X13452143Y-12613714D02*
X13461667Y-12594667D01*
X13461667Y-12594667D02*
X13480714Y-12585143D01*
X13480714Y-12585143D02*
X13509286Y-12585143D01*
X13509286Y-12585143D02*
X13528333Y-12594667D01*
X13528333Y-12594667D02*
X13537857Y-12613714D01*
X13537857Y-12613714D02*
X13537857Y-12718476D01*
X13895952Y-12508952D02*
X13724524Y-12766095D01*
X14120714Y-12518476D02*
X14139762Y-12518476D01*
X14139762Y-12518476D02*
X14158810Y-12528000D01*
X14158810Y-12528000D02*
X14168333Y-12537524D01*
X14168333Y-12537524D02*
X14177857Y-12556571D01*
X14177857Y-12556571D02*
X14187381Y-12594667D01*
X14187381Y-12594667D02*
X14187381Y-12642286D01*
X14187381Y-12642286D02*
X14177857Y-12680381D01*
X14177857Y-12680381D02*
X14168333Y-12699428D01*
X14168333Y-12699428D02*
X14158810Y-12708952D01*
X14158810Y-12708952D02*
X14139762Y-12718476D01*
X14139762Y-12718476D02*
X14120714Y-12718476D01*
X14120714Y-12718476D02*
X14101667Y-12708952D01*
X14101667Y-12708952D02*
X14092143Y-12699428D01*
X14092143Y-12699428D02*
X14082619Y-12680381D01*
X14082619Y-12680381D02*
X14073095Y-12642286D01*
X14073095Y-12642286D02*
X14073095Y-12594667D01*
X14073095Y-12594667D02*
X14082619Y-12556571D01*
X14082619Y-12556571D02*
X14092143Y-12537524D01*
X14092143Y-12537524D02*
X14101667Y-12528000D01*
X14101667Y-12528000D02*
X14120714Y-12518476D01*
X14273095Y-12699428D02*
X14282619Y-12708952D01*
X14282619Y-12708952D02*
X14273095Y-12718476D01*
X14273095Y-12718476D02*
X14263571Y-12708952D01*
X14263571Y-12708952D02*
X14273095Y-12699428D01*
X14273095Y-12699428D02*
X14273095Y-12718476D01*
X14406429Y-12518476D02*
X14425476Y-12518476D01*
X14425476Y-12518476D02*
X14444524Y-12528000D01*
X14444524Y-12528000D02*
X14454048Y-12537524D01*
X14454048Y-12537524D02*
X14463571Y-12556571D01*
X14463571Y-12556571D02*
X14473095Y-12594667D01*
X14473095Y-12594667D02*
X14473095Y-12642286D01*
X14473095Y-12642286D02*
X14463571Y-12680381D01*
X14463571Y-12680381D02*
X14454048Y-12699428D01*
X14454048Y-12699428D02*
X14444524Y-12708952D01*
X14444524Y-12708952D02*
X14425476Y-12718476D01*
X14425476Y-12718476D02*
X14406429Y-12718476D01*
X14406429Y-12718476D02*
X14387381Y-12708952D01*
X14387381Y-12708952D02*
X14377857Y-12699428D01*
X14377857Y-12699428D02*
X14368333Y-12680381D01*
X14368333Y-12680381D02*
X14358810Y-12642286D01*
X14358810Y-12642286D02*
X14358810Y-12594667D01*
X14358810Y-12594667D02*
X14368333Y-12556571D01*
X14368333Y-12556571D02*
X14377857Y-12537524D01*
X14377857Y-12537524D02*
X14387381Y-12528000D01*
X14387381Y-12528000D02*
X14406429Y-12518476D01*
X14596905Y-12518476D02*
X14615952Y-12518476D01*
X14615952Y-12518476D02*
X14635000Y-12528000D01*
X14635000Y-12528000D02*
X14644524Y-12537524D01*
X14644524Y-12537524D02*
X14654048Y-12556571D01*
X14654048Y-12556571D02*
X14663571Y-12594667D01*
X14663571Y-12594667D02*
X14663571Y-12642286D01*
X14663571Y-12642286D02*
X14654048Y-12680381D01*
X14654048Y-12680381D02*
X14644524Y-12699428D01*
X14644524Y-12699428D02*
X14635000Y-12708952D01*
X14635000Y-12708952D02*
X14615952Y-12718476D01*
X14615952Y-12718476D02*
X14596905Y-12718476D01*
X14596905Y-12718476D02*
X14577857Y-12708952D01*
X14577857Y-12708952D02*
X14568333Y-12699428D01*
X14568333Y-12699428D02*
X14558810Y-12680381D01*
X14558810Y-12680381D02*
X14549286Y-12642286D01*
X14549286Y-12642286D02*
X14549286Y-12594667D01*
X14549286Y-12594667D02*
X14558810Y-12556571D01*
X14558810Y-12556571D02*
X14568333Y-12537524D01*
X14568333Y-12537524D02*
X14577857Y-12528000D01*
X14577857Y-12528000D02*
X14596905Y-12518476D01*
X14730238Y-12518476D02*
X14863571Y-12518476D01*
X14863571Y-12518476D02*
X14777857Y-12718476D01*
X14949286Y-12718476D02*
X14987381Y-12718476D01*
X14987381Y-12718476D02*
X15006429Y-12708952D01*
X15006429Y-12708952D02*
X15015952Y-12699428D01*
X15015952Y-12699428D02*
X15035000Y-12670857D01*
X15035000Y-12670857D02*
X15044524Y-12632762D01*
X15044524Y-12632762D02*
X15044524Y-12556571D01*
X15044524Y-12556571D02*
X15035000Y-12537524D01*
X15035000Y-12537524D02*
X15025476Y-12528000D01*
X15025476Y-12528000D02*
X15006429Y-12518476D01*
X15006429Y-12518476D02*
X14968333Y-12518476D01*
X14968333Y-12518476D02*
X14949286Y-12528000D01*
X14949286Y-12528000D02*
X14939762Y-12537524D01*
X14939762Y-12537524D02*
X14930238Y-12556571D01*
X14930238Y-12556571D02*
X14930238Y-12604190D01*
X14930238Y-12604190D02*
X14939762Y-12623238D01*
X14939762Y-12623238D02*
X14949286Y-12632762D01*
X14949286Y-12632762D02*
X14968333Y-12642286D01*
X14968333Y-12642286D02*
X15006429Y-12642286D01*
X15006429Y-12642286D02*
X15025476Y-12632762D01*
X15025476Y-12632762D02*
X15035000Y-12623238D01*
X15035000Y-12623238D02*
X15044524Y-12604190D01*
X15120714Y-12518476D02*
X15120714Y-12556571D01*
X15196905Y-12518476D02*
X15196905Y-12556571D01*
X15459762Y-12794667D02*
X15450238Y-12785143D01*
X15450238Y-12785143D02*
X15431191Y-12756571D01*
X15431191Y-12756571D02*
X15421667Y-12737524D01*
X15421667Y-12737524D02*
X15412143Y-12708952D01*
X15412143Y-12708952D02*
X15402619Y-12661333D01*
X15402619Y-12661333D02*
X15402619Y-12623238D01*
X15402619Y-12623238D02*
X15412143Y-12575619D01*
X15412143Y-12575619D02*
X15421667Y-12547048D01*
X15421667Y-12547048D02*
X15431191Y-12528000D01*
X15431191Y-12528000D02*
X15450238Y-12499428D01*
X15450238Y-12499428D02*
X15459762Y-12489905D01*
X15640714Y-12718476D02*
X15526429Y-12718476D01*
X15583571Y-12718476D02*
X15583571Y-12518476D01*
X15583571Y-12518476D02*
X15564524Y-12547048D01*
X15564524Y-12547048D02*
X15545476Y-12566095D01*
X15545476Y-12566095D02*
X15526429Y-12575619D01*
X15707381Y-12518476D02*
X15831191Y-12518476D01*
X15831191Y-12518476D02*
X15764524Y-12594667D01*
X15764524Y-12594667D02*
X15793095Y-12594667D01*
X15793095Y-12594667D02*
X15812143Y-12604190D01*
X15812143Y-12604190D02*
X15821667Y-12613714D01*
X15821667Y-12613714D02*
X15831191Y-12632762D01*
X15831191Y-12632762D02*
X15831191Y-12680381D01*
X15831191Y-12680381D02*
X15821667Y-12699428D01*
X15821667Y-12699428D02*
X15812143Y-12708952D01*
X15812143Y-12708952D02*
X15793095Y-12718476D01*
X15793095Y-12718476D02*
X15735952Y-12718476D01*
X15735952Y-12718476D02*
X15716905Y-12708952D01*
X15716905Y-12708952D02*
X15707381Y-12699428D01*
X15907381Y-12537524D02*
X15916905Y-12528000D01*
X15916905Y-12528000D02*
X15935952Y-12518476D01*
X15935952Y-12518476D02*
X15983572Y-12518476D01*
X15983572Y-12518476D02*
X16002619Y-12528000D01*
X16002619Y-12528000D02*
X16012143Y-12537524D01*
X16012143Y-12537524D02*
X16021667Y-12556571D01*
X16021667Y-12556571D02*
X16021667Y-12575619D01*
X16021667Y-12575619D02*
X16012143Y-12604190D01*
X16012143Y-12604190D02*
X15897857Y-12718476D01*
X15897857Y-12718476D02*
X16021667Y-12718476D01*
X16227381Y-12718476D02*
X16227381Y-12518476D01*
X16313095Y-12718476D02*
X16313095Y-12613714D01*
X16313095Y-12613714D02*
X16303572Y-12594667D01*
X16303572Y-12594667D02*
X16284524Y-12585143D01*
X16284524Y-12585143D02*
X16255952Y-12585143D01*
X16255952Y-12585143D02*
X16236905Y-12594667D01*
X16236905Y-12594667D02*
X16227381Y-12604190D01*
X16436905Y-12718476D02*
X16417857Y-12708952D01*
X16417857Y-12708952D02*
X16408333Y-12699428D01*
X16408333Y-12699428D02*
X16398810Y-12680381D01*
X16398810Y-12680381D02*
X16398810Y-12623238D01*
X16398810Y-12623238D02*
X16408333Y-12604190D01*
X16408333Y-12604190D02*
X16417857Y-12594667D01*
X16417857Y-12594667D02*
X16436905Y-12585143D01*
X16436905Y-12585143D02*
X16465476Y-12585143D01*
X16465476Y-12585143D02*
X16484524Y-12594667D01*
X16484524Y-12594667D02*
X16494048Y-12604190D01*
X16494048Y-12604190D02*
X16503572Y-12623238D01*
X16503572Y-12623238D02*
X16503572Y-12680381D01*
X16503572Y-12680381D02*
X16494048Y-12699428D01*
X16494048Y-12699428D02*
X16484524Y-12708952D01*
X16484524Y-12708952D02*
X16465476Y-12718476D01*
X16465476Y-12718476D02*
X16436905Y-12718476D01*
X16617857Y-12718476D02*
X16598810Y-12708952D01*
X16598810Y-12708952D02*
X16589286Y-12689905D01*
X16589286Y-12689905D02*
X16589286Y-12518476D01*
X16770238Y-12708952D02*
X16751191Y-12718476D01*
X16751191Y-12718476D02*
X16713095Y-12718476D01*
X16713095Y-12718476D02*
X16694048Y-12708952D01*
X16694048Y-12708952D02*
X16684524Y-12689905D01*
X16684524Y-12689905D02*
X16684524Y-12613714D01*
X16684524Y-12613714D02*
X16694048Y-12594667D01*
X16694048Y-12594667D02*
X16713095Y-12585143D01*
X16713095Y-12585143D02*
X16751191Y-12585143D01*
X16751191Y-12585143D02*
X16770238Y-12594667D01*
X16770238Y-12594667D02*
X16779762Y-12613714D01*
X16779762Y-12613714D02*
X16779762Y-12632762D01*
X16779762Y-12632762D02*
X16684524Y-12651809D01*
X16855953Y-12708952D02*
X16875000Y-12718476D01*
X16875000Y-12718476D02*
X16913095Y-12718476D01*
X16913095Y-12718476D02*
X16932143Y-12708952D01*
X16932143Y-12708952D02*
X16941667Y-12689905D01*
X16941667Y-12689905D02*
X16941667Y-12680381D01*
X16941667Y-12680381D02*
X16932143Y-12661333D01*
X16932143Y-12661333D02*
X16913095Y-12651809D01*
X16913095Y-12651809D02*
X16884524Y-12651809D01*
X16884524Y-12651809D02*
X16865476Y-12642286D01*
X16865476Y-12642286D02*
X16855953Y-12623238D01*
X16855953Y-12623238D02*
X16855953Y-12613714D01*
X16855953Y-12613714D02*
X16865476Y-12594667D01*
X16865476Y-12594667D02*
X16884524Y-12585143D01*
X16884524Y-12585143D02*
X16913095Y-12585143D01*
X16913095Y-12585143D02*
X16932143Y-12594667D01*
X17008334Y-12794667D02*
X17017857Y-12785143D01*
X17017857Y-12785143D02*
X17036905Y-12756571D01*
X17036905Y-12756571D02*
X17046429Y-12737524D01*
X17046429Y-12737524D02*
X17055953Y-12708952D01*
X17055953Y-12708952D02*
X17065476Y-12661333D01*
X17065476Y-12661333D02*
X17065476Y-12623238D01*
X17065476Y-12623238D02*
X17055953Y-12575619D01*
X17055953Y-12575619D02*
X17046429Y-12547048D01*
X17046429Y-12547048D02*
X17036905Y-12528000D01*
X17036905Y-12528000D02*
X17017857Y-12499428D01*
X17017857Y-12499428D02*
X17008334Y-12489905D01*
D13*
X11995000Y-12909000D02*
G75*
G03*
X11995000Y-12909000I-20000J0D01*
G01*
D11*
X12280714Y-12782476D02*
X12299762Y-12782476D01*
X12299762Y-12782476D02*
X12318809Y-12792000D01*
X12318809Y-12792000D02*
X12328333Y-12801524D01*
X12328333Y-12801524D02*
X12337857Y-12820571D01*
X12337857Y-12820571D02*
X12347381Y-12858667D01*
X12347381Y-12858667D02*
X12347381Y-12906286D01*
X12347381Y-12906286D02*
X12337857Y-12944381D01*
X12337857Y-12944381D02*
X12328333Y-12963428D01*
X12328333Y-12963428D02*
X12318809Y-12972952D01*
X12318809Y-12972952D02*
X12299762Y-12982476D01*
X12299762Y-12982476D02*
X12280714Y-12982476D01*
X12280714Y-12982476D02*
X12261667Y-12972952D01*
X12261667Y-12972952D02*
X12252143Y-12963428D01*
X12252143Y-12963428D02*
X12242619Y-12944381D01*
X12242619Y-12944381D02*
X12233095Y-12906286D01*
X12233095Y-12906286D02*
X12233095Y-12858667D01*
X12233095Y-12858667D02*
X12242619Y-12820571D01*
X12242619Y-12820571D02*
X12252143Y-12801524D01*
X12252143Y-12801524D02*
X12261667Y-12792000D01*
X12261667Y-12792000D02*
X12280714Y-12782476D01*
X12433095Y-12963428D02*
X12442619Y-12972952D01*
X12442619Y-12972952D02*
X12433095Y-12982476D01*
X12433095Y-12982476D02*
X12423571Y-12972952D01*
X12423571Y-12972952D02*
X12433095Y-12963428D01*
X12433095Y-12963428D02*
X12433095Y-12982476D01*
X12614048Y-12849143D02*
X12614048Y-12982476D01*
X12566428Y-12772952D02*
X12518809Y-12915809D01*
X12518809Y-12915809D02*
X12642619Y-12915809D01*
X12756905Y-12782476D02*
X12775952Y-12782476D01*
X12775952Y-12782476D02*
X12795000Y-12792000D01*
X12795000Y-12792000D02*
X12804524Y-12801524D01*
X12804524Y-12801524D02*
X12814048Y-12820571D01*
X12814048Y-12820571D02*
X12823571Y-12858667D01*
X12823571Y-12858667D02*
X12823571Y-12906286D01*
X12823571Y-12906286D02*
X12814048Y-12944381D01*
X12814048Y-12944381D02*
X12804524Y-12963428D01*
X12804524Y-12963428D02*
X12795000Y-12972952D01*
X12795000Y-12972952D02*
X12775952Y-12982476D01*
X12775952Y-12982476D02*
X12756905Y-12982476D01*
X12756905Y-12982476D02*
X12737857Y-12972952D01*
X12737857Y-12972952D02*
X12728333Y-12963428D01*
X12728333Y-12963428D02*
X12718809Y-12944381D01*
X12718809Y-12944381D02*
X12709286Y-12906286D01*
X12709286Y-12906286D02*
X12709286Y-12858667D01*
X12709286Y-12858667D02*
X12718809Y-12820571D01*
X12718809Y-12820571D02*
X12728333Y-12801524D01*
X12728333Y-12801524D02*
X12737857Y-12792000D01*
X12737857Y-12792000D02*
X12756905Y-12782476D01*
X12947381Y-12782476D02*
X12966429Y-12782476D01*
X12966429Y-12782476D02*
X12985476Y-12792000D01*
X12985476Y-12792000D02*
X12995000Y-12801524D01*
X12995000Y-12801524D02*
X13004524Y-12820571D01*
X13004524Y-12820571D02*
X13014048Y-12858667D01*
X13014048Y-12858667D02*
X13014048Y-12906286D01*
X13014048Y-12906286D02*
X13004524Y-12944381D01*
X13004524Y-12944381D02*
X12995000Y-12963428D01*
X12995000Y-12963428D02*
X12985476Y-12972952D01*
X12985476Y-12972952D02*
X12966429Y-12982476D01*
X12966429Y-12982476D02*
X12947381Y-12982476D01*
X12947381Y-12982476D02*
X12928333Y-12972952D01*
X12928333Y-12972952D02*
X12918809Y-12963428D01*
X12918809Y-12963428D02*
X12909286Y-12944381D01*
X12909286Y-12944381D02*
X12899762Y-12906286D01*
X12899762Y-12906286D02*
X12899762Y-12858667D01*
X12899762Y-12858667D02*
X12909286Y-12820571D01*
X12909286Y-12820571D02*
X12918809Y-12801524D01*
X12918809Y-12801524D02*
X12928333Y-12792000D01*
X12928333Y-12792000D02*
X12947381Y-12782476D01*
X13099762Y-12982476D02*
X13099762Y-12849143D01*
X13099762Y-12868190D02*
X13109286Y-12858667D01*
X13109286Y-12858667D02*
X13128333Y-12849143D01*
X13128333Y-12849143D02*
X13156905Y-12849143D01*
X13156905Y-12849143D02*
X13175952Y-12858667D01*
X13175952Y-12858667D02*
X13185476Y-12877714D01*
X13185476Y-12877714D02*
X13185476Y-12982476D01*
X13185476Y-12877714D02*
X13195000Y-12858667D01*
X13195000Y-12858667D02*
X13214048Y-12849143D01*
X13214048Y-12849143D02*
X13242619Y-12849143D01*
X13242619Y-12849143D02*
X13261667Y-12858667D01*
X13261667Y-12858667D02*
X13271190Y-12877714D01*
X13271190Y-12877714D02*
X13271190Y-12982476D01*
X13366429Y-12982476D02*
X13366429Y-12849143D01*
X13366429Y-12868190D02*
X13375952Y-12858667D01*
X13375952Y-12858667D02*
X13395000Y-12849143D01*
X13395000Y-12849143D02*
X13423571Y-12849143D01*
X13423571Y-12849143D02*
X13442619Y-12858667D01*
X13442619Y-12858667D02*
X13452143Y-12877714D01*
X13452143Y-12877714D02*
X13452143Y-12982476D01*
X13452143Y-12877714D02*
X13461667Y-12858667D01*
X13461667Y-12858667D02*
X13480714Y-12849143D01*
X13480714Y-12849143D02*
X13509286Y-12849143D01*
X13509286Y-12849143D02*
X13528333Y-12858667D01*
X13528333Y-12858667D02*
X13537857Y-12877714D01*
X13537857Y-12877714D02*
X13537857Y-12982476D01*
X13895952Y-12772952D02*
X13724524Y-13030095D01*
X14120714Y-12782476D02*
X14139762Y-12782476D01*
X14139762Y-12782476D02*
X14158810Y-12792000D01*
X14158810Y-12792000D02*
X14168333Y-12801524D01*
X14168333Y-12801524D02*
X14177857Y-12820571D01*
X14177857Y-12820571D02*
X14187381Y-12858667D01*
X14187381Y-12858667D02*
X14187381Y-12906286D01*
X14187381Y-12906286D02*
X14177857Y-12944381D01*
X14177857Y-12944381D02*
X14168333Y-12963428D01*
X14168333Y-12963428D02*
X14158810Y-12972952D01*
X14158810Y-12972952D02*
X14139762Y-12982476D01*
X14139762Y-12982476D02*
X14120714Y-12982476D01*
X14120714Y-12982476D02*
X14101667Y-12972952D01*
X14101667Y-12972952D02*
X14092143Y-12963428D01*
X14092143Y-12963428D02*
X14082619Y-12944381D01*
X14082619Y-12944381D02*
X14073095Y-12906286D01*
X14073095Y-12906286D02*
X14073095Y-12858667D01*
X14073095Y-12858667D02*
X14082619Y-12820571D01*
X14082619Y-12820571D02*
X14092143Y-12801524D01*
X14092143Y-12801524D02*
X14101667Y-12792000D01*
X14101667Y-12792000D02*
X14120714Y-12782476D01*
X14273095Y-12963428D02*
X14282619Y-12972952D01*
X14282619Y-12972952D02*
X14273095Y-12982476D01*
X14273095Y-12982476D02*
X14263571Y-12972952D01*
X14263571Y-12972952D02*
X14273095Y-12963428D01*
X14273095Y-12963428D02*
X14273095Y-12982476D01*
X14406429Y-12782476D02*
X14425476Y-12782476D01*
X14425476Y-12782476D02*
X14444524Y-12792000D01*
X14444524Y-12792000D02*
X14454048Y-12801524D01*
X14454048Y-12801524D02*
X14463571Y-12820571D01*
X14463571Y-12820571D02*
X14473095Y-12858667D01*
X14473095Y-12858667D02*
X14473095Y-12906286D01*
X14473095Y-12906286D02*
X14463571Y-12944381D01*
X14463571Y-12944381D02*
X14454048Y-12963428D01*
X14454048Y-12963428D02*
X14444524Y-12972952D01*
X14444524Y-12972952D02*
X14425476Y-12982476D01*
X14425476Y-12982476D02*
X14406429Y-12982476D01*
X14406429Y-12982476D02*
X14387381Y-12972952D01*
X14387381Y-12972952D02*
X14377857Y-12963428D01*
X14377857Y-12963428D02*
X14368333Y-12944381D01*
X14368333Y-12944381D02*
X14358810Y-12906286D01*
X14358810Y-12906286D02*
X14358810Y-12858667D01*
X14358810Y-12858667D02*
X14368333Y-12820571D01*
X14368333Y-12820571D02*
X14377857Y-12801524D01*
X14377857Y-12801524D02*
X14387381Y-12792000D01*
X14387381Y-12792000D02*
X14406429Y-12782476D01*
X14663571Y-12982476D02*
X14549286Y-12982476D01*
X14606429Y-12982476D02*
X14606429Y-12782476D01*
X14606429Y-12782476D02*
X14587381Y-12811048D01*
X14587381Y-12811048D02*
X14568333Y-12830095D01*
X14568333Y-12830095D02*
X14549286Y-12839619D01*
X14844524Y-12782476D02*
X14749286Y-12782476D01*
X14749286Y-12782476D02*
X14739762Y-12877714D01*
X14739762Y-12877714D02*
X14749286Y-12868190D01*
X14749286Y-12868190D02*
X14768333Y-12858667D01*
X14768333Y-12858667D02*
X14815952Y-12858667D01*
X14815952Y-12858667D02*
X14835000Y-12868190D01*
X14835000Y-12868190D02*
X14844524Y-12877714D01*
X14844524Y-12877714D02*
X14854048Y-12896762D01*
X14854048Y-12896762D02*
X14854048Y-12944381D01*
X14854048Y-12944381D02*
X14844524Y-12963428D01*
X14844524Y-12963428D02*
X14835000Y-12972952D01*
X14835000Y-12972952D02*
X14815952Y-12982476D01*
X14815952Y-12982476D02*
X14768333Y-12982476D01*
X14768333Y-12982476D02*
X14749286Y-12972952D01*
X14749286Y-12972952D02*
X14739762Y-12963428D01*
X14920714Y-12782476D02*
X15054048Y-12782476D01*
X15054048Y-12782476D02*
X14968333Y-12982476D01*
X15120714Y-12782476D02*
X15120714Y-12820571D01*
X15196905Y-12782476D02*
X15196905Y-12820571D01*
X15459762Y-13058667D02*
X15450238Y-13049143D01*
X15450238Y-13049143D02*
X15431191Y-13020571D01*
X15431191Y-13020571D02*
X15421667Y-13001524D01*
X15421667Y-13001524D02*
X15412143Y-12972952D01*
X15412143Y-12972952D02*
X15402619Y-12925333D01*
X15402619Y-12925333D02*
X15402619Y-12887238D01*
X15402619Y-12887238D02*
X15412143Y-12839619D01*
X15412143Y-12839619D02*
X15421667Y-12811048D01*
X15421667Y-12811048D02*
X15431191Y-12792000D01*
X15431191Y-12792000D02*
X15450238Y-12763428D01*
X15450238Y-12763428D02*
X15459762Y-12753905D01*
X15640714Y-12982476D02*
X15526429Y-12982476D01*
X15583571Y-12982476D02*
X15583571Y-12782476D01*
X15583571Y-12782476D02*
X15564524Y-12811048D01*
X15564524Y-12811048D02*
X15545476Y-12830095D01*
X15545476Y-12830095D02*
X15526429Y-12839619D01*
X15831191Y-12982476D02*
X15716905Y-12982476D01*
X15774048Y-12982476D02*
X15774048Y-12782476D01*
X15774048Y-12782476D02*
X15755000Y-12811048D01*
X15755000Y-12811048D02*
X15735952Y-12830095D01*
X15735952Y-12830095D02*
X15716905Y-12839619D01*
X15897857Y-12782476D02*
X16021667Y-12782476D01*
X16021667Y-12782476D02*
X15955000Y-12858667D01*
X15955000Y-12858667D02*
X15983572Y-12858667D01*
X15983572Y-12858667D02*
X16002619Y-12868190D01*
X16002619Y-12868190D02*
X16012143Y-12877714D01*
X16012143Y-12877714D02*
X16021667Y-12896762D01*
X16021667Y-12896762D02*
X16021667Y-12944381D01*
X16021667Y-12944381D02*
X16012143Y-12963428D01*
X16012143Y-12963428D02*
X16002619Y-12972952D01*
X16002619Y-12972952D02*
X15983572Y-12982476D01*
X15983572Y-12982476D02*
X15926429Y-12982476D01*
X15926429Y-12982476D02*
X15907381Y-12972952D01*
X15907381Y-12972952D02*
X15897857Y-12963428D01*
X16227381Y-12982476D02*
X16227381Y-12782476D01*
X16313095Y-12982476D02*
X16313095Y-12877714D01*
X16313095Y-12877714D02*
X16303572Y-12858667D01*
X16303572Y-12858667D02*
X16284524Y-12849143D01*
X16284524Y-12849143D02*
X16255952Y-12849143D01*
X16255952Y-12849143D02*
X16236905Y-12858667D01*
X16236905Y-12858667D02*
X16227381Y-12868190D01*
X16436905Y-12982476D02*
X16417857Y-12972952D01*
X16417857Y-12972952D02*
X16408333Y-12963428D01*
X16408333Y-12963428D02*
X16398810Y-12944381D01*
X16398810Y-12944381D02*
X16398810Y-12887238D01*
X16398810Y-12887238D02*
X16408333Y-12868190D01*
X16408333Y-12868190D02*
X16417857Y-12858667D01*
X16417857Y-12858667D02*
X16436905Y-12849143D01*
X16436905Y-12849143D02*
X16465476Y-12849143D01*
X16465476Y-12849143D02*
X16484524Y-12858667D01*
X16484524Y-12858667D02*
X16494048Y-12868190D01*
X16494048Y-12868190D02*
X16503572Y-12887238D01*
X16503572Y-12887238D02*
X16503572Y-12944381D01*
X16503572Y-12944381D02*
X16494048Y-12963428D01*
X16494048Y-12963428D02*
X16484524Y-12972952D01*
X16484524Y-12972952D02*
X16465476Y-12982476D01*
X16465476Y-12982476D02*
X16436905Y-12982476D01*
X16617857Y-12982476D02*
X16598810Y-12972952D01*
X16598810Y-12972952D02*
X16589286Y-12953905D01*
X16589286Y-12953905D02*
X16589286Y-12782476D01*
X16770238Y-12972952D02*
X16751191Y-12982476D01*
X16751191Y-12982476D02*
X16713095Y-12982476D01*
X16713095Y-12982476D02*
X16694048Y-12972952D01*
X16694048Y-12972952D02*
X16684524Y-12953905D01*
X16684524Y-12953905D02*
X16684524Y-12877714D01*
X16684524Y-12877714D02*
X16694048Y-12858667D01*
X16694048Y-12858667D02*
X16713095Y-12849143D01*
X16713095Y-12849143D02*
X16751191Y-12849143D01*
X16751191Y-12849143D02*
X16770238Y-12858667D01*
X16770238Y-12858667D02*
X16779762Y-12877714D01*
X16779762Y-12877714D02*
X16779762Y-12896762D01*
X16779762Y-12896762D02*
X16684524Y-12915809D01*
X16855953Y-12972952D02*
X16875000Y-12982476D01*
X16875000Y-12982476D02*
X16913095Y-12982476D01*
X16913095Y-12982476D02*
X16932143Y-12972952D01*
X16932143Y-12972952D02*
X16941667Y-12953905D01*
X16941667Y-12953905D02*
X16941667Y-12944381D01*
X16941667Y-12944381D02*
X16932143Y-12925333D01*
X16932143Y-12925333D02*
X16913095Y-12915809D01*
X16913095Y-12915809D02*
X16884524Y-12915809D01*
X16884524Y-12915809D02*
X16865476Y-12906286D01*
X16865476Y-12906286D02*
X16855953Y-12887238D01*
X16855953Y-12887238D02*
X16855953Y-12877714D01*
X16855953Y-12877714D02*
X16865476Y-12858667D01*
X16865476Y-12858667D02*
X16884524Y-12849143D01*
X16884524Y-12849143D02*
X16913095Y-12849143D01*
X16913095Y-12849143D02*
X16932143Y-12858667D01*
X17008334Y-13058667D02*
X17017857Y-13049143D01*
X17017857Y-13049143D02*
X17036905Y-13020571D01*
X17036905Y-13020571D02*
X17046429Y-13001524D01*
X17046429Y-13001524D02*
X17055953Y-12972952D01*
X17055953Y-12972952D02*
X17065476Y-12925333D01*
X17065476Y-12925333D02*
X17065476Y-12887238D01*
X17065476Y-12887238D02*
X17055953Y-12839619D01*
X17055953Y-12839619D02*
X17046429Y-12811048D01*
X17046429Y-12811048D02*
X17036905Y-12792000D01*
X17036905Y-12792000D02*
X17017857Y-12763428D01*
X17017857Y-12763428D02*
X17008334Y-12753905D01*
M02*
