M48
; DRILL file {KiCad (7.0.0)} date Wed Mar  8 15:03:23 2023
; FORMAT={-:-/ absolute / metric / decimal}
; #@! TF.CreationDate,2023-03-08T15:03:23+02:00
; #@! TF.GenerationSoftware,Kicad,Pcbnew,(7.0.0)
; #@! TF.FileFunction,Plated,1,4,PTH
FMAT,2
METRIC
; #@! TA.AperFunction,Plated,PTH,ViaDrill
T1C0.200
; #@! TA.AperFunction,Plated,PTH,ViaDrill
T2C0.400
%
G90
G05
T1
X140.925Y-87.475
X140.93Y-86.35
X141.8Y-113.2
X142.1Y-92.3
X142.13Y-90.38
X142.4Y-85.0
X142.8Y-113.2
X143.6Y-86.7
X143.6Y-87.5
X144.5Y-86.7
X144.5Y-87.5
X145.07Y-90.79
X145.31Y-107.92
X145.7Y-100.6
X146.0Y-82.0
X147.65Y-102.95
X147.8Y-82.3
X148.14Y-105.95
X148.3Y-115.43
X148.6Y-103.45
X149.56Y-100.87
X149.56Y-104.46
X150.07Y-103.95
X151.07Y-111.16
X151.08Y-116.91
X151.8Y-108.5
X152.0Y-111.0
X152.6Y-108.5
X153.01Y-103.7
X153.01Y-104.69
X153.01Y-105.7
X153.93Y-112.75
X154.0Y-103.71
X154.0Y-104.7
X154.0Y-105.71
X154.25Y-108.45
X154.25Y-111.13
X154.37Y-93.87
X154.99Y-103.71
X154.99Y-104.7
X154.99Y-105.71
X155.05Y-112.75
X155.26Y-100.82
X155.85Y-82.98
X155.96Y-92.26
X156.15Y-112.75
X156.9Y-84.4
X157.05Y-91.19
X157.25Y-112.75
X157.26Y-98.84
X157.8Y-84.4
X158.35Y-98.84
X158.4Y-109.2
X158.85Y-82.98
X158.9Y-108.6
X160.0Y-93.9
X160.0Y-96.41
X160.2Y-108.5
X160.22Y-111.27
X160.3Y-106.0
X161.0Y-101.4
X161.0Y-103.7
X161.0Y-106.0
X161.0Y-106.7
X161.0Y-108.5
X161.38Y-89.3
X161.38Y-90.68
X161.4Y-107.3
X161.7Y-101.4
X161.7Y-103.7
X161.7Y-106.0
X162.4Y-101.6
X162.4Y-105.8
X162.565Y-118.0
X162.565Y-119.01
X162.6Y-103.3
X162.6Y-104.1
X162.8Y-107.8
X163.2Y-101.7
X163.2Y-103.7
X163.2Y-105.7
X163.525Y-116.11
X163.525Y-117.13
X163.8Y-101.7
X163.8Y-103.7
X163.8Y-105.7
X164.2Y-92.0
X164.2Y-93.3
X164.485Y-117.99
X164.485Y-119.01
X165.11Y-88.33
X165.11Y-90.35
X165.12Y-87.54
X165.725Y-108.95
X165.81Y-88.33
X166.29Y-96.22
X167.3Y-98.0
X167.3Y-99.1
X168.2Y-98.0
X168.2Y-99.1
X168.2Y-100.3
X168.2Y-102.5
X169.0Y-98.0
X169.0Y-99.1
X169.0Y-100.3
X169.0Y-103.3
X170.1Y-100.3
X170.1Y-102.5
X170.8Y-98.1
X170.8Y-99.4
X170.8Y-103.3
X171.4Y-100.3
X171.4Y-102.5
X172.9Y-99.1
X172.9Y-100.3
X172.9Y-103.3
X173.4Y-98.2
X173.4Y-105.0
X174.2Y-97.0
X174.65Y-106.32
X174.8Y-98.2
X175.8Y-97.0
X176.22Y-84.28
X176.4Y-98.2
X176.41Y-106.32
X177.09Y-86.09
X177.1Y-85.04
X177.5Y-97.0
X177.9Y-98.2
X177.9Y-106.32
X179.05Y-106.31
X179.2Y-98.2
T2
X135.0Y-81.0
X135.0Y-84.0
X135.0Y-87.0
X135.0Y-90.0
X135.0Y-93.0
X135.0Y-96.0
X135.0Y-99.0
X135.0Y-101.0
X135.0Y-105.0
X135.0Y-107.0
X135.0Y-109.0
X135.0Y-111.0
X135.0Y-113.0
X135.0Y-115.0
X135.0Y-117.0
X135.0Y-119.0
X136.4Y-90.0
X137.0Y-93.0
X137.0Y-96.0
X137.0Y-99.0
X137.0Y-101.0
X137.0Y-107.0
X137.0Y-109.0
X137.0Y-111.0
X137.0Y-113.0
X137.0Y-115.0
X137.0Y-117.0
X137.6Y-90.0
X138.0Y-119.0
X138.8Y-90.0
X139.0Y-93.0
X139.0Y-96.0
X139.0Y-99.0
X139.0Y-101.0
X139.0Y-107.0
X139.0Y-113.0
X139.72Y-115.18
X139.73Y-114.09
X140.2Y-93.48
X140.2Y-95.1
X140.2Y-109.52
X140.2Y-110.6
X140.2Y-111.62
X140.22Y-113.08
X141.2Y-119.0
X143.0Y-117.0
X143.4Y-119.0
X145.7Y-101.6
X145.71Y-103.7
X146.01Y-96.93
X146.26Y-114.15
X147.0Y-117.0
X147.0Y-119.0
X147.3Y-96.91
X147.5Y-101.6
X147.69Y-109.88
X148.2Y-90.9
X148.59Y-96.9
X148.85Y-109.89
X149.31Y-106.67
X149.7Y-82.4
X150.0Y-119.0
X150.38Y-106.67
X150.65Y-100.51
X151.4Y-89.3
X152.5Y-89.3
X153.0Y-117.0
X153.0Y-119.0
X153.6Y-89.3
X154.0Y-81.0
X156.0Y-117.0
X156.0Y-119.0
X158.19Y-105.34
X158.2Y-102.52
X159.0Y-117.0
X159.0Y-119.0
X159.46Y-100.54
X160.47Y-100.54
X161.7Y-109.6
X164.0Y-81.0
X166.0Y-119.0
X167.0Y-81.0
X169.0Y-107.0
X169.0Y-109.0
X169.0Y-112.0
X169.0Y-114.0
X169.0Y-119.0
X169.98Y-96.18
X170.0Y-81.0
X171.0Y-107.0
X171.0Y-109.0
X172.0Y-112.0
X172.0Y-114.0
X172.0Y-119.0
X175.0Y-114.0
X176.0Y-81.0
X176.0Y-93.0
X176.0Y-96.0
X176.0Y-108.0
X176.0Y-110.0
X176.0Y-112.0
X177.0Y-114.0
X177.0Y-119.0
X179.0Y-81.0
X179.0Y-84.0
X179.0Y-87.0
X179.0Y-90.0
X179.0Y-93.0
X179.0Y-96.0
X179.0Y-108.0
X179.0Y-110.0
X179.0Y-112.0
X179.0Y-114.0
X179.0Y-119.0
T0
M30
